<svg width="24" height="24" viewBox="0 0 24 24" fill="none" xmlns="http://www.w3.org/2000/svg">
<g id="assistant_direction">
<mask id="mask0_218_1138" style="mask-type:alpha" maskUnits="userSpaceOnUse" x="0" y="0" width="24" height="24">
<rect id="Bounding box" width="24" height="24" fill="#D9D9D9"/>
</mask>
<g mask="url(#mask0_218_1138)">
<path id="assistant_direction_2" d="M11.9999 23C10.4832 23 9.05404 22.7125 7.71238 22.1375C6.37071 21.5625 5.20404 20.7792 4.21238 19.7875C3.22071 18.7958 2.43738 17.6292 1.86238 16.2875C1.28738 14.9458 0.999878 13.5167 0.999878 12C0.999878 10.4667 1.28738 9.03333 1.86238 7.7C2.43738 6.36667 3.22071 5.20417 4.21238 4.2125C5.20404 3.22083 6.37071 2.4375 7.71238 1.8625C9.05404 1.2875 10.4832 1 11.9999 1C13.5332 1 14.9665 1.2875 16.2999 1.8625C17.6332 2.4375 18.7957 3.22083 19.7874 4.2125C20.779 5.20417 21.5624 6.36667 22.1374 7.7C22.7124 9.03333 22.9999 10.4667 22.9999 12C22.9999 13.5167 22.7124 14.9458 22.1374 16.2875C21.5624 17.6292 20.779 18.7958 19.7874 19.7875C18.7957 20.7792 17.6332 21.5625 16.2999 22.1375C14.9665 22.7125 13.5332 23 11.9999 23ZM11.3749 19.775C11.5415 19.9417 11.7332 20.025 11.9499 20.025C12.1665 20.025 12.3582 19.9417 12.5249 19.775L19.7249 12.575C19.8915 12.4083 19.9749 12.2083 19.9749 11.975C19.9749 11.7417 19.8915 11.5417 19.7249 11.375L12.5249 4.175C12.3582 4.00833 12.1665 3.925 11.9499 3.925C11.7332 3.925 11.5415 4.00833 11.3749 4.175L4.17488 11.375C4.00821 11.5417 3.92488 11.7417 3.92488 11.975C3.92488 12.2083 4.00821 12.4083 4.17488 12.575L11.3749 19.775ZM7.97488 14.975V10.975C7.97488 10.675 8.06654 10.4333 8.24988 10.25C8.43321 10.0667 8.67488 9.975 8.97488 9.975H13.1249L12.0749 8.875L13.4749 7.475L16.9749 10.975L13.4749 14.475L12.0749 13.075L13.1249 11.975H9.97488V14.975H7.97488Z" fill="#FEAB01"/>
</g>
</g>
</svg>
