<svg width="40" height="40" viewBox="0 0 40 40" fill="none" xmlns="http://www.w3.org/2000/svg">
<path fill-rule="evenodd" clip-rule="evenodd" d="M7.20227 1.64367L7.03125 1.80297V6.875V11.947L7.20227 12.1063C7.34586 12.2402 7.47703 12.2656 8.02258 12.2656H8.67188V25.1988V38.1321L8.86367 38.3238L9.05539 38.5156H20H30.9446L31.1363 38.3238L31.3281 38.1321V25.1988V12.2656H31.9774C32.523 12.2656 32.6541 12.2402 32.7977 12.1063L32.9688 11.947V6.875V1.80297L32.7977 1.64367C32.6272 1.48469 32.5992 1.48438 20 1.48438C7.40078 1.48438 7.37281 1.48469 7.20227 1.64367ZM8.125 6.875V11.1719H20H31.875V6.875V2.57812H20H8.125V6.875ZM14.5878 4.39094C14.3703 4.92805 12.8689 8.48758 12.8405 8.53344C12.8201 8.56664 13.0017 8.59375 13.2443 8.59375H13.6853L13.8503 8.20312L14.0154 7.8125H15.0441H16.0729L16.2352 8.20312L16.3976 8.59375H16.8271H17.2567L16.8759 7.67578C16.6665 7.17086 16.268 6.21289 15.9904 5.54688L15.4856 4.33594L15.0573 4.31281C14.7616 4.2968 14.6162 4.32102 14.5878 4.39094ZM17.5535 4.3475C17.5241 4.37695 17.5 4.53578 17.5 4.70055V5H18.2031H18.9062V6.79688V8.59375H19.2969H19.6875V6.79688V5H20.3951H21.1027L21.0787 4.66797L21.0547 4.33594L19.3309 4.31492C18.3828 4.30344 17.583 4.31805 17.5535 4.3475ZM22.1094 6.44531V8.59375H22.4982H22.887L22.9084 7.21172L22.9297 5.82977L23.5859 7.05547C23.947 7.72969 24.2645 8.28125 24.2917 8.28125C24.3189 8.28125 24.6388 7.72984 25.0027 7.05586L25.6641 5.83047L25.6854 7.21211L25.7067 8.59375H26.0955H26.4844V6.44531V4.29688H26.102H25.7197L25.0278 5.58531C24.6473 6.29398 24.3167 6.87406 24.2932 6.87437C24.2697 6.87477 23.9389 6.29492 23.5582 5.58594L22.866 4.29688H22.4877H22.1094V6.44531ZM14.6815 6.22492C14.4914 6.68375 14.3242 7.08805 14.3099 7.12336C14.2955 7.15867 14.6208 7.1875 15.0326 7.1875C15.4444 7.1875 15.7812 7.16883 15.7812 7.14602C15.7812 7.09148 15.0675 5.39062 15.0446 5.39062C15.0349 5.39062 14.8715 5.76609 14.6815 6.22492ZM9.76562 24.8438V37.4219H20H30.2344V24.8438V12.2656H20H9.76562V24.8438ZM11.6762 14.1762L11.4844 14.3679V18.3594V22.3509L11.6762 22.5426L11.8679 22.7344H20H28.1321L28.3238 22.5426L28.5156 22.3509V18.3594V14.3679L28.3238 14.1762L28.1321 13.9844H20H11.8679L11.6762 14.1762ZM12.5781 18.3594V21.6406H20H27.4219V18.3594V15.0781H20H12.5781V18.3594ZM11.6762 26.598C11.5707 26.7035 11.4844 26.8633 11.4844 26.9531C11.4844 27.043 11.5707 27.2027 11.6762 27.3082L11.8679 27.5H15.1562H18.4446L18.6363 27.3082C18.8797 27.0649 18.8797 26.8413 18.6363 26.598L18.4446 26.4062H15.1562H11.8679L11.6762 26.598ZM21.1893 26.5279C21.0605 26.618 21.0156 26.7279 21.0156 26.9531C21.0156 27.393 21.2066 27.5 21.9922 27.5C22.7777 27.5 22.9688 27.393 22.9688 26.9531C22.9688 26.5132 22.7777 26.4062 21.9922 26.4062C21.5491 26.4062 21.3115 26.4423 21.1893 26.5279ZM23.9062 26.5625C23.8195 26.6493 23.75 26.8229 23.75 26.9531C23.75 27.3768 23.9708 27.5 24.7301 27.5C25.3348 27.5 25.4158 27.482 25.5895 27.3082C25.6949 27.2027 25.7812 27.043 25.7812 26.9531C25.7812 26.8633 25.6949 26.7035 25.5895 26.598C25.4158 26.4243 25.3348 26.4062 24.7301 26.4062C24.1666 26.4062 24.0381 26.4306 23.9062 26.5625ZM26.6762 26.598C26.5707 26.7035 26.4844 26.8633 26.4844 26.9531C26.4844 27.043 26.5707 27.2027 26.6762 27.3082C26.8481 27.4802 26.933 27.5 27.5 27.5C28.067 27.5 28.1519 27.4802 28.3238 27.3082C28.4293 27.2027 28.5156 27.043 28.5156 26.9531C28.5156 26.8633 28.4293 26.7035 28.3238 26.598C28.1519 26.426 28.067 26.4062 27.5 26.4062C26.933 26.4062 26.8481 26.426 26.6762 26.598ZM21.1893 28.2466C21.0605 28.3368 21.0156 28.4466 21.0156 28.6719C21.0156 29.1118 21.2066 29.2188 21.9922 29.2188C22.7777 29.2188 22.9688 29.1118 22.9688 28.6719C22.9688 28.232 22.7777 28.125 21.9922 28.125C21.5491 28.125 21.3115 28.161 21.1893 28.2466ZM23.9062 28.2812C23.8195 28.368 23.75 28.5416 23.75 28.6719C23.75 29.0955 23.9708 29.2188 24.7301 29.2188C25.3348 29.2188 25.4158 29.2007 25.5895 29.027C25.6949 28.9215 25.7812 28.7617 25.7812 28.6719C25.7812 28.582 25.6949 28.4223 25.5895 28.3168C25.4158 28.143 25.3348 28.125 24.7301 28.125C24.1666 28.125 24.0381 28.1494 23.9062 28.2812ZM26.6762 28.3168C26.5707 28.4223 26.4844 28.582 26.4844 28.6719C26.4844 28.7617 26.5707 28.9215 26.6762 29.027C26.8481 29.199 26.933 29.2188 27.5 29.2188C28.067 29.2188 28.1519 29.199 28.3238 29.027C28.4293 28.9215 28.5156 28.7617 28.5156 28.6719C28.5156 28.582 28.4293 28.4223 28.3238 28.3168C28.1519 28.1448 28.067 28.125 27.5 28.125C26.933 28.125 26.8481 28.1448 26.6762 28.3168ZM21.1893 29.9654C21.0605 30.0555 21.0156 30.1654 21.0156 30.3906C21.0156 30.8305 21.2066 30.9375 21.9922 30.9375C22.7777 30.9375 22.9688 30.8305 22.9688 30.3906C22.9688 29.9507 22.7777 29.8438 21.9922 29.8438C21.5491 29.8438 21.3115 29.8798 21.1893 29.9654ZM23.9062 30C23.8195 30.0868 23.75 30.2604 23.75 30.3906C23.75 30.8143 23.9708 30.9375 24.7301 30.9375C25.3348 30.9375 25.4158 30.9195 25.5895 30.7457C25.6949 30.6402 25.7812 30.4805 25.7812 30.3906C25.7812 30.3008 25.6949 30.141 25.5895 30.0355C25.4158 29.8618 25.3348 29.8438 24.7301 29.8438C24.1666 29.8438 24.0381 29.8681 23.9062 30ZM26.6762 30.0355C26.5707 30.141 26.4844 30.3008 26.4844 30.3906C26.4844 30.4805 26.5707 30.6402 26.6762 30.7457C26.8481 30.9177 26.933 30.9375 27.5 30.9375C28.067 30.9375 28.1519 30.9177 28.3238 30.7457C28.4293 30.6402 28.5156 30.4805 28.5156 30.3906C28.5156 30.3008 28.4293 30.141 28.3238 30.0355C28.1519 29.8635 28.067 29.8438 27.5 29.8438C26.933 29.8438 26.8481 29.8635 26.6762 30.0355Z" fill="#0B6B94"/>
</svg>
