<svg width="44" height="44" viewBox="0 0 44 44" fill="none" xmlns="http://www.w3.org/2000/svg">
<g clip-path="url(#clip0_9238_5676)">
<path fill-rule="evenodd" clip-rule="evenodd" d="M13.2577 2.94516L11 5.20283V7.07016V8.9375H7.42208C4.86415 8.9375 3.74335 8.96732 3.49044 9.042C3.01838 9.18148 2.30648 9.89338 2.167 10.3654C2.10951 10.56 2.0625 10.9731 2.0625 11.2835C2.0625 11.7783 2.04067 11.8547 1.88495 11.9041C1.60188 11.994 1.12329 12.4573 0.918758 12.8395C0.749805 13.1552 0.730469 13.3195 0.730469 14.4375C0.730469 15.4884 0.755563 15.7307 0.890656 15.9844C1.11427 16.4043 1.44788 16.7447 1.82617 16.9393C2.00346 17.0305 2.14852 17.1526 2.14852 17.2107C2.14912 17.7842 4.58348 40.3917 4.68617 40.7773C4.86905 41.4641 5.14826 41.9231 5.66706 42.3895C6.1502 42.8239 6.68473 43.1016 7.28501 43.2303C7.5466 43.2864 9.69684 43.3042 13.3203 43.2801C16.4162 43.2596 19.0652 43.2485 19.207 43.2554C19.3488 43.2625 23.448 43.2685 28.3164 43.2688L37.168 43.2695L37.7095 42.9759C38.5419 42.5245 39.0468 41.7891 39.1548 40.8706C39.2398 40.1465 39.0695 39.6612 38.5477 39.1416C38.0108 38.607 37.6761 38.5 36.5407 38.5H35.6756L36.2649 37.3613C36.5891 36.735 36.9579 35.9616 37.0847 35.6426L37.3152 35.0625H39.4437C41.8758 35.0625 42.0972 35.0201 42.6864 34.4424C43.2454 33.8944 43.3125 33.5923 43.3125 31.625C43.3125 29.6577 43.2454 29.3556 42.6864 28.8076C42.1279 28.26 41.818 28.1875 40.036 28.1875C38.672 28.1875 38.5 28.1718 38.5 28.0471C38.5 27.3917 37.7425 26.4276 37.0721 26.2295C36.8073 26.1513 34.9965 26.125 29.8738 26.125H23.0292L23.0766 25.8027C23.1342 25.4116 23.9766 17.3747 23.9766 17.2168C23.9766 17.1554 24.1216 17.0305 24.2988 16.9393C24.6771 16.7447 25.0107 16.4043 25.2343 15.9844C25.3694 15.7307 25.3945 15.4884 25.3945 14.4375C25.3945 13.3195 25.3752 13.1552 25.2062 12.8395C25.0017 12.4573 24.5231 11.994 24.24 11.9041C24.0843 11.8547 24.0625 11.7783 24.0625 11.2835C24.0625 10.9731 24.0155 10.56 23.958 10.3654C23.8185 9.89338 23.1066 9.18148 22.6346 9.042C22.3816 8.96732 21.2609 8.9375 18.7029 8.9375H15.125V8.0593V7.18111L16.8438 5.45497C18.4039 3.88807 18.5625 3.70167 18.5625 3.43595C18.5625 3.17393 18.4339 3.0146 17.3346 1.91537C16.2305 0.811336 16.0769 0.6875 15.811 0.6875C15.5389 0.6875 15.3357 0.867109 13.2577 2.94516ZM14.0715 4.10429L12.375 5.80233V7.36991V8.9375H13.0625H13.75V7.7611V6.58479L15.3155 5.01093L16.881 3.43716L16.3709 2.9217C16.0904 2.6382 15.8399 2.40625 15.8144 2.40625C15.7889 2.40625 15.0045 3.17041 14.0715 4.10429ZM3.81253 10.413C3.56718 10.5318 3.4375 10.8402 3.4375 11.3048V11.6875H13.0625H22.6875V11.3048C22.6875 10.8243 22.5564 10.5305 22.2873 10.4079C22.0035 10.2786 4.0798 10.2836 3.81253 10.413ZM2.27348 13.2735C2.07763 13.4692 2.0625 13.5459 2.0625 14.3436C2.0625 15.286 2.14603 15.5728 2.46271 15.7171C2.75988 15.8525 23.3651 15.8525 23.6623 15.7171C23.9726 15.5757 24.0625 15.2883 24.0625 14.4375C24.0625 13.5867 23.9726 13.2993 23.6623 13.1579C23.5124 13.0897 20.4693 13.0625 12.9686 13.0625H2.48437L2.27348 13.2735ZM3.55824 17.5098C3.58566 17.6871 3.72573 18.9922 3.86951 20.4102C4.0132 21.8281 4.14958 23.0752 4.17252 23.1816L4.2142 23.375H13.0603H21.9062L21.9532 23.0957C21.9789 22.942 22.1161 21.6756 22.2578 20.2812C22.3995 18.8869 22.5367 17.6204 22.5625 17.4668L22.6094 17.1875H13.0588H3.50831L3.55824 17.5098ZM25.4128 17.8564C25.1901 18.0826 25.0078 18.3061 25.0078 18.3533C25.0078 18.4004 25.2397 18.6684 25.523 18.9488C26.3005 19.7182 26.3151 20.0606 25.6039 20.8459C24.9573 21.5599 24.7969 21.9258 24.7969 22.6875C24.7969 23.1993 24.8388 23.4113 25.0002 23.717C25.2189 24.1314 26.1757 25.1797 26.3352 25.1797C26.4512 25.1797 27.2422 24.3922 27.2422 24.2767C27.2422 24.2323 27.0005 23.9522 26.7051 23.6541C26.1943 23.1387 26.168 23.0917 26.168 22.6945C26.168 22.3097 26.2027 22.2402 26.6097 21.8099C27.2759 21.1054 27.4531 20.7121 27.4531 19.9375C27.4531 19.4257 27.4112 19.2136 27.2498 18.908C27.0311 18.4936 26.0743 17.4453 25.9148 17.4453C25.8614 17.4453 25.6355 17.6303 25.4128 17.8564ZM30.9128 17.8564C30.6901 18.0826 30.5078 18.3061 30.5078 18.3533C30.5078 18.4004 30.7397 18.6684 31.023 18.9488C31.8005 19.7182 31.8151 20.0606 31.1039 20.8459C30.4573 21.5599 30.2969 21.9258 30.2969 22.6875C30.2969 23.1993 30.3388 23.4113 30.5002 23.717C30.7189 24.1314 31.6757 25.1797 31.8352 25.1797C31.9512 25.1797 32.7422 24.3922 32.7422 24.2767C32.7422 24.2323 32.5005 23.9522 32.2051 23.6541C31.6943 23.1387 31.668 23.0917 31.668 22.6945C31.668 22.3097 31.7027 22.2402 32.1097 21.8099C32.7759 21.1054 32.9531 20.7121 32.9531 19.9375C32.9531 19.4257 32.9112 19.2136 32.7498 18.908C32.5311 18.4936 31.5743 17.4453 31.4148 17.4453C31.3614 17.4453 31.1355 17.6303 30.9128 17.8564ZM12.2289 27.6548C11.2954 27.9883 10.7005 28.6156 10.4276 29.5543C10.2562 30.1438 10.3146 30.7818 10.5959 31.3963C11.3749 33.0978 13.6581 33.5021 14.9864 32.1739C16.0356 31.1247 16.0357 29.3516 14.9866 28.3201C14.269 27.6145 13.1184 27.337 12.2289 27.6548ZM19.625 27.6005C19.236 27.7889 19.1684 28.3761 19.3382 30.0905C19.6188 32.9241 20.5125 35.5437 22.0236 37.9629L22.3591 38.5H28.1863H34.0135L34.4014 37.8769C36.1147 35.1252 37.0485 32.014 37.0728 28.9755C37.0817 27.8701 37.0749 27.8242 36.8791 27.665C36.6821 27.5047 36.4354 27.5002 28.2424 27.5058C22.6212 27.5097 19.7474 27.5412 19.625 27.6005ZM21.3125 30.25V30.9375H24.0625H26.8125V30.25V29.5625H24.0625H21.3125V30.25ZM28.1875 30.25V30.9375H28.875H29.5625V30.25V29.5625H28.875H28.1875V30.25ZM38.4141 29.9498C38.4141 30.4587 38.1942 31.915 37.9818 32.8134C37.8886 33.2071 37.8125 33.5648 37.8125 33.6083C37.8125 33.6542 38.5928 33.6875 39.664 33.6875C42.1189 33.6875 41.9375 33.8521 41.9375 31.625C41.9375 29.4248 42.0692 29.5625 39.9648 29.5625H38.4141V29.9498ZM5.6754 37.4043C5.68545 38.1977 6.00145 40.4606 6.14041 40.7344C6.35061 41.1486 6.68241 41.4892 7.08984 41.7091C7.4293 41.8922 7.49719 41.8949 12.4754 41.9193L17.5172 41.9439L17.3442 41.4896C16.9528 40.4617 17.2967 39.3441 18.1709 38.803C18.5689 38.5567 18.6464 38.5415 19.6379 38.5148L20.6848 38.4865L20.2997 37.8058L19.9146 37.125H12.7933H5.67188L5.6754 37.4043ZM18.9948 39.9849C18.8781 40.044 18.7288 40.1884 18.663 40.3059C18.3906 40.7931 18.9175 41.6695 19.592 41.8511C19.8156 41.9113 22.705 41.9332 28.3747 41.9176L36.8242 41.8945L37.125 41.7071C37.4754 41.4888 37.6865 41.1645 37.7707 40.7154C37.8236 40.4337 37.7997 40.3646 37.5704 40.1353L37.3101 39.875L28.2586 39.8763C21.191 39.8772 19.1605 39.901 18.9948 39.9849Z" fill="#0B6B94"/>
</g>
<defs>
<clipPath id="clip0_9238_5676">
<rect width="44" height="44" fill="white"/>
</clipPath>
</defs>
</svg>
