<svg width="40" height="40" viewBox="0 0 40 40" fill="none" xmlns="http://www.w3.org/2000/svg">
<path fill-rule="evenodd" clip-rule="evenodd" d="M7.44204 2.27373C6.14719 2.42435 4.93524 3.02068 3.97782 3.97803C2.97313 4.98279 2.41828 6.15475 2.26688 7.59225C2.16836 8.52748 2.16727 12.4788 2.26532 13.4091C2.4261 14.9351 2.92383 15.9719 4.02852 17.0819C4.6336 17.69 4.84938 17.8498 5.47524 18.1535C6.82852 18.8102 6.59149 18.7892 12.6562 18.7892C17.767 18.7892 18.0175 18.7826 18.2246 18.6422C18.3439 18.5613 18.5197 18.3855 18.6152 18.2515L18.789 18.0079V12.6564C18.789 6.58178 18.81 6.81678 18.1459 5.46889C17.8382 4.84428 17.6683 4.61506 17.0737 4.02217C15.9855 2.93709 14.9593 2.43936 13.4548 2.26701C12.6472 2.17443 8.25289 2.17935 7.44204 2.27373ZM26.4323 2.26779C24.4805 2.47334 22.7113 3.71904 21.8306 5.50795C21.1858 6.81771 21.2109 6.5299 21.2109 12.6311C21.2109 17.9676 21.2129 18.0382 21.372 18.2513C21.4606 18.37 21.6301 18.5395 21.7488 18.6281C21.9617 18.7871 22.0332 18.7892 27.2909 18.7892C33.3623 18.7892 33.2627 18.7981 34.5608 18.1387C35.1378 17.8455 35.4074 17.6426 35.9779 17.0719C37.0746 15.9751 37.5738 14.9341 37.7345 13.4091C37.8326 12.4788 37.8315 8.52748 37.733 7.59225C37.5816 6.15475 37.0267 4.98279 36.022 3.97803C35.0303 2.98631 33.8712 2.43107 32.4538 2.26865C31.6667 2.1785 27.2864 2.17787 26.4323 2.26779ZM7.09352 4.75826C6.46172 4.96326 6.03469 5.23381 5.57383 5.721C5.12328 6.1974 4.91688 6.56014 4.72946 7.2049C4.61782 7.58896 4.60407 8.05162 4.62461 10.7224L4.64836 13.7978L4.93883 14.3853C5.32321 15.1627 5.88203 15.7211 6.64055 16.0857L7.22649 16.3673L11.8554 16.3892L16.4843 16.4112L16.4819 12.3658C16.4805 10.1408 16.4453 8.05717 16.4035 7.73537C16.2441 6.50623 15.5167 5.49857 14.3851 4.93904L13.7975 4.64857L10.6683 4.63115C7.80735 4.61521 7.50078 4.62615 7.09352 4.75826ZM26.3281 4.66537C26.2206 4.68443 25.885 4.81811 25.5822 4.96256C24.496 5.48061 23.7545 6.516 23.5963 7.73537C23.5545 8.05717 23.5193 10.1408 23.518 12.3658L23.5156 16.4112L28.1486 16.3892L32.7817 16.3673L33.3694 16.0769C34.3323 15.6008 35.0204 14.7819 35.2816 13.8009C35.3631 13.4947 35.3889 12.7047 35.3896 10.4954C35.3906 7.32521 35.3648 7.10475 34.8993 6.31045C34.6549 5.89342 33.9573 5.22537 33.5489 5.0174C32.7842 4.62787 32.5879 4.60881 29.4584 4.62014C27.8441 4.626 26.4355 4.64639 26.3281 4.66537ZM7.25539 21.2546C6.02266 21.4387 4.96203 21.9876 4.02196 22.9281C2.92524 24.0253 2.42602 25.0663 2.26532 26.5912C2.16727 27.5215 2.16836 31.4728 2.26688 32.408C2.41828 33.8455 2.97313 35.0175 3.97782 36.0222C4.96953 37.014 6.12868 37.5692 7.54602 37.7316C8.44016 37.834 12.5652 37.8352 13.4548 37.7333C14.9593 37.5609 15.9855 37.0632 17.0737 35.9781C17.6683 35.3852 17.8382 35.156 18.1459 34.5314C18.81 33.1835 18.789 33.4185 18.789 27.3439V21.9923L18.6152 21.7487C18.5197 21.6147 18.3439 21.439 18.2246 21.3581C18.0181 21.2181 17.7609 21.2105 12.8515 21.2C10.0155 21.1939 7.49727 21.2185 7.25539 21.2546ZM21.9101 21.2801C21.5618 21.4345 21.2667 21.8258 21.2108 22.2076C21.1841 22.39 21.1742 24.8419 21.189 27.6564C21.2151 32.6394 21.2203 32.7895 21.3866 33.3819C21.6794 34.4241 22.1277 35.1796 22.9273 35.9781C24.0135 37.0629 25.0398 37.5608 26.545 37.7333C27.4346 37.8352 31.5597 37.834 32.4538 37.7316C33.8712 37.5692 35.0303 37.014 36.022 36.0222C37.0573 34.9869 37.5866 33.839 37.7438 32.2877C37.7962 31.7702 37.8147 30.4514 37.7919 28.8673C37.7496 25.9411 37.6934 25.5742 37.1091 24.4142C36.5314 23.2671 35.6627 22.4101 34.4921 21.8324C33.188 21.1888 33.5213 21.2192 27.4999 21.1954C23.1372 21.1783 22.1044 21.1939 21.9101 21.2801ZM7.14836 23.7036C6.1675 24.0151 5.40282 24.6766 4.93883 25.615L4.64836 26.2025L4.62461 29.2779C4.59922 32.5732 4.6168 32.7647 5.01571 33.5468C5.22524 33.9574 5.8925 34.6547 6.31024 34.8995C7.10461 35.3651 7.32414 35.3908 10.5065 35.3908C13.1826 35.3908 13.4616 35.3782 13.9175 35.2373C15.2621 34.8218 16.2249 33.6714 16.4046 32.2658C16.4458 31.9435 16.4805 29.8604 16.4819 27.6369L16.4843 23.5939L11.9726 23.5991C8.55289 23.6031 7.38524 23.6283 7.14836 23.7036ZM23.518 27.6345C23.5193 29.8594 23.5545 31.9431 23.5963 32.2649C23.7842 33.7132 24.8209 34.9148 26.1991 35.2818C26.5053 35.3633 27.2954 35.3891 29.5047 35.3898C32.6748 35.3908 32.8953 35.3651 33.6896 34.8995C34.1066 34.6551 34.7747 33.9575 34.9827 33.5491C35.3695 32.7898 35.3906 32.5795 35.3906 29.4864C35.3906 26.8174 35.378 26.5384 35.2371 26.0826C34.9329 25.0983 34.3265 24.3966 33.3727 23.9251L32.7817 23.6329L28.1486 23.6111L23.5156 23.5891L23.518 27.6345Z" fill="#0B6B94"/>
</svg>
