<svg width="40" height="40" viewBox="0 0 40 40" fill="none" xmlns="http://www.w3.org/2000/svg">
<path fill-rule="evenodd" clip-rule="evenodd" d="M7.41889 3.45359C6.012 3.6597 4.50278 4.79492 3.86045 6.13014C3.43778 7.00859 3.33789 7.8977 3.33789 10.7776C3.33789 14.5846 3.532 15.409 4.72211 16.6568C5.45211 17.4221 6.35411 17.9334 7.27056 18.1013C8.14622 18.2617 13.5904 18.2593 14.3558 18.098C16.2132 17.7069 17.7678 16.1439 18.1138 14.3198C18.1734 14.0049 18.2223 12.3896 18.2223 10.7303C18.2223 7.45048 18.1507 6.89959 17.59 5.86937C17.201 5.15459 16.1461 4.16548 15.4168 3.83159C15.0921 3.68292 14.4781 3.51103 14.0522 3.44948C13.1348 3.31681 8.33145 3.31981 7.41889 3.45359ZM25.8334 3.45681C23.9424 3.7307 22.2587 5.38392 21.8899 7.3287C21.7462 8.08592 21.7436 13.5665 21.8864 14.3198C22.2324 16.1439 23.787 17.7069 25.6444 18.098C26.4098 18.2593 31.854 18.2617 32.7297 18.1013C33.6461 17.9334 34.5481 17.4221 35.2781 16.6568C36.018 15.8811 36.3988 15.1015 36.5504 14.0519C36.6942 13.057 36.6958 8.50881 36.5527 7.51903C36.4029 6.48248 35.964 5.62848 35.1683 4.82514C34.3781 4.02726 33.5474 3.60137 32.4808 3.44726C31.5646 3.3147 26.7664 3.3217 25.8334 3.45681ZM7.11122 21.9295C6.24322 22.1189 5.43033 22.6004 4.71789 23.3473C3.53233 24.5901 3.33789 25.4181 3.33789 29.222C3.33789 32.0884 3.43734 32.9846 3.854 33.8694C4.24034 34.6898 5.31011 35.7596 6.13056 36.1459C7.01533 36.5626 7.91156 36.662 10.7779 36.662C13.5939 36.662 14.5631 36.5588 15.4168 36.168C16.1461 35.8341 17.201 34.845 17.59 34.1303C18.1507 33.1 18.2223 32.5491 18.2223 29.2694C18.2223 27.61 18.1734 25.9947 18.1138 25.6798C17.7678 23.8557 16.2132 22.2927 14.3558 21.9016C13.5494 21.7318 7.91811 21.7535 7.11122 21.9295ZM25.5001 21.9318C23.7037 22.3693 22.2231 23.9048 21.8864 25.6798C21.7388 26.4587 21.7482 31.9079 21.8987 32.7294C22.0666 33.6458 22.5778 34.5478 23.3431 35.2778C24.5909 36.4679 25.4153 36.662 29.2223 36.662C32.0887 36.662 32.9849 36.5626 33.8697 36.1459C34.6753 35.7666 35.7414 34.6975 36.1398 33.8695C36.5624 32.991 36.6623 32.1019 36.6623 29.222C36.6623 25.415 36.4682 24.5906 35.2781 23.3428C34.5481 22.5775 33.6461 22.0663 32.7297 21.8984C31.8137 21.7306 26.2202 21.7564 25.5001 21.9318Z" fill="#0B6B94"/>
</svg>
