<svg width="40" height="40" viewBox="0 0 40 40" fill="none" xmlns="http://www.w3.org/2000/svg">
<g clip-path="url(#clip0_10625_1170)">
<path fill-rule="evenodd" clip-rule="evenodd" d="M26.648 3.13076C25.1658 3.86136 24.2412 5.64316 24.4886 7.29236C24.8368 9.61416 26.9706 10.988 29.4932 10.5148C30.9696 10.2378 32.3914 8.36636 32.3914 6.70016C32.3914 5.21116 31.2612 3.51316 29.9372 3.01296C29.1104 2.70056 27.3964 2.76196 26.648 3.13076ZM27.2398 4.53476C25.5566 5.36416 25.5766 8.06876 27.2716 8.87316C29.0592 9.72156 30.8668 8.62896 30.8668 6.70016C30.8668 4.76716 29.0136 3.66056 27.2398 4.53476ZM5.17782 4.90016C4.27422 5.39116 4.17102 5.99156 4.23822 10.3664L4.30022 14.392L4.85442 14.9462C5.37362 15.4654 5.53402 15.5046 7.40442 15.569C8.50202 15.6068 9.40022 15.7192 9.40022 15.819C9.40022 15.9218 7.47282 16.0002 4.94022 16.0002C1.73802 16.0002 0.41262 16.0678 0.24022 16.2402C-0.0839797 16.5644 -0.0839797 19.836 0.24022 20.1602C0.37602 20.296 1.02682 20.4002 1.74022 20.4002H3.00022V28.4838C3.00022 32.9298 3.05482 36.7098 3.12162 36.8838C3.23102 37.1688 4.90442 37.2002 20.0002 37.2002C35.096 37.2002 36.7694 37.1688 36.8788 36.8838C36.9456 36.7098 37.0002 32.9298 37.0002 28.4838V20.4002H38.2692C40.024 20.4002 40.2002 20.1752 40.2002 17.9344C40.2002 16.9806 40.1328 16.2144 40.0502 16.232C39.9678 16.2494 39.7652 16.2056 39.6002 16.1344C39.4352 16.0634 38.1752 15.9816 36.8002 15.9526L34.3002 15.9002L34.2484 14.8002C34.1722 13.1844 34.0634 12.8714 33.2754 11.9992C32.3376 10.961 31.6738 10.8018 28.3002 10.8058C25.0628 10.8094 24.2344 11.0576 23.2792 12.3098C22.7924 12.9482 22.6934 13.287 22.6306 14.5316L22.5564 16.0002H17.6784C14.5596 16.0002 12.8002 15.928 12.8002 15.8002C12.8002 15.6816 13.5368 15.6002 14.6102 15.6002C16.5304 15.6002 17.4114 15.3266 17.7942 14.6112C17.9168 14.3822 18.0002 12.5156 18.0002 9.99796V5.76936L17.4156 5.18476L16.831 4.60016L11.2656 4.60816C6.84922 4.61456 5.59242 4.67476 5.17782 4.90016ZM6.60022 10.1002V13.0078L11.1502 12.954L15.7002 12.9002V10.1002V7.30016L11.1502 7.24636L6.60022 7.19256V10.1002ZM24.8256 12.8194C24.2366 13.3682 24.0002 14.025 24.0002 15.1132V16.0002H28.4002H32.8002V14.9902C32.8002 13.8776 32.4046 12.9236 31.8112 12.6062C31.5952 12.4906 30.078 12.4002 28.351 12.4002C25.5052 12.4002 25.242 12.4314 24.8256 12.8194ZM11.0002 15.8002C11.0002 15.9102 11.0902 16.0002 11.2002 16.0002C11.3102 16.0002 11.4002 15.9102 11.4002 15.8002C11.4002 15.6902 11.3102 15.6002 11.2002 15.6002C11.0902 15.6002 11.0002 15.6902 11.0002 15.8002ZM0.0722203 18.2002C0.0722203 19.2452 0.10602 19.6726 0.14722 19.1502C0.18842 18.6278 0.18842 17.7726 0.14722 17.2502C0.10602 16.7278 0.0722203 17.1552 0.0722203 18.2002ZM1.60022 18.1002V18.8002H20.0002H38.4002V18.1002V17.4002H20.0002H1.60022V18.1002ZM4.60022 28.1002V35.8002H20.0002H35.4002V28.1002V20.4002H20.0002H4.60022V28.1002ZM10.8072 21.787C10.6934 21.9998 10.6002 23.1308 10.6002 24.3002C10.6002 25.4696 10.6934 26.6006 10.8072 26.8134C11.0072 27.187 11.3208 27.2002 20.0002 27.2002C28.6796 27.2002 28.9932 27.187 29.1932 26.8134C29.307 26.6006 29.4002 25.4696 29.4002 24.3002C29.4002 23.1308 29.307 21.9998 29.1932 21.787C28.9932 21.4134 28.6796 21.4002 20.0002 21.4002C11.3208 21.4002 11.0072 21.4134 10.8072 21.787ZM12.2002 24.2002V25.6002H20.0002H27.8002V24.2002V22.8002H20.0002H12.2002V24.2002Z" fill="#0B6B94"/>
</g>
<defs>
<clipPath id="clip0_10625_1170">
<rect width="40" height="40" fill="white"/>
</clipPath>
</defs>
</svg>
