<svg width="40" height="40" viewBox="0 0 40 40" fill="none" xmlns="http://www.w3.org/2000/svg">
<g clip-path="url(#clip0_9165_5861)">
<path fill-rule="evenodd" clip-rule="evenodd" d="M17.3315 0.120495C15.5489 0.398229 13.6113 1.34253 11.7579 2.8369C11.1175 3.35331 9.3041 5.17096 8.84488 5.7569L8.58839 6.08409L8.93855 6.23893C9.67128 6.56307 10.2957 7.43831 10.58 8.53964C10.7845 9.33221 10.8687 10.2072 10.9303 12.1803C10.9853 13.9377 10.9789 14.1149 10.856 14.2578C10.0383 15.208 10.2257 17.5135 11.2189 18.7257C11.4924 19.0594 11.8084 19.2717 12.1796 19.371C12.3462 19.4155 12.3884 19.513 12.5464 20.2176C12.8667 21.6454 13.4293 22.4453 15.1742 23.9538L16.0136 24.6795L15.5408 24.9315C15.1455 25.1422 15.0028 25.2804 14.671 25.7745C13.8889 26.9385 13.4516 28.017 13.3805 28.9563C13.3205 29.7482 13.3722 29.882 13.858 30.1928C14.5524 30.6369 15.7032 32.197 15.7032 32.6939C15.7032 32.8325 15.8575 33.2763 16.0459 33.68C16.6785 35.0352 16.8996 35.7988 16.9073 36.6554L16.9142 37.4125L16.6467 37.6889C16.3421 38.0035 15.8917 38.1729 15.1564 38.2493C14.8771 38.2784 14.5476 38.3533 14.4243 38.4158C13.9387 38.6618 13.281 38.2549 13.2817 37.7089C13.2821 37.3696 13.5239 37.0011 13.8291 36.8747C14.0435 36.7859 14.1326 36.7868 14.4047 36.8809C14.6001 36.9485 14.7574 37.0635 14.8048 37.1735C14.875 37.3363 14.9185 37.3498 15.2345 37.3067C15.7494 37.2364 16.0121 37.1123 16.0614 36.9158C16.122 36.6742 15.9651 35.8678 15.7284 35.2051C15.471 34.4841 14.8521 33.2796 14.7114 33.2256C14.6513 33.2024 14.4134 32.8979 14.1829 32.5489C13.5921 31.6538 12.9268 30.9375 12.6864 30.9375C12.1259 30.9375 11.5832 31.3876 10.892 32.426C10.6121 32.8464 10.3291 33.2352 10.263 33.29C10.0671 33.4526 9.54175 34.5653 9.25191 35.4316C8.97535 36.2581 8.89183 36.9699 9.05253 37.1306C9.10128 37.1793 9.37011 37.2338 9.64988 37.2516C10.1186 37.2814 10.1706 37.2687 10.3123 37.0885C10.6481 36.6617 11.4277 36.7846 11.6738 37.303C11.8274 37.6267 11.8282 37.76 11.6785 38.0495C11.5564 38.2856 11.2048 38.5157 10.9661 38.5157C10.8917 38.5157 10.6878 38.449 10.5131 38.3675C10.3299 38.2821 9.93933 38.2021 9.59035 38.1783C8.85652 38.1284 8.38847 37.9034 8.17839 37.4996C7.86933 36.9053 8.13675 35.5315 8.88558 33.8672C9.08199 33.4306 9.24488 32.9446 9.25472 32.7653C9.26785 32.5257 9.38347 32.2742 9.71222 31.7697C10.3398 30.807 10.7121 30.4346 11.4101 30.0714L12.0146 29.7569L12.1064 29.1167C12.1568 28.7646 12.2678 28.2 12.3531 27.8621C12.4383 27.5241 12.4921 27.2315 12.4725 27.212C12.4528 27.1924 12.038 27.2657 11.5505 27.3748C11.063 27.4839 9.64464 27.7511 8.39855 27.9685C4.25253 28.6922 3.41253 28.9754 2.28503 30.0301C1.67941 30.5967 1.49222 30.8758 1.22894 31.6057C0.933627 32.4244 0.726674 33.4807 0.467689 35.4915C0.339252 36.4888 0.196361 37.5133 0.150111 37.7682C-0.0376232 38.8048 0.423549 39.6028 1.3762 39.8894C1.68863 39.9835 4.48027 40 19.9983 40C39.9583 40 38.7389 40.0279 39.2967 39.5586C39.8342 39.1064 39.9775 38.5393 39.8128 37.5175C39.7455 37.0997 39.6175 36.1602 39.5285 35.4297C39.2447 33.1008 38.8527 31.492 38.3966 30.7838C38.1692 30.4307 37.4889 29.7803 37.0126 29.4608C36.2777 28.9677 35.2692 28.6957 32.3568 28.2053C29.6071 27.7421 28.8783 27.5671 27.9194 27.1392C27.857 27.1114 27.8626 27.2336 27.9385 27.5538C28.1439 28.4209 28.2814 29.7802 28.2832 30.961L28.285 32.1485L28.8355 32.4582C29.4929 32.828 29.9395 33.29 30.222 33.8926C30.3965 34.265 30.4296 34.4424 30.4284 35C30.4271 35.5771 30.3955 35.7307 30.1872 36.1719C29.7611 37.0746 28.9075 37.7323 27.9649 37.8843C26.7618 38.0782 25.4867 37.3635 24.9345 36.1856C24.7529 35.7982 24.7267 35.6437 24.7267 34.961C24.7267 34.2582 24.7488 34.1365 24.9466 33.75C25.318 33.0243 25.9165 32.5046 26.7384 32.1944L26.9532 32.1133V31.1388C26.9532 28.4707 26.3014 26.34 25.1072 25.1039C24.8321 24.819 24.5855 24.6074 24.5593 24.6335C24.5332 24.6597 24.6616 24.9836 24.8447 25.3533C25.0353 25.738 25.1481 26.0538 25.1085 26.0916C24.6181 26.5594 20.4867 29.9205 20.4217 29.9046C20.3731 29.8926 19.2242 29.1094 17.8686 28.1641L15.4039 26.4453L15.6217 26.0547C15.7415 25.8399 15.9015 25.4971 15.9773 25.293C16.0531 25.0889 16.1289 24.9219 16.1457 24.9219C16.1626 24.9219 16.3776 25.0231 16.6235 25.1467C18.2787 25.9794 20.1704 26.2073 21.8536 25.7768C23.1242 25.4518 23.7964 25.0146 25.297 23.5375C26.7756 22.0821 27.2435 21.3231 27.4216 20.0916C27.4631 19.8049 27.4977 19.5482 27.4985 19.521C27.4994 19.4939 27.6513 19.4336 27.836 19.3871C28.911 19.1164 29.743 17.7358 29.826 16.0852C29.8734 15.1413 29.7356 14.6634 29.3034 14.2729C29.1402 14.1254 28.9646 13.9908 28.9133 13.9737C28.8557 13.9545 28.9818 13.7007 29.2423 13.3116C30.0479 12.1079 30.3486 11.0192 30.3404 9.33596C30.3356 8.34018 30.3048 8.05112 30.1354 7.4126C29.4152 4.69628 27.5749 2.80034 25.267 2.39682C24.7097 2.2994 24.5828 2.2412 23.9845 1.80807C21.9639 0.345416 19.6521 -0.24099 17.3315 0.120495ZM23.3595 7.70409C22.6935 8.16464 21.7277 8.62557 21.0149 8.82315C20.7 8.91042 19.8243 9.07206 19.0689 9.18245C17.4717 9.41573 16.6723 9.66354 15.762 10.2074C14.0603 11.2242 13.4465 12.4304 13.6709 14.3171C13.7639 15.0993 13.761 15.1709 13.6313 15.3143C13.419 15.5489 13.0758 15.5077 12.6183 15.1925C12.3977 15.0406 12.1189 14.9088 11.9988 14.8996C11.1556 14.8349 11.2671 17.3035 12.1444 18.1224C12.3135 18.2803 12.4204 18.3119 12.7379 18.2981C13.2975 18.2738 13.3882 18.3953 13.502 19.3213C13.6452 20.487 13.9721 21.2285 14.7034 22.0459C15.086 22.4736 16.5055 23.6969 17.0002 24.0253C17.9534 24.658 19.1223 24.9657 20.2668 24.8852C22.275 24.744 23.0332 24.3349 24.9347 22.3664C26.0318 21.2308 26.3117 20.6232 26.3947 19.1964C26.4435 18.3598 26.4535 18.3213 26.6519 18.2102C26.83 18.1104 26.9032 18.1092 27.1831 18.2017C27.6124 18.3433 27.8544 18.2524 28.1781 17.8281C28.6623 17.1933 28.9511 15.6627 28.6802 15.1674C28.5471 14.9244 28.2621 14.9789 27.6938 15.3561C27.2039 15.6812 26.9279 15.6888 26.7009 15.3832C26.5673 15.2035 26.5595 15.1303 26.632 14.738C26.677 14.4946 26.7523 13.8424 26.7993 13.2887C26.9925 11.0119 26.5304 9.38284 25.38 8.28565C24.9996 7.92284 24.1075 7.33917 23.9472 7.34831C23.9032 7.35081 23.6388 7.51089 23.3595 7.70409ZM27.0643 33.82C25.65 34.4624 26.3228 36.5524 27.8633 36.3024C29.0559 36.1088 29.2792 34.3679 28.1796 33.8357C27.7654 33.6351 27.4803 33.6311 27.0643 33.82Z" fill="#0B6B94"/>
</g>
<defs>
<clipPath id="clip0_9165_5861">
<rect width="40" height="40" fill="white"/>
</clipPath>
</defs>
</svg>
