<svg width="45" height="45" viewBox="0 0 45 45" fill="none" xmlns="http://www.w3.org/2000/svg">
<path fill-rule="evenodd" clip-rule="evenodd" d="M23.866 2.52001C23.4906 2.97241 23.6668 6.04501 24.0832 6.30681C24.3246 6.45841 24.5038 6.44361 24.7332 6.25341C25.1946 5.87041 25.1948 2.53781 24.7336 2.36081C24.2684 2.18221 24.1244 2.20861 23.866 2.52001ZM17.29 5.67941C16.8556 6.11381 17.0358 6.51341 18.1938 7.68361C19.404 8.90661 19.9016 9.09021 20.2488 8.44161C20.4332 8.09721 20.2868 7.86881 19.1596 6.74161C18.4434 6.02541 17.7838 5.43941 17.6938 5.43941C17.6036 5.43941 17.422 5.54741 17.29 5.67941ZM29.7242 6.67921C28.412 7.93921 28.1334 8.65601 28.8988 8.80181C29.637 8.94241 31.9808 6.61301 31.738 5.98021C31.4718 5.28641 31.0064 5.44801 29.7242 6.67921ZM23.1868 8.92921C22.767 9.07881 22.24 9.36741 22.0154 9.57041C21.4994 10.037 20.85 11.297 20.85 11.8314C20.85 12.2358 20.774 12.2394 12.041 12.2394H3.2318L2.741 12.7304L2.25 13.2212V26.6158V40.0104L2.777 40.4248C3.1272 40.7004 3.5966 40.8394 4.177 40.8394C5.0396 40.8394 5.05 40.8312 5.05 40.147C5.05 38.4502 6.3786 36.3616 7.95 35.5882C9.5314 34.8098 11.6778 35.0268 13.0956 36.1082C14.2088 36.957 15.05 38.573 15.05 39.8622V40.8394H22.95H30.85V40.075C30.85 38.2566 31.973 36.495 33.6912 35.6184C34.8208 35.0422 36.8596 35.0306 37.9538 35.5942C39.5908 36.4374 40.837 38.3316 40.8456 39.9894L40.85 40.8394H41.723C42.3034 40.8394 42.7728 40.7004 43.123 40.4248L43.65 40.0104V35.1326C43.65 30.3724 43.6394 30.2452 43.2122 29.8472C42.8648 29.5234 42.504 29.4388 41.4622 29.4368L40.15 29.434L37.8908 24.963C36.6482 22.5038 35.4038 20.2776 35.1252 20.0156C34.6394 19.5588 34.4816 19.5368 31.2344 19.4762L27.85 19.413V15.3162C27.85 10.83 27.7866 10.5266 26.651 9.57101C26.0684 9.08081 24.901 8.63261 24.25 8.64921C24.085 8.65361 23.6066 8.77941 23.1868 8.92921ZM3.65 23.6394V33.6394H15.05H26.45V23.6394V13.6394H15.05H3.65V23.6394ZM12.3736 16.9502C12.3056 17.1272 12.25 18.0748 12.25 19.0558V20.8394L10.4 20.8424C9.3826 20.8442 8.4346 20.9186 8.2938 21.0082C8.102 21.1298 8.0518 21.8218 8.0938 23.755L8.15 26.3394L10.2 26.3964L12.25 26.4534V28.4514C12.25 30.412 12.2596 30.453 12.763 30.6444C13.3336 30.8612 16.2566 30.908 17.2182 30.7158L17.8366 30.592L17.8932 28.5658L17.95 26.5394L20.05 26.4394L22.15 26.3394L22.2064 23.8676C22.244 22.2158 22.186 21.3034 22.0318 21.1176C21.8634 20.9144 21.2694 20.8394 19.8326 20.8394H17.864L17.807 18.7894L17.75 16.7394L15.1236 16.6838C12.8606 16.6358 12.48 16.6726 12.3736 16.9502ZM27.85 27.2394V33.6394H35.05H42.25V32.2564V30.8736L40.7576 30.7336L39.2654 30.5938L36.7402 25.7166L34.2152 20.8394H31.0326H27.85V27.2394ZM8.2684 37.0718C6.8822 38.0228 6.287 39.4698 6.6784 40.9376C6.9814 42.073 7.5844 42.8288 8.5302 43.2584C10.9156 44.3416 13.5436 42.716 13.5304 40.1648C13.5202 38.134 12.2428 36.807 10.176 36.6798C9.1432 36.6162 8.8426 36.678 8.2684 37.0718ZM34.0344 37.0942C31.5254 38.7848 31.818 42.3066 34.554 43.3516C36.9358 44.2612 39.3004 42.598 39.2806 40.0274C39.2698 38.646 38.6056 37.5424 37.41 36.9204C36.5456 36.4706 34.8284 36.559 34.0344 37.0942Z" fill="#0B6B94"/>
</svg>
