<svg width="24" height="24" viewBox="0 0 24 24" fill="none" xmlns="http://www.w3.org/2000/svg">
<mask id="mask0_10883_17546" style="mask-type:alpha" maskUnits="userSpaceOnUse" x="0" y="0" width="24" height="24">
<rect width="24" height="24" fill="#D9D9D9"/>
</mask>
<g mask="url(#mask0_10883_17546)">
<path d="M12.25 21.35L10.7637 20.05C9.03833 18.5333 7.61187 17.225 6.48437 16.125C5.35687 15.025 4.46 14.0375 3.79375 13.1625C3.1275 12.2875 2.66198 11.4833 2.39719 10.75C2.1324 10.0167 2 9.26667 2 8.5C2 6.93333 2.53812 5.625 3.61437 4.575C4.69062 3.525 6.03167 3 7.6375 3C8.52583 3 9.37146 3.18333 10.1744 3.55C10.9773 3.91667 11.6692 4.43333 12.25 5.1C12.8308 4.43333 13.5227 3.91667 14.3256 3.55C15.1285 3.18333 15.9742 3 16.8625 3C18.4683 3 19.8094 3.525 20.8856 4.575C21.9619 5.625 22.5 6.93333 22.5 8.5C22.5 9.26667 22.3676 10.0167 22.1028 10.75C21.838 11.4833 21.3725 12.2875 20.7062 13.1625C20.04 14.0375 19.1431 15.025 18.0156 16.125C16.8881 17.225 15.4617 18.5333 13.7362 20.05L12.25 21.35Z" fill="#E74C3C"/>
</g>
</svg>
