<?xml version="1.0" standalone="no"?>
<!DOCTYPE svg PUBLIC "-//W3C//DTD SVG 20010904//EN"
 "http://www.w3.org/TR/2001/REC-SVG-20010904/DTD/svg10.dtd">
<svg version="1.0" xmlns="http://www.w3.org/2000/svg"
 width="160.000000pt" height="160.000000pt" viewBox="0 0 160.000000 160.000000"
 preserveAspectRatio="xMidYMid meet">

<g transform="translate(0.000000,160.000000) scale(0.100000,-0.100000)"
fill="#000000" stroke="none">
<path d="M558 1270 c-105 -17 -169 -64 -209 -155 -19 -43 -23 -72 -27 -211 -2
-89 -1 -196 3 -238 l7 -76 36 0 37 0 1 203 c0 111 4 224 8 250 10 65 59 120
123 138 62 17 470 18 528 1 50 -14 98 -64 116 -117 17 -54 18 -473 1 -531 -15
-52 -77 -110 -126 -120 -20 -3 -36 -8 -36 -10 0 -2 8 -19 18 -38 l18 -34 53
18 c65 22 113 67 142 134 21 46 23 70 27 261 7 356 -21 442 -163 507 -47 21
-65 22 -275 24 -124 2 -251 -1 -282 -6z"/>
<path d="M1017 1092 c-22 -24 -21 -55 1 -75 36 -33 92 -8 92 41 0 47 -61 69
-93 34z"/>
<path d="M693 1020 c-49 -25 -99 -78 -119 -126 -22 -53 -18 -141 10 -200 86
-185 364 -175 444 16 9 23 13 58 10 106 -3 61 -8 80 -33 116 -17 23 -50 56
-74 73 -37 26 -53 30 -119 33 -63 2 -85 -1 -119 -18z m188 -83 c106 -71 106
-203 0 -274 -98 -66 -241 15 -241 137 0 122 143 203 241 137z"/>
</g>
</svg>
