<?xml version="1.0" standalone="no"?>
<!DOCTYPE svg PUBLIC "-//W3C//DTD SVG 20010904//EN"
 "http://www.w3.org/TR/2001/REC-SVG-20010904/DTD/svg10.dtd">
<svg version="1.0" xmlns="http://www.w3.org/2000/svg"
 width="204.000000pt" height="192.000000pt" viewBox="0 0 204.000000 192.000000"
 preserveAspectRatio="xMidYMid meet">

<g transform="translate(0.000000,192.000000) scale(0.100000,-0.100000)"
fill="#000000" stroke="none">
<path d="M745 1658 c-66 -3 -134 -11 -152 -16 -62 -20 -135 -67 -178 -115 -85
-93 -104 -201 -104 -567 0 -382 19 -479 113 -578 50 -53 92 -82 118 -82 9 0 9
3 -2 10 -8 5 -11 12 -7 16 3 4 13 2 21 -5 11 -9 14 -8 12 6 -1 14 9 19 44 23
36 5 40 7 20 12 -18 4 -13 6 20 7 l45 2 -53 15 c-77 20 -109 40 -142 86 -54
74 -61 118 -67 403 -7 329 4 455 45 528 38 69 101 111 185 126 84 15 648 15
719 0 105 -22 169 -76 204 -174 15 -42 19 -99 24 -370 3 -176 8 -306 10 -290
2 17 3 36 3 43 -1 6 3 12 8 12 5 0 9 -6 9 -14 0 -8 4 -17 9 -20 4 -3 6 7 4 22
-3 19 -2 23 5 14 7 -11 12 -11 23 1 13 12 17 12 29 -2 13 -14 15 13 18 224 4
352 -15 455 -104 554 -56 62 -115 97 -196 116 -71 16 -481 24 -683 13z"/>
<path d="M603 1410 c-46 -19 -59 -95 -21 -130 13 -11 32 -23 44 -26 26 -7 79
19 88 41 30 78 -35 145 -111 115z"/>
<path d="M929 1307 c-100 -29 -192 -106 -239 -202 -22 -43 -25 -64 -25 -150 0
-89 3 -105 27 -150 42 -80 93 -131 165 -167 71 -35 159 -47 230 -32 l38 8 -35
6 -35 7 32 2 c17 0 40 4 50 7 15 5 15 4 3 -5 -13 -9 -13 -11 3 -11 10 0 20 6
23 14 3 8 19 18 36 21 39 9 116 88 148 151 32 66 40 190 15 263 -32 98 -117
187 -215 225 -59 23 -163 29 -221 13z m160 -123 c67 -19 141 -90 159 -150 35
-119 -8 -228 -114 -290 -56 -33 -149 -37 -210 -8 -129 62 -179 218 -108 341
28 49 74 87 130 107 52 19 80 19 143 0z"/>
</g>
</svg>
