<svg width="24" height="25" viewBox="0 0 24 25" fill="none" xmlns="http://www.w3.org/2000/svg">
<mask id="mask0_11135_1223" style="mask-type:alpha" maskUnits="userSpaceOnUse" x="0" y="0" width="24" height="25">
<rect y="0.5" width="24" height="24" fill="#D9D9D9"/>
</mask>
<g mask="url(#mask0_11135_1223)">
<path d="M7.625 6.9L10.425 3.275C10.625 3.00833 10.8625 2.8125 11.1375 2.6875C11.4125 2.5625 11.7 2.5 12 2.5C12.3 2.5 12.5875 2.5625 12.8625 2.6875C13.1375 2.8125 13.375 3.00833 13.575 3.275L16.375 6.9L20.625 8.325C21.0583 8.45833 21.4 8.70417 21.65 9.0625C21.9 9.42083 22.025 9.81667 22.025 10.25C22.025 10.45 21.9958 10.65 21.9375 10.85C21.8792 11.05 21.7833 11.2417 21.65 11.425L18.9 15.325L19 19.425C19.0167 20.0083 18.825 20.5 18.425 20.9C18.025 21.3 17.5583 21.5 17.025 21.5C16.9917 21.5 16.8083 21.475 16.475 21.425L12 20.175L7.525 21.425C7.44167 21.4583 7.35 21.4792 7.25 21.4875C7.15 21.4958 7.05833 21.5 6.975 21.5C6.44167 21.5 5.975 21.3 5.575 20.9C5.175 20.5 4.98333 20.0083 5 19.425L5.1 15.3L2.375 11.425C2.24167 11.2417 2.14583 11.05 2.0875 10.85C2.02917 10.65 2 10.45 2 10.25C2 9.83333 2.12083 9.44583 2.3625 9.0875C2.60417 8.72917 2.94167 8.475 3.375 8.325L7.625 6.9ZM8.85 8.625L4 10.225L7.1 14.7L7 19.475L12 18.1L17 19.5L16.9 14.7L20 10.275L15.15 8.625L12 4.5L8.85 8.625Z" fill="#0B6B94"/>
</g>
</svg>
