<svg width="40" height="44" viewBox="0 0 40 44" fill="none" xmlns="http://www.w3.org/2000/svg">
<g clip-path="url(#clip0_9165_5857)">
<path fill-rule="evenodd" clip-rule="evenodd" d="M3.2909 0.0780638C2.83166 0.220089 2.36643 0.51722 2.08094 0.850806C1.59908 1.41376 1.51875 1.77444 1.51875 3.37553C1.51875 4.97688 1.599 5.3373 2.08128 5.90068C2.54634 6.44406 3.10491 6.68929 3.97866 6.73376L4.70862 6.77089L3.88769 7.87916C1.66626 10.8778 0.832924 12.4243 0.312249 14.5148C0.135118 15.226 0.133346 15.3354 0.106173 27.4262C0.0878606 35.5656 0.107861 39.809 0.166257 40.1879C0.373852 41.5335 1.02828 42.4587 2.06786 42.876L2.5736 43.0791L10.928 43.122C15.523 43.1457 19.4476 43.137 19.6495 43.1025C20.6912 42.9249 21.6722 42.1476 22.0168 41.2264C22.2927 40.4889 22.3613 39.8226 22.362 37.8738L22.3626 36.043L22.9744 35.7233C23.536 35.4299 24.1874 34.8076 30.898 28.1553C34.9194 24.1687 38.3517 20.7371 38.5252 20.5295C39.3599 19.5309 39.8158 18.3667 39.892 17.039C39.9992 15.1692 39.1471 13.285 37.6973 12.1863C36.1607 11.0219 34.176 10.6759 32.3626 11.2564C31.0063 11.6906 30.9444 11.743 26.4875 16.2349L22.3846 20.3702L22.3387 17.9278C22.3004 15.8801 22.2641 15.3523 22.1152 14.663C21.6713 12.6096 20.7806 10.9203 18.6221 8.03747C18.1267 7.37579 17.7213 6.82 17.7213 6.80228C17.7213 6.78465 18.1108 6.75579 18.5868 6.73815C19.3659 6.70929 19.4987 6.68009 19.916 6.44566C20.9051 5.88996 21.1812 5.22001 21.1812 3.37553C21.1812 1.53106 20.9058 0.862621 19.9154 0.303971L19.4512 0.0421988L11.4766 0.0275152C7.09048 0.019414 3.40693 0.0421988 3.2909 0.0780638ZM5.96322 8.51545C4.36516 10.6957 3.88904 11.4339 3.3271 12.6025C2.69681 13.9133 2.44052 14.9323 2.38465 16.3502L2.3406 17.4684H11.2252H20.1096L20.0577 16.3924C19.9329 13.8052 19.1877 12.1979 16.3403 8.37553L15.193 6.83545H11.1938H7.19453L5.96322 8.51545ZM22.8028 21.8803L22.3626 22.326V28.3413V34.3565L22.7686 34.1355C23.0387 33.9885 24.2323 32.8566 26.3336 30.7548L29.4926 27.5949L26.4133 24.5148C24.7197 22.8207 23.3135 21.4346 23.2885 21.4346C23.2634 21.4346 23.0449 21.6352 22.8028 21.8803ZM9.7428 22.4013C9.53697 22.607 9.53562 22.6191 9.53562 24.2578V25.9072H7.88626C6.24752 25.9072 6.23546 25.9085 6.02972 26.1144C5.82803 26.316 5.82254 26.3553 5.82254 27.5966C5.82254 28.298 5.85976 28.9414 5.90516 29.0263C6.05174 29.3001 6.46904 29.3671 8.02921 29.3671H9.53562V31.0127C9.53562 33.1827 9.47368 33.1141 11.3906 33.066C12.4913 33.0383 12.5066 33.0352 12.7077 32.8012C12.9072 32.569 12.9112 32.5333 12.9112 30.9708V29.3771L14.5501 29.351C16.1516 29.3255 16.1941 29.3202 16.4067 29.1203C16.6214 28.9184 16.6242 28.8996 16.6242 27.6715C16.6242 26.9872 16.6006 26.3658 16.5718 26.2907C16.4489 25.9703 16.1042 25.9072 14.4766 25.9072H12.9112V24.3107C12.9112 23.4327 12.8875 22.6528 12.8587 22.5776C12.7432 22.2765 12.3734 22.1941 11.1393 22.1941C9.98896 22.1941 9.94305 22.2009 9.7428 22.4013ZM2.19385 38.5079C2.19385 39.7846 2.60921 40.5801 3.44398 40.9023C3.81444 41.0452 4.29799 41.0549 11.1028 41.0549H18.3661L18.8647 40.7999C19.2958 40.5794 19.3967 40.4793 19.611 40.0604C19.826 39.64 19.864 39.459 19.8982 38.691L19.9375 37.8059H11.0657H2.19385V38.5079Z" fill="#0B6B94"/>
</g>
<defs>
<clipPath id="clip0_9165_5857">
<rect width="40" height="43.2068" fill="white"/>
</clipPath>
</defs>
</svg>
