<svg width="32" height="32" viewBox="0 0 32 32" fill="none" xmlns="http://www.w3.org/2000/svg">
<mask id="mask0_9101_4977" style="mask-type:alpha" maskUnits="userSpaceOnUse" x="4" y="4" width="24" height="24">
<rect x="4" y="4" width="24" height="24" fill="#D9D9D9"/>
</mask>
<g mask="url(#mask0_9101_4977)">
<path d="M9.85 21.1C10.7 20.45 11.65 19.9375 12.7 19.5625C13.75 19.1875 14.85 19 16 19C17.15 19 18.25 19.1875 19.3 19.5625C20.35 19.9375 21.3 20.45 22.15 21.1C22.7333 20.4167 23.1875 19.6417 23.5125 18.775C23.8375 17.9083 24 16.9833 24 16C24 13.7833 23.2208 11.8958 21.6625 10.3375C20.1042 8.77917 18.2167 8 16 8C13.7833 8 11.8958 8.77917 10.3375 10.3375C8.77917 11.8958 8 13.7833 8 16C8 16.9833 8.1625 17.9083 8.4875 18.775C8.8125 19.6417 9.26667 20.4167 9.85 21.1ZM16 17C15.0167 17 14.1875 16.6625 13.5125 15.9875C12.8375 15.3125 12.5 14.4833 12.5 13.5C12.5 12.5167 12.8375 11.6875 13.5125 11.0125C14.1875 10.3375 15.0167 10 16 10C16.9833 10 17.8125 10.3375 18.4875 11.0125C19.1625 11.6875 19.5 12.5167 19.5 13.5C19.5 14.4833 19.1625 15.3125 18.4875 15.9875C17.8125 16.6625 16.9833 17 16 17ZM16 26C14.6167 26 13.3167 25.7375 12.1 25.2125C10.8833 24.6875 9.825 23.975 8.925 23.075C8.025 22.175 7.3125 21.1167 6.7875 19.9C6.2625 18.6833 6 17.3833 6 16C6 14.6167 6.2625 13.3167 6.7875 12.1C7.3125 10.8833 8.025 9.825 8.925 8.925C9.825 8.025 10.8833 7.3125 12.1 6.7875C13.3167 6.2625 14.6167 6 16 6C17.3833 6 18.6833 6.2625 19.9 6.7875C21.1167 7.3125 22.175 8.025 23.075 8.925C23.975 9.825 24.6875 10.8833 25.2125 12.1C25.7375 13.3167 26 14.6167 26 16C26 17.3833 25.7375 18.6833 25.2125 19.9C24.6875 21.1167 23.975 22.175 23.075 23.075C22.175 23.975 21.1167 24.6875 19.9 25.2125C18.6833 25.7375 17.3833 26 16 26ZM16 24C16.8833 24 17.7167 23.8708 18.5 23.6125C19.2833 23.3542 20 22.9833 20.65 22.5C20 22.0167 19.2833 21.6458 18.5 21.3875C17.7167 21.1292 16.8833 21 16 21C15.1167 21 14.2833 21.1292 13.5 21.3875C12.7167 21.6458 12 22.0167 11.35 22.5C12 22.9833 12.7167 23.3542 13.5 23.6125C14.2833 23.8708 15.1167 24 16 24ZM16 15C16.4333 15 16.7917 14.8583 17.075 14.575C17.3583 14.2917 17.5 13.9333 17.5 13.5C17.5 13.0667 17.3583 12.7083 17.075 12.425C16.7917 12.1417 16.4333 12 16 12C15.5667 12 15.2083 12.1417 14.925 12.425C14.6417 12.7083 14.5 13.0667 14.5 13.5C14.5 13.9333 14.6417 14.2917 14.925 14.575C15.2083 14.8583 15.5667 15 16 15Z" fill="#3F3F46"/>
</g>
</svg>
