<svg width="18" height="18" viewBox="0 0 18 18" fill="none" xmlns="http://www.w3.org/2000/svg">
<path d="M6.66002 3.45004C6.06002 0.85504 2.15252 0.84754 1.55252 3.45004C1.20002 4.97254 2.16752 6.26254 3.00752 7.06504C3.62252 7.64254 4.59002 7.64254 5.20502 7.06504C6.04502 6.26254 7.00502 4.97254 6.66002 3.45004ZM4.13252 4.65004C3.72002 4.65004 3.38252 4.31254 3.38252 3.90004C3.38252 3.48754 3.71252 3.15004 4.12502 3.15004H4.13252C4.55252 3.15004 4.88252 3.48754 4.88252 3.90004C4.88252 4.31254 4.55252 4.65004 4.13252 4.65004Z" fill="#8D8C8C"/>
<path d="M16.4325 12.45C15.8325 9.85504 11.91 9.84754 11.3025 12.45C10.95 13.9725 11.9175 15.2625 12.765 16.065C13.38 16.6425 14.355 16.6425 14.97 16.065C15.8175 15.2625 16.785 13.9725 16.4325 12.45ZM13.8975 13.65C13.485 13.65 13.1475 13.3125 13.1475 12.9C13.1475 12.4875 13.4775 12.15 13.89 12.15H13.8975C14.31 12.15 14.6475 12.4875 14.6475 12.9C14.6475 13.3125 14.31 13.65 13.8975 13.65Z" fill="#8D8C8C"/>
<path d="M9.00008 14.8125H6.99008C6.12008 14.8125 5.36258 14.2875 5.06258 13.4775C4.75508 12.6675 4.98008 11.775 5.63258 11.1975L11.6251 5.955C11.9851 5.64 11.9926 5.2125 11.8876 4.92C11.7751 4.6275 11.4901 4.3125 11.0101 4.3125H9.00008C8.69258 4.3125 8.43758 4.0575 8.43758 3.75C8.43758 3.4425 8.69258 3.1875 9.00008 3.1875H11.0101C11.8801 3.1875 12.6376 3.7125 12.9376 4.5225C13.2451 5.3325 13.0201 6.225 12.3676 6.8025L6.37508 12.045C6.01508 12.36 6.00758 12.7875 6.11258 13.08C6.22508 13.3725 6.51008 13.6875 6.99008 13.6875H9.00008C9.30758 13.6875 9.56258 13.9425 9.56258 14.25C9.56258 14.5575 9.30758 14.8125 9.00008 14.8125Z" fill="#8D8C8C"/>
</svg>
