<svg width="24" height="24" viewBox="0 0 24 24" fill="none" xmlns="http://www.w3.org/2000/svg">
<path fill-rule="evenodd" clip-rule="evenodd" d="M7.01282 15.5652C6.18257 14.7174 5.61945 13.6446 5.3933 12.4797C5.16528 11.3116 5.28237 10.1024 5.73026 8.99973C6.17433 7.90326 6.93246 6.96244 7.90946 6.29541C9.89172 4.94157 12.5013 4.94157 14.4835 6.29541C15.4606 6.96244 16.2187 7.90326 16.6627 8.99973C17.1106 10.1024 17.2278 11.3116 16.9997 12.4797C16.7736 13.6446 16.2104 14.7174 15.3801 15.5652C14.2807 16.6935 12.772 17.3299 11.1965 17.3299C9.621 17.3299 8.11235 16.6935 7.01282 15.5652Z" stroke="black" stroke-width="1.32" stroke-linecap="round" stroke-linejoin="round"/>
<path d="M11.2033 7.39486C10.8078 7.43676 10.5213 7.79129 10.5631 8.18672C10.6051 8.58215 10.9596 8.86874 11.355 8.82685L11.2033 7.39486ZM12.9806 9.78451C13.1357 10.1507 13.5581 10.3219 13.9244 10.1668C14.2905 10.0118 14.4617 9.58931 14.3067 9.22313L12.9806 9.78451ZM15.9763 14.9635C15.6949 14.6826 15.239 14.683 14.9581 14.9644C14.6771 15.2458 14.6776 15.7017 14.959 15.9826L15.9763 14.9635ZM18.2115 19.2293C18.4929 19.5103 18.9487 19.5099 19.2297 19.2285C19.5106 18.947 19.5102 18.4912 19.2288 18.2102L18.2115 19.2293ZM11.355 8.82685C12.0486 8.75335 12.7087 9.1422 12.9806 9.78451L14.3067 9.22313C13.7876 7.99691 12.5275 7.25455 11.2033 7.39486L11.355 8.82685ZM14.959 15.9826L18.2115 19.2293L19.2288 18.2102L15.9763 14.9635L14.959 15.9826Z" fill="black"/>
</svg>
