<svg width="33" height="32" viewBox="0 0 33 32" fill="none" xmlns="http://www.w3.org/2000/svg">
<g id="Transport" clip-path="url(#clip0_237_250)">
<path id="Vector" fill-rule="evenodd" clip-rule="evenodd" d="M5.40295 0.0970506C4.35001 0.352301 3.41595 1.18893 3.02339 2.22824C2.8887 2.58474 2.88458 2.67749 2.85408 5.9973L2.82283 9.4008L2.55845 9.4773C1.82458 9.68974 0.990014 10.3509 0.615639 11.0166C0.241201 11.6824 0.197826 11.9144 0.197826 13.25C0.197826 14.4344 0.202451 14.4786 0.361576 14.8179C0.715514 15.5727 1.32595 15.9461 2.27595 15.9889L2.85408 16.0149V21.2443C2.85408 26.9964 2.84395 26.8304 3.24045 27.5743C3.61351 28.2743 4.46158 28.9694 5.21345 29.1914L5.47908 29.2698L5.47945 29.588C5.48039 30.4262 5.69851 31.0282 6.15314 31.4472C6.70495 31.9559 6.77089 31.9687 8.82283 31.9687H10.6353L10.9845 31.805C11.7393 31.4511 12.1126 30.8406 12.1555 29.8906L12.1815 29.3125H16.1666H20.1516L20.1777 29.8906C20.2205 30.8406 20.5939 31.4511 21.3487 31.805L21.6978 31.9687H23.5103C25.5623 31.9687 25.6282 31.9559 26.18 31.4472C26.6346 31.0282 26.8528 30.4262 26.8537 29.588L26.8541 29.2698L27.1197 29.1914C27.8716 28.9694 28.7196 28.2743 29.0927 27.5743C29.4893 26.8304 29.4791 26.9972 29.4791 21.2369V16H29.9365C30.9948 16 31.8083 15.4607 32.0534 14.5967C32.0929 14.4576 32.1485 14.3171 32.1771 14.2844C32.254 14.1965 32.2437 12.1711 32.1666 12.2187C32.1315 12.2404 32.1041 12.1914 32.1041 12.1072C32.1041 11.8946 31.8928 11.3072 31.695 10.9695C31.3222 10.3334 30.4851 9.68293 29.7747 9.4773L29.5103 9.4008L29.4791 5.9973C29.4486 2.67749 29.4445 2.58474 29.3098 2.22824C28.9116 1.17405 27.9798 0.348301 26.9016 0.0941131C26.334 -0.0397619 5.95564 -0.0369494 5.40295 0.0970506ZM8.29158 2.74543C7.76814 2.90686 7.29633 3.30711 7.03364 3.81249C6.82295 4.21793 6.82101 5.08811 7.02989 5.51218C7.22545 5.90924 7.62614 6.29811 8.04158 6.49411L8.38533 6.65624H16.1666H23.9478L24.2916 6.49411C24.707 6.29811 25.1077 5.90924 25.3033 5.51218C25.4223 5.27055 25.4476 5.11943 25.4466 4.65624C25.4456 4.16986 25.4231 4.05143 25.2801 3.78124C25.0824 3.40736 24.7381 3.06705 24.3541 2.86599L24.0728 2.71874L16.2603 2.70799C11.9635 2.70211 8.37751 2.71893 8.29158 2.74543ZM6.94783 8.08699C6.52976 8.21993 6.3207 8.35549 6.02289 8.68674C5.49626 9.27243 5.51033 9.1438 5.51033 13.375V17.0937L5.67289 17.4404C5.90495 17.9351 6.17939 18.2177 6.65501 18.4518L7.0702 18.6562H16.1653H25.2603L25.607 18.4937C26.1016 18.2617 26.3843 17.9872 26.6184 17.5116L26.8228 17.0964V13.3764C26.8228 9.92955 26.8144 9.63205 26.7082 9.32736C26.5557 8.88999 26.0805 8.37368 25.6522 8.18011L25.3228 8.03124L16.2603 8.01936C9.07358 8.00993 7.14608 8.02393 6.94783 8.08699ZM0.192139 13.2812C0.192076 13.8656 0.201451 14.1131 0.213014 13.8312C0.224576 13.5493 0.224639 13.0712 0.213139 12.7687C0.201701 12.4662 0.192201 12.6969 0.192139 13.2812ZM8.47408 21.3774C7.88995 21.4727 7.31039 21.9183 7.02989 22.4878C6.91083 22.7294 6.88551 22.8806 6.88651 23.3437C6.88758 23.8301 6.91008 23.9486 7.05301 24.2187C7.25114 24.5934 7.59601 24.9338 7.97908 25.1329C8.21233 25.2541 8.35633 25.2793 8.82283 25.2802C9.48345 25.2814 9.80951 25.1549 10.2307 24.7337C10.5495 24.4149 10.6991 24.1294 10.78 23.6855C11.027 22.3295 9.85126 21.1527 8.47408 21.3774ZM23.1541 21.3784C21.5966 21.6318 20.9726 23.6116 22.0978 24.7304C22.5251 25.1554 22.8489 25.2814 23.5103 25.2802C23.9768 25.2793 24.1208 25.2541 24.3541 25.1329C24.7371 24.9338 25.082 24.5934 25.2801 24.2187C25.4231 23.9486 25.4456 23.8301 25.4466 23.3437C25.4476 22.8806 25.4223 22.7294 25.3033 22.4878C24.9074 21.684 24.0371 21.2348 23.1541 21.3784Z" fill="#003666"/>
</g>
<defs>
<clipPath id="clip0_237_250">
<rect width="32" height="32" fill="white" transform="translate(0.166626)"/>
</clipPath>
</defs>
</svg>
