<svg width="24" height="24" viewBox="0 0 24 24" fill="none" xmlns="http://www.w3.org/2000/svg">
<g clip-path="url(#clip0_11891_8060)">
<path d="M23.5216 6.1859C23.3859 5.67531 23.1185 5.20932 22.7462 4.83455C22.3738 4.45979 21.9095 4.1894 21.3998 4.05044C19.5234 3.5459 12.0234 3.5459 12.0234 3.5459C12.0234 3.5459 4.52344 3.5459 2.64707 4.05044C2.13737 4.1894 1.6731 4.45979 1.30073 4.83455C0.928354 5.20932 0.660943 5.67531 0.525256 6.1859C0.0234376 8.07044 0.0234375 12.0004 0.0234375 12.0004C0.0234375 12.0004 0.0234376 15.9304 0.525256 17.815C0.660943 18.3256 0.928354 18.7916 1.30073 19.1663C1.6731 19.5411 2.13737 19.8115 2.64707 19.9504C4.52344 20.455 12.0234 20.455 12.0234 20.455C12.0234 20.455 19.5234 20.455 21.3998 19.9504C21.9095 19.8115 22.3738 19.5411 22.7462 19.1663C23.1185 18.7916 23.3859 18.3256 23.5216 17.815C24.0234 15.9304 24.0234 12.0004 24.0234 12.0004C24.0234 12.0004 24.0234 8.07044 23.5216 6.1859Z" fill="#FF0302"/>
<path d="M9.56934 15.5689V8.43164L15.8421 12.0003L9.56934 15.5689Z" fill="#FEFEFE"/>
</g>
<defs>
<clipPath id="clip0_11891_8060">
<rect width="24" height="24" fill="white"/>
</clipPath>
</defs>
</svg>
