<svg width="24" height="25" viewBox="0 0 24 25" fill="none" xmlns="http://www.w3.org/2000/svg">
<g id="help_center">
<mask id="mask0_9411_9662" style="mask-type:alpha" maskUnits="userSpaceOnUse" x="0" y="0" width="24" height="25">
<rect id="Bounding box" y="0.5" width="24" height="24" fill="#D9D9D9"/>
</mask>
<g mask="url(#mask0_9411_9662)">
<path id="help_center_2" d="M12 18.5C12.35 18.5 12.6458 18.3792 12.8875 18.1375C13.1292 17.8958 13.25 17.6 13.25 17.25C13.25 16.9 13.1292 16.6042 12.8875 16.3625C12.6458 16.1208 12.35 16 12 16C11.65 16 11.3542 16.1208 11.1125 16.3625C10.8708 16.6042 10.75 16.9 10.75 17.25C10.75 17.6 10.8708 17.8958 11.1125 18.1375C11.3542 18.3792 11.65 18.5 12 18.5ZM11.1 14.65H12.95C12.95 14.05 13.0167 13.6083 13.15 13.325C13.2833 13.0417 13.5667 12.6833 14 12.25C14.5833 11.6667 14.9958 11.1792 15.2375 10.7875C15.4792 10.3958 15.6 9.95 15.6 9.45C15.6 8.56667 15.3 7.85417 14.7 7.3125C14.1 6.77083 13.2917 6.5 12.275 6.5C11.3583 6.5 10.5792 6.725 9.9375 7.175C9.29583 7.625 8.85 8.25 8.6 9.05L10.25 9.7C10.3667 9.25 10.6 8.8875 10.95 8.6125C11.3 8.3375 11.7083 8.2 12.175 8.2C12.625 8.2 13 8.32083 13.3 8.5625C13.6 8.80417 13.75 9.125 13.75 9.525C13.75 9.80833 13.6583 10.1083 13.475 10.425C13.2917 10.7417 12.9833 11.0917 12.55 11.475C12 11.9583 11.6208 12.4208 11.4125 12.8625C11.2042 13.3042 11.1 13.9 11.1 14.65ZM5 21.5C4.45 21.5 3.97917 21.3042 3.5875 20.9125C3.19583 20.5208 3 20.05 3 19.5V5.5C3 4.95 3.19583 4.47917 3.5875 4.0875C3.97917 3.69583 4.45 3.5 5 3.5H19C19.55 3.5 20.0208 3.69583 20.4125 4.0875C20.8042 4.47917 21 4.95 21 5.5V19.5C21 20.05 20.8042 20.5208 20.4125 20.9125C20.0208 21.3042 19.55 21.5 19 21.5H5ZM5 19.5H19V5.5H5V19.5Z" fill="#0B6B94"/>
</g>
</g>
</svg>
