<svg width="24" height="25" viewBox="0 0 24 25" fill="none" xmlns="http://www.w3.org/2000/svg">
<g id="settings-2_svgrepo.com">
<path id="Vector" fill-rule="evenodd" clip-rule="evenodd" d="M10.65 3.5L9.93163 4.03449L9.32754 6.04812L7.47651 5.05141L6.5906 5.18143L4.68141 7.09062L4.55139 7.97652L5.5481 9.82755L3.53449 10.4316L3 11.15V13.85L3.53449 14.5684L5.54811 15.1725L4.55142 17.0235L4.68144 17.9094L6.59063 19.8186L7.47653 19.9486L9.32754 18.9519L9.93163 20.9655L10.65 21.5H13.35L14.0684 20.9655L14.6725 18.9519L16.5235 19.9486L17.4094 19.8185L19.3186 17.9094L19.4486 17.0235L18.4519 15.1724L20.4655 14.5684L21 13.85V11.15L20.4655 10.4316L18.4519 9.82754L19.4486 7.97654L19.3186 7.09063L17.4094 5.18144L16.5235 5.05142L14.6725 6.04812L14.0684 4.03449L13.35 3.5H10.65ZM10.4692 7.46284L11.208 5H12.792L13.5308 7.46284L13.8753 7.5946C13.9654 7.62908 14.0543 7.66597 14.142 7.7052L14.4789 7.85598L16.7433 6.63668L17.8633 7.75671L16.644 10.0211L16.7948 10.358C16.834 10.4457 16.8709 10.5346 16.9054 10.6247L17.0372 10.9692L19.5 11.708V13.292L17.0372 14.0308L16.9054 14.3753C16.8709 14.4654 16.834 14.5543 16.7948 14.6419L16.644 14.9789L17.8633 17.2433L16.7433 18.3633L14.4789 17.144L14.142 17.2948C14.0543 17.334 13.9654 17.3709 13.8753 17.4054L13.5308 17.5372L12.792 20H11.208L10.4692 17.5372L10.1247 17.4054C10.0346 17.3709 9.94569 17.334 9.85803 17.2948L9.52111 17.144L7.25671 18.3633L6.13668 17.2433L7.35597 14.9789L7.2052 14.642C7.16597 14.5543 7.12908 14.4654 7.0946 14.3753L6.96284 14.0308L4.5 13.292V11.708L6.96284 10.9692L7.0946 10.6247C7.12907 10.5346 7.16596 10.4457 7.20519 10.3581L7.35596 10.0211L6.13666 7.7567L7.25668 6.63667L9.5211 7.85598L9.85803 7.7052C9.9457 7.66597 10.0346 7.62908 10.1247 7.5946L10.4692 7.46284ZM14.25 12.5C14.25 13.7426 13.2426 14.75 12 14.75C10.7574 14.75 9.75 13.7426 9.75 12.5C9.75 11.2574 10.7574 10.25 12 10.25C13.2426 10.25 14.25 11.2574 14.25 12.5ZM15.75 12.5C15.75 14.5711 14.0711 16.25 12 16.25C9.92893 16.25 8.25 14.5711 8.25 12.5C8.25 10.4289 9.92893 8.75 12 8.75C14.0711 8.75 15.75 10.4289 15.75 12.5Z" fill="#0B6B94"/>
</g>
</svg>
