<svg width="40" height="40" viewBox="0 0 40 40" fill="none" xmlns="http://www.w3.org/2000/svg">
<g id="Frame 1834">
<rect x="0.5" y="0.5" width="39" height="39" rx="19.5" fill="#00796B"/>
<rect x="0.5" y="0.5" width="39" height="39" rx="19.5" stroke="#016055"/>
<g id="accessible">
<mask id="mask0_8680_1102" style="mask-type:alpha" maskUnits="userSpaceOnUse" x="7" y="6" width="25" height="24">
<rect id="Bounding box" x="7.5" y="6" width="24" height="24" fill="#D9D9D9"/>
</mask>
<g mask="url(#mask0_8680_1102)">
<path id="accessible_2" d="M19.5 12C18.95 12 18.4792 11.8042 18.0875 11.4125C17.6958 11.0208 17.5 10.55 17.5 10C17.5 9.45 17.6958 8.97917 18.0875 8.5875C18.4792 8.19583 18.95 8 19.5 8C20.05 8 20.5208 8.19583 20.9125 8.5875C21.3042 8.97917 21.5 9.45 21.5 10C21.5 10.55 21.3042 11.0208 20.9125 11.4125C20.5208 11.8042 20.05 12 19.5 12ZM24.5 28V23H19.5C18.95 23 18.4792 22.8042 18.0875 22.4125C17.6958 22.0208 17.5 21.55 17.5 21V15C17.5 14.45 17.6958 13.9792 18.0875 13.5875C18.4792 13.1958 18.95 13 19.5 13C19.9 13 20.2458 13.0875 20.5375 13.2625C20.8292 13.4375 21.1417 13.7167 21.475 14.1C22.3917 15.2 23.2208 15.9542 23.9625 16.3625C24.7042 16.7708 25.55 16.9833 26.5 17V19C25.6167 19 24.725 18.8083 23.825 18.425C22.925 18.0417 22.15 17.5833 21.5 17.05V20.5H24.5C25.05 20.5 25.5208 20.6958 25.9125 21.0875C26.3042 21.4792 26.5 21.95 26.5 22.5V28H24.5ZM17.5 28C16.1167 28 14.9375 27.5125 13.9625 26.5375C12.9875 25.5625 12.5 24.3833 12.5 23C12.5 21.8 12.8792 20.7417 13.6375 19.825C14.3958 18.9083 15.35 18.3333 16.5 18.1V20.15C15.9167 20.3833 15.4375 20.7542 15.0625 21.2625C14.6875 21.7708 14.5 22.35 14.5 23C14.5 23.8333 14.7917 24.5417 15.375 25.125C15.9583 25.7083 16.6667 26 17.5 26C18.15 26 18.7292 25.8125 19.2375 25.4375C19.7458 25.0625 20.1167 24.5833 20.35 24H22.4C22.1667 25.15 21.5917 26.1042 20.675 26.8625C19.7583 27.6208 18.7 28 17.5 28Z" fill="white"/>
</g>
</g>
</g>
</svg>
