<svg width="40" height="40" viewBox="0 0 40 40" fill="none" xmlns="http://www.w3.org/2000/svg">
<rect width="40" height="40" rx="8" fill="#EBEBEB"/>
<g clip-path="url(#clip0_8128_823)">
<path fill-rule="evenodd" clip-rule="evenodd" d="M20.8944 25.4713C21.187 25.7641 21.187 26.2387 20.8944 26.5316L19.9625 27.4691C17.9103 29.5199 14.5842 29.5189 12.5333 27.4667C10.4824 25.4145 10.4835 22.0884 12.5356 20.0375L14.7969 17.7762C16.762 15.8096 19.9195 15.7159 21.9978 17.5625C22.3085 17.838 22.337 18.3131 22.0616 18.6237C21.7861 18.9344 21.311 18.963 21.0003 18.6875C19.516 17.3694 17.2616 17.4364 15.8581 18.8403L13.5969 21.0988C12.1321 22.5635 12.1321 24.9384 13.5969 26.4031C15.0616 27.8679 17.4365 27.8679 18.9012 26.4031L19.8331 25.4713C19.9738 25.3304 20.1647 25.2513 20.3638 25.2513C20.5628 25.2513 20.7537 25.3304 20.8944 25.4713ZM27.4644 12.5338C25.4122 10.4861 22.0897 10.4861 20.0375 12.5338L19.1056 13.4666C18.8128 13.7596 18.813 14.2345 19.1061 14.5273C19.3991 14.8201 19.8741 14.8199 20.1669 14.5269L21.0988 13.595C22.5635 12.1302 24.9384 12.1302 26.4031 13.595C27.8679 15.0598 27.8679 17.4346 26.4031 18.8994L24.1419 21.1625C22.7377 22.5656 20.4833 22.6314 18.9997 21.3125C18.7987 21.1343 18.518 21.0769 18.2632 21.1618C18.0084 21.2468 17.8183 21.4612 17.7644 21.7243C17.7106 21.9875 17.8012 22.2593 18.0022 22.4375C20.08 24.2846 23.2375 24.1917 25.2031 22.2256L27.4644 19.9644C29.5132 17.9119 29.5132 14.5881 27.4644 12.5356V12.5338Z" fill="#0D141C"/>
</g>
<defs>
<clipPath id="clip0_8128_823">
<rect width="24" height="24" fill="white" transform="translate(8 8)"/>
</clipPath>
</defs>
</svg>
