<svg width="21" height="21" viewBox="0 0 21 21" fill="none" xmlns="http://www.w3.org/2000/svg">
<path fill-rule="evenodd" clip-rule="evenodd" d="M20.9616 16.7628C20.8987 16.5741 20.7634 16.4181 20.5854 16.3291C20.4075 16.2401 20.2015 16.2255 20.0128 16.2884L18.3797 16.8331L15.6703 11.4144C15.5433 11.1605 15.2838 11.0002 15 11H7.5V8.75H12.75C13.1642 8.75 13.5 8.41421 13.5 8C13.5 7.58579 13.1642 7.25 12.75 7.25H7.5V6.40625C8.96273 6.02857 9.91644 4.62216 9.72609 3.1235C9.53573 1.62484 8.2607 0.501513 6.75 0.501513C5.2393 0.501513 3.96427 1.62484 3.77391 3.1235C3.58356 4.62216 4.53727 6.02857 6 6.40625V7.41969C2.652 8.1849 0.412292 11.342 0.796318 14.7548C1.18034 18.1676 4.06567 20.748 7.5 20.75C10.6425 20.75 13.4709 18.6209 14.2266 15.6875C14.3301 15.2862 14.0888 14.877 13.6875 14.7734C13.2862 14.6699 12.877 14.9112 12.7734 15.3125C12.1959 17.5625 9.92906 19.25 7.5 19.25C4.89396 19.2491 2.68303 17.3367 2.30677 14.758C1.93052 12.1792 3.50285 9.71484 6 8.96937V11.75C6 12.1642 6.33579 12.5 6.75 12.5H14.5359L17.3288 18.0856C17.4961 18.4193 17.8833 18.5791 18.2372 18.4606L20.4872 17.7106C20.8797 17.5796 21.092 17.1555 20.9616 16.7628ZM5.25 3.5C5.25 2.67157 5.92157 2 6.75 2C7.57843 2 8.25 2.67157 8.25 3.5C8.25 4.32843 7.57843 5 6.75 5C5.92157 5 5.25 4.32843 5.25 3.5Z" fill="#0D141C"/>
</svg>
