<svg width="40" height="40" viewBox="0 0 40 40" fill="none" xmlns="http://www.w3.org/2000/svg">
<rect width="40" height="40" rx="8" fill="#EBEBEB"/>
<path fill-rule="evenodd" clip-rule="evenodd" d="M20 14C17.9289 14 16.25 15.6789 16.25 17.75C16.25 19.8211 17.9289 21.5 20 21.5C22.0711 21.5 23.75 19.8211 23.75 17.75C23.75 15.6789 22.0711 14 20 14ZM20 20C18.7574 20 17.75 18.9926 17.75 17.75C17.75 16.5074 18.7574 15.5 20 15.5C21.2426 15.5 22.25 16.5074 22.25 17.75C22.25 18.9926 21.2426 20 20 20ZM20 9.5C15.4458 9.50517 11.7552 13.1958 11.75 17.75C11.75 20.6938 13.1103 23.8138 15.6875 26.7734C16.8455 28.1108 18.1489 29.3151 19.5734 30.3641C19.8318 30.545 20.1757 30.545 20.4341 30.3641C21.856 29.3147 23.1568 28.1104 24.3125 26.7734C26.8859 23.8138 28.25 20.6938 28.25 17.75C28.2448 13.1958 24.5542 9.50517 20 9.5ZM20 28.8125C18.4503 27.5938 13.25 23.1172 13.25 17.75C13.25 14.0221 16.2721 11 20 11C23.7279 11 26.75 14.0221 26.75 17.75C26.75 23.1153 21.5497 27.5938 20 28.8125Z" fill="#0D141C"/>
</svg>
