<svg width="40" height="40" viewBox="0 0 40 40" fill="none" xmlns="http://www.w3.org/2000/svg">
<rect width="40" height="40" rx="8" fill="#EBEBEB"/>
<g clip-path="url(#clip0_8128_816)">
<path fill-rule="evenodd" clip-rule="evenodd" d="M28.8472 22.8556L24.4306 20.8766L24.4184 20.8709C23.9526 20.6717 23.4177 20.7211 22.9963 21.0022C22.9718 21.0183 22.9483 21.0359 22.9259 21.0547L20.6441 23C19.1984 22.2978 17.7059 20.8166 17.0037 19.3897L18.9519 17.0731C18.9706 17.0497 18.9884 17.0262 19.0053 17.0009C19.2803 16.5807 19.3268 16.0507 19.1291 15.5891V15.5778L17.1444 11.1537C16.8801 10.5439 16.246 10.1807 15.5862 10.2613C12.9583 10.6071 10.9952 12.8494 11 15.5C11 22.9438 17.0562 29 24.5 29C27.1506 29.0048 29.3929 27.0417 29.7388 24.4137C29.8195 23.7542 29.4567 23.1202 28.8472 22.8556ZM24.5 27.5C17.8756 27.4928 12.5072 22.1244 12.5 15.5C12.4927 13.6062 13.8919 12.0011 15.7691 11.75C15.7687 11.7537 15.7687 11.7575 15.7691 11.7613L17.7378 16.1675L15.8 18.4869C15.7803 18.5095 15.7625 18.5336 15.7466 18.5591C15.4596 18.9994 15.424 19.5578 15.6528 20.0309C16.5022 21.7681 18.2525 23.5053 20.0084 24.3538C20.4851 24.5804 21.0459 24.5398 21.485 24.2469C21.5091 24.2307 21.5322 24.2131 21.5544 24.1944L23.8334 22.25L28.2397 24.2234C28.2397 24.2234 28.2472 24.2234 28.25 24.2234C28.002 26.1033 26.3962 27.5064 24.5 27.5Z" fill="#0D141C"/>
</g>
<defs>
<clipPath id="clip0_8128_816">
<rect width="24" height="24" fill="white" transform="translate(8 8)"/>
</clipPath>
</defs>
</svg>
