<svg width="24" height="18" viewBox="0 0 24 18" fill="none" xmlns="http://www.w3.org/2000/svg">
<path fill-rule="evenodd" clip-rule="evenodd" d="M22.5 7.5H21.4875L18.8831 1.64062C18.6423 1.09903 18.1052 0.750007 17.5125 0.75H6.4875C5.89479 0.750007 5.35766 1.09903 5.11688 1.64062L2.5125 7.5H1.5C1.08579 7.5 0.75 7.83579 0.75 8.25C0.75 8.66421 1.08579 9 1.5 9H2.25V16.5C2.25 17.3284 2.92157 18 3.75 18H6C6.82843 18 7.5 17.3284 7.5 16.5V15H16.5V16.5C16.5 17.3284 17.1716 18 18 18H20.25C21.0784 18 21.75 17.3284 21.75 16.5V9H22.5C22.9142 9 23.25 8.66421 23.25 8.25C23.25 7.83579 22.9142 7.5 22.5 7.5ZM6.4875 2.25H17.5125L19.8459 7.5H4.15406L6.4875 2.25ZM6 16.5H3.75V15H6V16.5ZM18 16.5V15H20.25V16.5H18ZM20.25 13.5H3.75V9H20.25V13.5ZM5.25 11.25C5.25 10.8358 5.58579 10.5 6 10.5H7.5C7.91421 10.5 8.25 10.8358 8.25 11.25C8.25 11.6642 7.91421 12 7.5 12H6C5.58579 12 5.25 11.6642 5.25 11.25ZM15.75 11.25C15.75 10.8358 16.0858 10.5 16.5 10.5H18C18.4142 10.5 18.75 10.8358 18.75 11.25C18.75 11.6642 18.4142 12 18 12H16.5C16.0858 12 15.75 11.6642 15.75 11.25Z" fill="#0D141C"/>
</svg>
