<svg width="24" height="26" viewBox="0 0 24 26" fill="none" xmlns="http://www.w3.org/2000/svg">
<path fill-rule="evenodd" clip-rule="evenodd" d="M11.2258 3.02832C7.07092 3.34219 3.50962 6.25613 2.36883 10.2753C2.22463 10.7833 2.11824 11.3211 2.05119 11.881C1.98309 12.4496 1.98291 13.5427 2.05083 14.1139C2.37997 16.882 3.77748 19.3135 6.00909 21.001C7.38564 22.0419 9.05369 22.7063 10.8497 22.929C11.4048 22.9978 12.5857 22.9978 13.1408 22.929C15.0258 22.6952 16.6858 22.0099 18.1754 20.8504C18.5678 20.5449 19.3121 19.8261 19.6361 19.4396C21.9536 16.6755 22.6178 12.9787 21.4033 9.60286C20.7807 7.87207 19.6651 6.32631 18.196 5.15879C16.2415 3.60549 13.7334 2.83889 11.2258 3.02832ZM11.6633 4.85469C8.68762 4.99748 6.06401 6.68656 4.72166 9.32378C3.40329 11.9138 3.58397 15.0499 5.1915 17.4795C6.29659 19.1497 7.99542 20.3675 9.92666 20.8737C10.7179 21.0811 10.9994 21.1133 12.0103 21.112C12.8557 21.1109 12.9445 21.1055 13.3531 21.031C14.6867 20.7878 15.8603 20.2815 16.8921 19.5043C18.7273 18.1221 19.8791 16.0659 20.1138 13.7528C20.1586 13.3119 20.1349 12.2837 20.07 11.8495C19.6574 9.08736 17.8945 6.73499 15.3761 5.58581C14.2522 5.07297 12.8537 4.79758 11.6633 4.85469ZM8.4143 8.89793C8.34502 8.92246 8.22912 8.99464 8.15682 9.05831C7.87349 9.30769 7.76722 9.68276 7.87729 10.0446C7.92992 10.2174 7.96187 10.2523 9.29934 11.5951C10.0519 12.3506 10.6676 12.9829 10.6676 13.0002C10.6676 13.0175 10.066 13.6292 9.33066 14.3595C7.86899 15.8113 7.86498 15.8162 7.83912 16.1808C7.81969 16.455 7.90916 16.6851 8.11521 16.8912C8.2968 17.0728 8.48035 17.1464 8.75153 17.1464C9.1478 17.1464 9.08815 17.1936 10.6148 15.6722L11.9952 14.2964L13.3757 15.6722C14.9023 17.1936 14.8427 17.1464 15.239 17.1464C15.5977 17.1464 15.8773 16.9794 16.0547 16.6592C16.1345 16.5152 16.1441 16.4698 16.1434 16.2412C16.1428 16.0378 16.1288 15.9564 16.0753 15.848C16.0275 15.7509 15.6184 15.322 14.6654 14.3698C13.927 13.632 13.3229 13.0149 13.3229 12.9986C13.3229 12.9822 13.9384 12.3506 14.6908 11.5951C15.9813 10.2992 16.0616 10.2123 16.109 10.0595C16.2195 9.70385 16.1364 9.36481 15.8745 9.10299C15.6721 8.90056 15.4877 8.83583 15.1673 8.85484C15.032 8.86287 14.8937 8.89054 14.8316 8.92201C14.7735 8.95143 14.1116 9.58825 13.3608 10.3371L11.9955 11.6987L10.6149 10.3229C9.37465 9.08682 9.21919 8.94195 9.08561 8.89775C8.90393 8.83758 8.58433 8.83767 8.4143 8.89793Z" fill="black"/>
</svg>
