<svg width="40" height="40" viewBox="0 0 40 40" fill="none" xmlns="http://www.w3.org/2000/svg">
<rect width="40" height="40" rx="8" fill="#F6F6F6"/>
<mask id="mask0_8616_2697" style="mask-type:alpha" maskUnits="userSpaceOnUse" x="8" y="8" width="24" height="24">
<rect x="8" y="8" width="24" height="24" fill="#D9D9D9"/>
</mask>
<g mask="url(#mask0_8616_2697)">
<path d="M10 29V11H20V15H30V29H10ZM12 27H18V25H12V27ZM12 23H18V21H12V23ZM12 19H18V17H12V19ZM12 15H18V13H12V15ZM20 27H28V17H20V27ZM22 21V19H26V21H22ZM22 25V23H26V25H22Z" fill="#282828"/>
</g>
</svg>
