<svg width="40" height="40" viewBox="0 0 40 40" fill="none" xmlns="http://www.w3.org/2000/svg">
<rect width="40" height="40" rx="8" fill="#F6F6F6"/>
<mask id="mask0_8616_2717" style="mask-type:alpha" maskUnits="userSpaceOnUse" x="8" y="8" width="24" height="24">
<rect x="8" y="8" width="24" height="24" fill="#D9D9D9"/>
</mask>
<g mask="url(#mask0_8616_2717)">
<path d="M23.3 24.7L24.7 23.3L21 19.6V15H19V20.4L23.3 24.7ZM20 30C18.6167 30 17.3167 29.7375 16.1 29.2125C14.8833 28.6875 13.825 27.975 12.925 27.075C12.025 26.175 11.3125 25.1167 10.7875 23.9C10.2625 22.6833 10 21.3833 10 20C10 18.6167 10.2625 17.3167 10.7875 16.1C11.3125 14.8833 12.025 13.825 12.925 12.925C13.825 12.025 14.8833 11.3125 16.1 10.7875C17.3167 10.2625 18.6167 10 20 10C21.3833 10 22.6833 10.2625 23.9 10.7875C25.1167 11.3125 26.175 12.025 27.075 12.925C27.975 13.825 28.6875 14.8833 29.2125 16.1C29.7375 17.3167 30 18.6167 30 20C30 21.3833 29.7375 22.6833 29.2125 23.9C28.6875 25.1167 27.975 26.175 27.075 27.075C26.175 27.975 25.1167 28.6875 23.9 29.2125C22.6833 29.7375 21.3833 30 20 30ZM20 28C22.2167 28 24.1042 27.2208 25.6625 25.6625C27.2208 24.1042 28 22.2167 28 20C28 17.7833 27.2208 15.8958 25.6625 14.3375C24.1042 12.7792 22.2167 12 20 12C17.7833 12 15.8958 12.7792 14.3375 14.3375C12.7792 15.8958 12 17.7833 12 20C12 22.2167 12.7792 24.1042 14.3375 25.6625C15.8958 27.2208 17.7833 28 20 28Z" fill="#0D141C"/>
</g>
</svg>
