<svg width="40" height="40" viewBox="0 0 40 40" fill="none" xmlns="http://www.w3.org/2000/svg">
<rect x="0.5" y="0.5" width="39" height="39" rx="3.5" fill="white"/>
<rect x="0.5" y="0.5" width="39" height="39" rx="3.5" stroke="#B3B3B3"/>
<path fill-rule="evenodd" clip-rule="evenodd" d="M21.6001 14V17.6H22.4001H23.2001V14.8V12H28.0001H32.8001V20V28H28.0001H23.2001V25.2V22.4H22.4001H21.6001V25.2V28H13.6001H5.6001V29.2V30.4H20.0001H34.4001V20.4V10.4H28.0001H21.6001V14ZM12.8177 13.8234C11.4307 14.5922 12.011 16.8 13.6001 16.8C14.4108 16.8 15.2001 16.0184 15.2001 15.2155C15.2001 14.0143 13.8726 13.2386 12.8177 13.8234ZM26.3915 16.0914L25.8401 16.6627L27.155 17.9314L28.4699 19.2H23.435H18.4001V20V20.8H23.4188H28.4375L27.1388 22.0751L25.8401 23.3501L26.446 23.9551L27.0521 24.56L29.206 22.3779C30.3908 21.1779 31.3601 20.1087 31.3601 20.0018C31.3601 19.8064 27.2321 15.52 27.0438 15.52C26.9883 15.52 26.6948 15.7771 26.3915 16.0914ZM7.44138 18.5573C6.95674 19.5239 6.5601 20.3504 6.5601 20.3941C6.5601 20.4947 7.85514 21.16 7.91706 21.0912C7.94218 21.0631 8.2601 20.4459 8.6233 19.72L9.28362 18.4H10.0028H10.7222L9.5201 20.8L8.31802 23.2H6.95914H5.6001V24V24.8H7.44154H9.28314L9.79594 23.76C10.078 23.188 10.3492 22.72 10.3987 22.72C10.4481 22.72 11.0247 23.8 11.6801 25.12C12.3355 26.44 12.8943 27.52 12.9222 27.52C13.046 27.52 14.2401 26.8656 14.2401 26.7979C14.2401 26.7563 13.5761 25.392 12.7646 23.7661L11.2891 20.8099L11.6939 19.9831L12.0987 19.1563L12.626 19.9781L13.1534 20.8H14.9767H16.8001V20V19.2L15.4001 19.1979L14.0001 19.1959L13.2207 17.9979L12.4414 16.8H10.382H8.32282L7.44138 18.5573Z" fill="#24B9B0"/>
</svg>
