<svg width="32" height="32" viewBox="0 0 32 32" fill="none" xmlns="http://www.w3.org/2000/svg">
<path d="M16.2676 0C9.64008 0 4.26758 5.3725 4.26758 12C4.26758 14.839 5.51858 17.3355 6.90308 19.5L15.4516 31.578C15.6391 31.843 15.9436 32 16.2676 32C16.5916 32 16.8961 31.843 17.0836 31.578L25.6321 19.5C26.9551 17.719 28.2676 14.839 28.2676 12C28.2676 5.3725 22.8951 0 16.2676 0Z" fill="#231F20"/>
<mask id="mask0_8459_2041" style="mask-type:alpha" maskUnits="userSpaceOnUse" x="8" y="5" width="16" height="16">
<rect x="8" y="5" width="16" height="16" fill="#D9D9D9"/>
</mask>
<g mask="url(#mask0_8459_2041)">
<path d="M12.6667 17H14.6667V14.3333H15.3333V12.6667C15.3333 12.3 15.2028 11.9861 14.9417 11.725C14.6806 11.4639 14.3667 11.3333 14 11.3333H13.3333C12.9667 11.3333 12.6528 11.4639 12.3917 11.725C12.1306 11.9861 12 12.3 12 12.6667V14.3333H12.6667V17ZM13.6667 10.6667C13.9 10.6667 14.0972 10.5861 14.2583 10.425C14.4194 10.2639 14.5 10.0667 14.5 9.83333C14.5 9.6 14.4194 9.40278 14.2583 9.24167C14.0972 9.08056 13.9 9 13.6667 9C13.4333 9 13.2361 9.08056 13.075 9.24167C12.9139 9.40278 12.8333 9.6 12.8333 9.83333C12.8333 10.0667 12.9139 10.2639 13.075 10.425C13.2361 10.5861 13.4333 10.6667 13.6667 10.6667ZM16.6667 12.3333H20L18.3333 9.66667L16.6667 12.3333ZM18.3333 16.3333L20 13.6667H16.6667L18.3333 16.3333ZM11.3333 19C10.9667 19 10.6528 18.8694 10.3917 18.6083C10.1306 18.3472 10 18.0333 10 17.6667V8.33333C10 7.96667 10.1306 7.65278 10.3917 7.39167C10.6528 7.13056 10.9667 7 11.3333 7H20.6667C21.0333 7 21.3472 7.13056 21.6083 7.39167C21.8694 7.65278 22 7.96667 22 8.33333V17.6667C22 18.0333 21.8694 18.3472 21.6083 18.6083C21.3472 18.8694 21.0333 19 20.6667 19H11.3333Z" fill="white"/>
</g>
</svg>
