<svg width="32" height="32" viewBox="0 0 32 32" fill="none" xmlns="http://www.w3.org/2000/svg">
<mask id="mask0_1014_1772" style="mask-type:alpha" maskUnits="userSpaceOnUse" x="0" y="0" width="32" height="32">
<rect width="32" height="32" fill="#D9D9D9"/>
</mask>
<g mask="url(#mask0_1014_1772)">
<path d="M14.6 24.4667L9.86667 19.7334L11.8 17.8001L14.6 20.6001L20.2 15.0001L22.1333 16.9334L14.6 24.4667ZM6.66667 29.3334C5.93333 29.3334 5.30556 29.0723 4.78333 28.5501C4.26111 28.0279 4 27.4001 4 26.6667V8.00008C4 7.26675 4.26111 6.63897 4.78333 6.11675C5.30556 5.59453 5.93333 5.33341 6.66667 5.33341H8V2.66675H10.6667V5.33341H21.3333V2.66675H24V5.33341H25.3333C26.0667 5.33341 26.6944 5.59453 27.2167 6.11675C27.7389 6.63897 28 7.26675 28 8.00008V26.6667C28 27.4001 27.7389 28.0279 27.2167 28.5501C26.6944 29.0723 26.0667 29.3334 25.3333 29.3334H6.66667ZM6.66667 26.6667H25.3333V13.3334H6.66667V26.6667Z" fill="#078DA5"/>
</g>
</svg>
