<svg width="40" height="40" viewBox="0 0 40 40" fill="none" xmlns="http://www.w3.org/2000/svg">
<rect x="0.5" y="0.5" width="39" height="39" rx="19.5" fill="#FF0000"/>
<rect x="0.5" y="0.5" width="39" height="39" rx="19.5" stroke="#D72222"/>
<path d="M15.219 13.4163C15.4522 12.7929 16.1108 12.208 16.7518 12.055C16.8599 12.0292 18.6629 12.0051 20.7585 12.0016C25.0196 11.9944 25.019 11.9943 25.5866 12.4264C25.9999 12.741 26.2244 13.0361 26.3739 13.4615C26.4968 13.8113 26.5 13.9815 26.5 20.1913C26.5 26.401 26.4968 26.5713 26.3739 26.9211C26.2241 27.3472 25.9998 27.6416 25.5841 27.9581C25.0083 28.3963 24.9986 28.3971 20.6051 28.3753L16.6961 28.3559L16.3423 28.1821C15.8691 27.9496 15.3971 27.4423 15.2244 26.9806C15.0961 26.6379 15.0884 26.5091 15.0884 24.7053C15.0884 22.8617 15.0932 22.7872 15.2201 22.6258C15.5697 22.1813 16.1244 22.1646 16.5071 22.5871C16.6254 22.7176 16.635 22.8395 16.6646 24.5851L16.6961 26.4441L16.8731 26.5961L17.05 26.7482H20.8006H24.5513L24.706 26.5934L24.8608 26.4387V20.1913V13.9438L24.706 13.7891L24.5513 13.6343H20.8006H17.05L16.8731 13.7864L16.6961 13.9384L16.6646 15.7974C16.635 17.543 16.6254 17.6649 16.5071 17.7955C16.1244 18.2179 15.5697 18.2012 15.2201 17.7567C15.0932 17.5953 15.0884 17.5208 15.0884 15.6773C15.0884 13.8978 15.0975 13.741 15.219 13.4163Z" fill="white"/>
<path d="M8.5 20.1913L10.6455 18.0477L12.7911 15.9041H13.1153C13.5012 15.9041 13.7767 16.0951 13.8913 16.4422C14.0332 16.8722 13.9569 16.9897 12.7353 18.221L11.5938 19.3717H17.2037C22.5165 19.3717 22.8251 19.3778 23.0285 19.4868C23.2653 19.6138 23.4737 19.9436 23.4737 20.1913C23.4737 20.4389 23.2653 20.7687 23.0285 20.8957C22.8251 21.0048 22.5165 21.0109 17.2037 21.0109H11.5938L12.7353 22.1615C13.9569 23.3928 14.0332 23.5103 13.8913 23.9403C13.7767 24.2874 13.5012 24.4785 13.1153 24.4785H12.7911L10.6455 22.3349L8.5 20.1913Z" fill="white"/>
</svg>
