<svg width="20" height="20" viewBox="0 0 20 20" fill="none" xmlns="http://www.w3.org/2000/svg">
<g clip-path="url(#clip0_8634_3625)">
<path fill-rule="evenodd" clip-rule="evenodd" d="M9.30382 0.0406247C8.0628 0.196836 6.87608 0.781914 5.97741 1.68059C4.95651 2.70152 4.38686 3.99496 4.31147 5.46328C4.19272 7.77621 5.80745 10.7609 8.80749 13.7738C9.556 14.5255 9.76737 14.6875 9.99968 14.6875C10.247 14.6875 10.3972 14.5734 11.1695 13.7988C13.6167 11.3443 15.1344 8.9409 15.5911 6.79691C15.7061 6.25695 15.7162 5.20289 15.6114 4.67402C15.1524 2.35793 13.4025 0.581172 11.1206 0.114453C10.6637 0.0209763 9.7535 -0.0160159 9.30382 0.0406247ZM9.41405 2.55602C8.68065 2.71195 8.08393 3.06621 7.60335 3.63098C6.7337 4.65297 6.6401 6.18672 7.3787 7.31281C8.33046 8.76398 10.2587 9.18016 11.6928 8.24391C12.3482 7.81609 12.8219 7.16539 13.0323 6.40402C13.1292 6.05305 13.1292 5.19703 13.0323 4.84605C12.7303 3.75344 11.8752 2.89309 10.7994 2.59953C10.4759 2.51125 9.73401 2.48797 9.41405 2.55602ZM9.61358 3.7923C9.10678 3.89184 8.57276 4.30617 8.33729 4.78266C7.54983 6.37594 9.19452 8.06211 10.8023 7.30976C11.5898 6.94125 12.0327 6.01273 11.8167 5.18336C11.5603 4.19894 10.6072 3.59715 9.61358 3.7923ZM3.37542 9.60328C1.47956 10.5943 0.32569 11.9396 0.0573304 13.472C-0.464506 16.4517 2.80319 19.168 7.71975 19.8415C10.5133 20.2241 13.4678 19.8846 15.8089 18.9119L16.0905 18.7949L16.3167 18.9189C16.5178 19.0292 16.5778 19.043 16.8563 19.043C17.1317 19.043 17.2012 19.0275 17.431 18.9143C17.8416 18.7122 18.0788 18.3646 18.1151 17.912C18.1552 17.4133 17.9114 16.9698 17.4609 16.722C17.2249 16.5921 17.1837 16.5824 16.875 16.5837C16.6042 16.5848 16.5108 16.6019 16.3684 16.6766C15.9966 16.8716 15.8229 17.068 15.6992 17.4334C15.6326 17.6304 15.6226 17.6396 15.3641 17.7464C14.2794 18.1943 13.0998 18.4894 11.7187 18.6582C10.94 18.7533 9.07862 18.7556 8.30077 18.6623C6.12284 18.4012 4.40217 17.8117 3.02733 16.8556C1.83737 16.0282 1.19835 14.974 1.26315 13.9453C1.34131 12.705 2.27815 11.5827 3.98436 10.6855C4.33288 10.5022 4.43639 10.4295 4.44612 10.3609C4.45854 10.2733 4.05311 9.46242 3.96819 9.40492C3.88788 9.35058 3.80729 9.37754 3.37542 9.60328ZM16.0324 9.40492C15.9487 9.46254 15.5419 10.2766 15.554 10.3623C15.5635 10.4293 15.6725 10.505 16.0289 10.6921C17.285 11.3518 18.0709 12.0798 18.4983 12.9799C18.8439 13.7076 18.8302 14.4668 18.4579 15.2212C18.3607 15.4181 18.2812 15.6061 18.2812 15.6391C18.2812 15.7312 19.0076 16.4453 19.1013 16.4453C19.278 16.4453 19.7305 15.575 19.8933 14.9219C20.0051 14.4738 20.0116 13.7078 19.9075 13.2618C19.5632 11.7863 18.3938 10.4937 16.5625 9.56406C16.191 9.37551 16.1105 9.35133 16.0324 9.40492ZM4.97389 12.2041C4.74116 12.3205 4.43456 12.5039 4.29253 12.6114C3.22913 13.4165 3.15866 14.5159 4.11553 15.3723C4.24749 15.4904 4.42924 15.6231 4.51944 15.6671C4.66245 15.737 4.69096 15.7732 4.74253 15.9505C4.91081 16.5295 5.47003 16.9221 6.0421 16.8631C7.27889 16.7354 7.60604 15.0922 6.50635 14.5313C6.26862 14.41 6.20428 14.3946 5.93706 14.3946C5.68491 14.3946 5.59702 14.4131 5.39792 14.5083L5.16007 14.622L4.97928 14.4738C4.87987 14.3923 4.77026 14.2665 4.73577 14.1941C4.67815 14.0733 4.67815 14.0518 4.73577 13.931C4.8487 13.6942 5.26077 13.4147 5.87108 13.1611C6.0387 13.0914 6.19311 13.0021 6.21428 12.9625C6.26471 12.8683 6.22768 12.8027 5.87147 12.3553C5.6526 12.0803 5.55995 11.9922 5.48971 11.9922C5.4387 11.9922 5.20659 12.0875 4.97389 12.2041ZM14.1285 12.3553C13.9696 12.5549 13.8187 12.7571 13.7933 12.8045C13.7233 12.9353 13.7949 13.0246 14.0514 13.1265C14.6803 13.3763 15.1469 13.6851 15.2628 13.9281C15.3223 14.0527 15.3223 14.0723 15.2628 14.197C15.074 14.593 14.0942 15.0657 12.913 15.3306C11.9555 15.5454 11.3451 15.6002 9.8828 15.6031C9.14159 15.6045 8.5155 15.6184 8.49147 15.634C8.46745 15.6496 8.43557 15.7702 8.42069 15.9019C8.40577 16.0337 8.3601 16.249 8.31921 16.3804C8.2126 16.7229 8.25608 16.7792 8.66073 16.8227C9.20307 16.8812 11.0549 16.8567 11.692 16.7827C13.8241 16.5349 15.3349 15.9871 16.0671 15.1962C16.9219 14.2729 16.6371 13.1266 15.3664 12.377C15.0198 12.1725 14.6116 11.9922 14.4951 11.9922C14.444 11.9922 14.3189 12.1162 14.1285 12.3553Z" fill="white"/>
</g>
<defs>
<clipPath id="clip0_8634_3625">
<rect width="20" height="20" fill="white"/>
</clipPath>
</defs>
</svg>
