<svg width="41" height="40" viewBox="0 0 41 40" fill="none" xmlns="http://www.w3.org/2000/svg">
<g id="Frame 1340">
<rect x="1" y="0.5" width="39" height="39" rx="3.5" fill="white"/>
<rect x="1" y="0.5" width="39" height="39" rx="3.5" stroke="#B3B3B3"/>
<g id="medical_services">
<mask id="mask0_3_2234" style="mask-type:alpha" maskUnits="userSpaceOnUse" x="4" y="4" width="32" height="32">
<rect id="Bounding box" x="4" y="4" width="32" height="32" fill="#D9D9D9"/>
</mask>
<g mask="url(#mask0_3_2234)">
<path id="medical_services_2" d="M9.33561 33.3323C8.60228 33.3323 7.9745 33.0712 7.45228 32.549C6.93006 32.0268 6.66895 31.399 6.66895 30.6656V14.6656C6.66895 13.9323 6.93006 13.3045 7.45228 12.7823C7.9745 12.2601 8.60228 11.999 9.33561 11.999H14.6689V9.33232C14.6689 8.59898 14.9301 7.9712 15.4523 7.44898C15.9745 6.92676 16.6023 6.66565 17.3356 6.66565H22.6689C23.4023 6.66565 24.0301 6.92676 24.5523 7.44898C25.0745 7.9712 25.3356 8.59898 25.3356 9.33232V11.999H30.6689C31.4023 11.999 32.0301 12.2601 32.5523 12.7823C33.0745 13.3045 33.3356 13.9323 33.3356 14.6656V30.6656C33.3356 31.399 33.0745 32.0268 32.5523 32.549C32.0301 33.0712 31.4023 33.3323 30.6689 33.3323H9.33561ZM9.33561 30.6656H30.6689V14.6656H9.33561V30.6656ZM17.3356 11.999H22.6689V9.33232H17.3356V11.999ZM18.6689 23.999V27.999H21.3356V23.999H25.3356V21.3323H21.3356V17.3323H18.6689V21.3323H14.6689V23.999H18.6689Z" fill="#24B9B0"/>
</g>
</g>
</g>
</svg>
