<svg width="40" height="40" viewBox="0 0 40 40" fill="none" xmlns="http://www.w3.org/2000/svg">
<g id="Frame 1834">
<rect x="0.5" y="0.5" width="39" height="39" rx="19.5" fill="#FFA500"/>
<rect x="0.5" y="0.5" width="39" height="39" rx="19.5" stroke="#E79500"/>
<g id="Group 872">
<g id="local_dining">
<mask id="mask0_8680_1095" style="mask-type:alpha" maskUnits="userSpaceOnUse" x="7" y="7" width="25" height="25">
<rect id="Bounding box" x="7.5" y="7.5" width="24" height="24" fill="#D9D9D9"/>
</mask>
<g mask="url(#mask0_8680_1095)">
<path id="local_dining_2" d="M12.4359 29.4615L11 28.0256L21.5128 17.5128C21.2051 16.7949 21.1624 15.9829 21.3846 15.0769C21.6068 14.1709 22.094 13.359 22.8462 12.641C23.7521 11.735 24.7607 11.2051 25.8718 11.0513C26.9829 10.8974 27.8889 11.1709 28.5897 11.8718C29.2906 12.5726 29.5641 13.4786 29.4103 14.5897C29.2564 15.7009 28.7265 16.7094 27.8205 17.6154C27.1026 18.3675 26.2906 18.8547 25.3846 19.0769C24.4786 19.2991 23.6667 19.2564 22.9487 18.9487L21.6667 20.2308L29.4615 28.0256L28.0256 29.4615L20.2308 21.7179L12.4359 29.4615ZM15.4615 20.6923L12.3846 17.6154C11.4615 16.6923 11 15.5897 11 14.3077C11 13.0256 11.4615 11.9231 12.3846 11L18.7436 17.4103L15.4615 20.6923Z" fill="white"/>
</g>
</g>
</g>
</g>
</svg>
