<svg width="41" height="40" viewBox="0 0 41 40" fill="none" xmlns="http://www.w3.org/2000/svg">
<rect x="1" y="0.5" width="39" height="39" rx="3.5" fill="white"/>
<rect x="1" y="0.5" width="39" height="39" rx="3.5" stroke="#B3B3B3"/>
<path fill-rule="evenodd" clip-rule="evenodd" d="M19.1246 5.0874C17.8478 5.41262 16.7573 6.33926 16.17 7.59759C15.4381 9.16561 15.7285 11.2391 16.8466 12.429L17.2002 12.8054L16.59 13.1687C14.8166 14.2245 13.368 16.7066 13.3625 18.6992L13.3608 19.31H9.68041H6V20.1722V21.0345H7.34477H8.68953V27.1422V33.2498H9.5373H10.3851L10.422 27.1781L10.459 21.1063H20.1554H29.8519L29.8889 27.1781L29.9258 33.2498H30.7736H31.6213V27.1473V21.0448L33.0015 21.0037L34.3817 20.9626L34.423 20.1004L34.4643 19.2381L30.7072 19.2786L26.9501 19.3192L26.9484 18.7038C26.943 16.7015 25.5075 14.2312 23.7372 13.1781L23.1107 12.8054L23.4643 12.429C23.6589 12.222 23.9807 11.6969 24.1794 11.2622C25.1713 9.09318 24.1188 6.34056 21.9201 5.35312C21.192 5.02618 19.8613 4.89972 19.1246 5.0874ZM19.0938 7.02505C18.216 7.50547 17.476 8.55211 17.4699 9.32211C17.4615 10.3453 18.1492 11.4214 19.088 11.8543C21.382 12.9123 23.7189 10.3031 22.4197 8.1342C22.2776 7.89694 21.9267 7.52113 21.6399 7.2991C20.9875 6.79382 19.7581 6.66146 19.0938 7.02505ZM18.7399 14.119C16.8002 14.7643 15.3848 16.496 15.2335 18.409L15.1623 19.31H20.1554H25.1486L25.076 18.3922C24.951 16.8113 23.8707 15.2481 22.356 14.4569C21.7714 14.1515 21.4105 14.0763 20.3678 14.0426C19.6671 14.0198 18.9345 14.0543 18.7399 14.119ZM6.0453 20.1722C6.0453 20.686 6.07106 20.8961 6.10234 20.6393C6.13377 20.3825 6.13377 19.962 6.10234 19.7052C6.07106 19.4483 6.0453 19.6585 6.0453 20.1722ZM13.3608 27.2859V30.5193H20.1554H26.9501V27.2859V24.0524H20.1554H13.3608V27.2859ZM15.201 27.2859V28.7948H20.1554H25.1098V27.2859V25.7769H20.1554H15.201V27.2859Z" fill="#24B9B0"/>
</svg>
