<svg width="153" height="54" viewBox="0 0 153 54" fill="none" xmlns="http://www.w3.org/2000/svg">
<g filter="url(#filter0_d_9978_15417)">
<rect x="9" y="9" width="135" height="36" rx="8" fill="white" shape-rendering="crispEdges"/>
<mask id="mask0_9978_15417" style="mask-type:alpha" maskUnits="userSpaceOnUse" x="17" y="15" width="24" height="24">
<rect x="17" y="15" width="24" height="24" fill="#D9D9D9"/>
</mask>
<g mask="url(#mask0_9978_15417)">
<path d="M25 34H26.5V27.25C26.9333 27.1167 27.2917 26.8792 27.575 26.5375C27.8583 26.1958 28 25.7833 28 25.3V21.5C28 21.3667 27.95 21.25 27.85 21.15C27.75 21.05 27.6333 21 27.5 21C27.3667 21 27.25 21.05 27.15 21.15C27.05 21.25 27 21.3667 27 21.5V24H26.25V21.5C26.25 21.3667 26.2 21.25 26.1 21.15C26 21.05 25.8833 21 25.75 21C25.6167 21 25.5 21.05 25.4 21.15C25.3 21.25 25.25 21.3667 25.25 21.5V24H24.5V21.5C24.5 21.3667 24.45 21.25 24.35 21.15C24.25 21.05 24.1333 21 24 21C23.8667 21 23.75 21.05 23.65 21.15C23.55 21.25 23.5 21.3667 23.5 21.5V25.3C23.5 25.7833 23.6417 26.1958 23.925 26.5375C24.2083 26.8792 24.5667 27.1167 25 27.25V34ZM31 34H32.5V27.65C33.05 27.3833 33.4792 26.9583 33.7875 26.375C34.0958 25.7917 34.25 25.1083 34.25 24.325C34.25 23.375 34.0125 22.5833 33.5375 21.95C33.0625 21.3167 32.4667 21 31.75 21C31.0333 21 30.4375 21.3167 29.9625 21.95C29.4875 22.5833 29.25 23.375 29.25 24.325C29.25 25.1083 29.4042 25.7917 29.7125 26.375C30.0208 26.9583 30.45 27.3833 31 27.65V34ZM21 37C20.45 37 19.9792 36.8042 19.5875 36.4125C19.1958 36.0208 19 35.55 19 35V19C19 18.45 19.1958 17.9792 19.5875 17.5875C19.9792 17.1958 20.45 17 21 17H37C37.55 17 38.0208 17.1958 38.4125 17.5875C38.8042 17.9792 39 18.45 39 19V35C39 35.55 38.8042 36.0208 38.4125 36.4125C38.0208 36.8042 37.55 37 37 37H21ZM21 35H37V19H21V35Z" fill="#3F3F46"/>
</g>
<path d="M51.7168 22.0469V32H50.3975V22.0469H51.7168ZM55.8867 26.5244V27.6045H51.4297V26.5244H55.8867ZM56.5635 22.0469V23.127H51.4297V22.0469H56.5635ZM57.459 28.3838V28.2266C57.459 27.6934 57.5365 27.1989 57.6914 26.7432C57.8464 26.2829 58.0697 25.8841 58.3613 25.5469C58.653 25.2051 59.0062 24.9408 59.4209 24.7539C59.8356 24.5625 60.3005 24.4668 60.8154 24.4668C61.335 24.4668 61.8021 24.5625 62.2168 24.7539C62.6361 24.9408 62.9915 25.2051 63.2832 25.5469C63.5794 25.8841 63.805 26.2829 63.96 26.7432C64.1149 27.1989 64.1924 27.6934 64.1924 28.2266V28.3838C64.1924 28.917 64.1149 29.4115 63.96 29.8672C63.805 30.3229 63.5794 30.7217 63.2832 31.0635C62.9915 31.4007 62.6383 31.665 62.2236 31.8564C61.8135 32.0433 61.3486 32.1367 60.8291 32.1367C60.3096 32.1367 59.8424 32.0433 59.4277 31.8564C59.013 31.665 58.6576 31.4007 58.3613 31.0635C58.0697 30.7217 57.8464 30.3229 57.6914 29.8672C57.5365 29.4115 57.459 28.917 57.459 28.3838ZM58.7236 28.2266V28.3838C58.7236 28.7529 58.7669 29.1016 58.8535 29.4297C58.9401 29.7533 59.07 30.0404 59.2432 30.291C59.4209 30.5417 59.6419 30.7399 59.9062 30.8857C60.1706 31.027 60.4782 31.0977 60.8291 31.0977C61.1755 31.0977 61.4785 31.027 61.7383 30.8857C62.0026 30.7399 62.2214 30.5417 62.3945 30.291C62.5677 30.0404 62.6976 29.7533 62.7842 29.4297C62.8753 29.1016 62.9209 28.7529 62.9209 28.3838V28.2266C62.9209 27.862 62.8753 27.5179 62.7842 27.1943C62.6976 26.8662 62.5654 26.5768 62.3877 26.3262C62.2145 26.071 61.9958 25.8704 61.7314 25.7246C61.4717 25.5788 61.1663 25.5059 60.8154 25.5059C60.4691 25.5059 60.1637 25.5788 59.8994 25.7246C59.6396 25.8704 59.4209 26.071 59.2432 26.3262C59.07 26.5768 58.9401 26.8662 58.8535 27.1943C58.7669 27.5179 58.7236 27.862 58.7236 28.2266ZM65.4434 28.3838V28.2266C65.4434 27.6934 65.5208 27.1989 65.6758 26.7432C65.8307 26.2829 66.054 25.8841 66.3457 25.5469C66.6374 25.2051 66.9906 24.9408 67.4053 24.7539C67.82 24.5625 68.2848 24.4668 68.7998 24.4668C69.3193 24.4668 69.7865 24.5625 70.2012 24.7539C70.6204 24.9408 70.9759 25.2051 71.2676 25.5469C71.5638 25.8841 71.7894 26.2829 71.9443 26.7432C72.0993 27.1989 72.1768 27.6934 72.1768 28.2266V28.3838C72.1768 28.917 72.0993 29.4115 71.9443 29.8672C71.7894 30.3229 71.5638 30.7217 71.2676 31.0635C70.9759 31.4007 70.6227 31.665 70.208 31.8564C69.7979 32.0433 69.333 32.1367 68.8135 32.1367C68.2939 32.1367 67.8268 32.0433 67.4121 31.8564C66.9974 31.665 66.6419 31.4007 66.3457 31.0635C66.054 30.7217 65.8307 30.3229 65.6758 29.8672C65.5208 29.4115 65.4434 28.917 65.4434 28.3838ZM66.708 28.2266V28.3838C66.708 28.7529 66.7513 29.1016 66.8379 29.4297C66.9245 29.7533 67.0544 30.0404 67.2275 30.291C67.4053 30.5417 67.6263 30.7399 67.8906 30.8857C68.1549 31.027 68.4626 31.0977 68.8135 31.0977C69.1598 31.0977 69.4629 31.027 69.7227 30.8857C69.987 30.7399 70.2057 30.5417 70.3789 30.291C70.5521 30.0404 70.682 29.7533 70.7686 29.4297C70.8597 29.1016 70.9053 28.7529 70.9053 28.3838V28.2266C70.9053 27.862 70.8597 27.5179 70.7686 27.1943C70.682 26.8662 70.5498 26.5768 70.3721 26.3262C70.1989 26.071 69.9801 25.8704 69.7158 25.7246C69.4561 25.5788 69.1507 25.5059 68.7998 25.5059C68.4535 25.5059 68.1481 25.5788 67.8838 25.7246C67.624 25.8704 67.4053 26.071 67.2275 26.3262C67.0544 26.5768 66.9245 26.8662 66.8379 27.1943C66.7513 27.5179 66.708 27.862 66.708 28.2266ZM78.4248 30.5645V21.5H79.6963V32H78.5342L78.4248 30.5645ZM73.4482 28.3838V28.2402C73.4482 27.6751 73.5166 27.1624 73.6533 26.7021C73.7946 26.2373 73.9928 25.8385 74.248 25.5059C74.5078 25.1732 74.8154 24.918 75.1709 24.7402C75.5309 24.5579 75.932 24.4668 76.374 24.4668C76.8389 24.4668 77.2445 24.5488 77.5908 24.7129C77.9417 24.8724 78.238 25.1071 78.4795 25.417C78.7256 25.7223 78.9193 26.0915 79.0605 26.5244C79.2018 26.9574 79.2998 27.4473 79.3545 27.9941V28.623C79.3044 29.1654 79.2064 29.653 79.0605 30.0859C78.9193 30.5189 78.7256 30.888 78.4795 31.1934C78.238 31.4987 77.9417 31.7334 77.5908 31.8975C77.2399 32.057 76.8298 32.1367 76.3604 32.1367C75.9274 32.1367 75.5309 32.0433 75.1709 31.8564C74.8154 31.6696 74.5078 31.4076 74.248 31.0703C73.9928 30.7331 73.7946 30.3366 73.6533 29.8809C73.5166 29.4206 73.4482 28.9215 73.4482 28.3838ZM74.7197 28.2402V28.3838C74.7197 28.7529 74.7562 29.0993 74.8291 29.4229C74.9066 29.7464 75.0251 30.0312 75.1846 30.2773C75.3441 30.5234 75.5469 30.7171 75.793 30.8584C76.0391 30.9951 76.333 31.0635 76.6748 31.0635C77.0941 31.0635 77.4382 30.9746 77.707 30.7969C77.9805 30.6191 78.1992 30.3844 78.3633 30.0928C78.5273 29.8011 78.6549 29.4844 78.7461 29.1426V27.4951C78.6914 27.2445 78.6117 27.0029 78.5068 26.7705C78.4066 26.5335 78.2744 26.3239 78.1104 26.1416C77.9508 25.9548 77.7526 25.8066 77.5156 25.6973C77.2832 25.5879 77.0075 25.5332 76.6885 25.5332C76.3421 25.5332 76.0436 25.6061 75.793 25.752C75.5469 25.8932 75.3441 26.0892 75.1846 26.3398C75.0251 26.5859 74.9066 26.873 74.8291 27.2012C74.7562 27.5247 74.7197 27.8711 74.7197 28.2402ZM86.9766 26.4766L88.4668 25.417C88.7539 25.221 88.9749 25.0251 89.1299 24.8291C89.2894 24.6286 89.3691 24.3551 89.3691 24.0088C89.3691 23.7399 89.2643 23.4961 89.0547 23.2773C88.8451 23.054 88.5488 22.9424 88.166 22.9424C87.9017 22.9424 87.6784 23.0039 87.4961 23.127C87.3138 23.25 87.1771 23.4141 87.0859 23.6191C86.9948 23.8197 86.9492 24.0407 86.9492 24.2822C86.9492 24.4873 86.9993 24.6992 87.0996 24.918C87.1999 25.1367 87.3389 25.3646 87.5166 25.6016C87.6943 25.8385 87.8971 26.0892 88.125 26.3535L92.835 32H91.3174L87.4551 27.3789C87.1133 26.9779 86.8079 26.611 86.5391 26.2783C86.2702 25.9411 86.0583 25.6152 85.9033 25.3008C85.7529 24.9863 85.6777 24.6605 85.6777 24.3232C85.6777 23.8037 85.7803 23.3662 85.9854 23.0107C86.195 22.6507 86.4867 22.3773 86.8604 22.1904C87.234 22.0036 87.6715 21.9102 88.1729 21.9102C88.6605 21.9102 89.0798 22.0081 89.4307 22.2041C89.7861 22.3955 90.0596 22.6507 90.251 22.9697C90.4424 23.2842 90.5381 23.6305 90.5381 24.0088C90.5381 24.3278 90.4811 24.6149 90.3672 24.8701C90.2533 25.1208 90.0938 25.3509 89.8887 25.5605C89.6882 25.7702 89.4535 25.9753 89.1846 26.1758L87.209 27.6455C86.8809 27.887 86.6416 28.1172 86.4912 28.3359C86.3408 28.5547 86.2428 28.7484 86.1973 28.917C86.1562 29.0856 86.1357 29.2201 86.1357 29.3203C86.1357 29.6439 86.2064 29.9401 86.3477 30.209C86.4889 30.4779 86.7031 30.6943 86.9902 30.8584C87.2819 31.0179 87.6465 31.0977 88.084 31.0977C88.4668 31.0977 88.8382 31.0111 89.1982 30.8379C89.5628 30.6602 89.8887 30.4095 90.1758 30.0859C90.4629 29.7578 90.6908 29.3682 90.8594 28.917C91.0326 28.4613 91.1191 27.9577 91.1191 27.4062H92.2539C92.2539 27.8574 92.2106 28.2835 92.124 28.6846C92.0374 29.0856 91.903 29.4593 91.7207 29.8057C91.543 30.1475 91.3151 30.4596 91.0371 30.7422C90.9961 30.7832 90.9642 30.8311 90.9414 30.8857C90.9186 30.9404 90.8867 30.9883 90.8457 31.0293C90.5039 31.3984 90.0824 31.6764 89.5811 31.8633C89.0843 32.0456 88.5853 32.1367 88.084 32.1367C87.4232 32.1367 86.8512 32.016 86.3682 31.7744C85.8896 31.5329 85.5205 31.2002 85.2607 30.7764C85.001 30.3525 84.8711 29.8672 84.8711 29.3203C84.8711 28.901 84.96 28.5319 85.1377 28.2129C85.32 27.8939 85.5684 27.5954 85.8828 27.3174C86.2018 27.0394 86.5664 26.7591 86.9766 26.4766ZM100.204 32H98.126L98.1396 30.9268H100.204C100.915 30.9268 101.507 30.7786 101.981 30.4824C102.455 30.1816 102.811 29.7624 103.048 29.2246C103.289 28.6823 103.41 28.0488 103.41 27.3242V26.7158C103.41 26.1462 103.342 25.6403 103.205 25.1982C103.068 24.7516 102.868 24.3757 102.604 24.0703C102.339 23.7604 102.016 23.5257 101.633 23.3662C101.255 23.2067 100.819 23.127 100.327 23.127H98.085V22.0469H100.327C100.979 22.0469 101.574 22.1562 102.111 22.375C102.649 22.5892 103.112 22.9014 103.499 23.3115C103.891 23.7171 104.192 24.2093 104.401 24.7881C104.611 25.3623 104.716 26.0094 104.716 26.7295V27.3242C104.716 28.0443 104.611 28.6937 104.401 29.2725C104.192 29.8467 103.889 30.3366 103.492 30.7422C103.1 31.1478 102.626 31.46 102.07 31.6787C101.519 31.8929 100.897 32 100.204 32ZM98.8301 22.0469V32H97.5107V22.0469H98.8301ZM107.771 25.7656V32H106.507V24.6035H107.737L107.771 25.7656ZM110.082 24.5625L110.075 25.7383C109.97 25.7155 109.87 25.7018 109.774 25.6973C109.683 25.6882 109.578 25.6836 109.46 25.6836C109.168 25.6836 108.911 25.7292 108.688 25.8203C108.464 25.9115 108.275 26.0391 108.12 26.2031C107.965 26.3672 107.842 26.5632 107.751 26.791C107.664 27.0143 107.607 27.2604 107.58 27.5293L107.225 27.7344C107.225 27.2878 107.268 26.8685 107.354 26.4766C107.446 26.0846 107.585 25.7383 107.771 25.4375C107.958 25.1322 108.195 24.8952 108.482 24.7266C108.774 24.5534 109.12 24.4668 109.521 24.4668C109.613 24.4668 109.717 24.4782 109.836 24.501C109.954 24.5192 110.036 24.5397 110.082 24.5625ZM112.625 24.6035V32H111.354V24.6035H112.625ZM111.258 22.6416C111.258 22.4365 111.319 22.2633 111.442 22.1221C111.57 21.9808 111.757 21.9102 112.003 21.9102C112.244 21.9102 112.429 21.9808 112.557 22.1221C112.689 22.2633 112.755 22.4365 112.755 22.6416C112.755 22.8376 112.689 23.0062 112.557 23.1475C112.429 23.2842 112.244 23.3525 112.003 23.3525C111.757 23.3525 111.57 23.2842 111.442 23.1475C111.319 23.0062 111.258 22.8376 111.258 22.6416ZM115.92 26.1826V32H114.655V24.6035H115.852L115.92 26.1826ZM115.619 28.0215L115.093 28.001C115.097 27.4951 115.173 27.028 115.318 26.5996C115.464 26.1667 115.669 25.7907 115.934 25.4717C116.198 25.1527 116.512 24.9066 116.877 24.7334C117.246 24.5557 117.654 24.4668 118.101 24.4668C118.465 24.4668 118.793 24.5169 119.085 24.6172C119.377 24.7129 119.625 24.8678 119.83 25.082C120.04 25.2962 120.199 25.5742 120.309 25.916C120.418 26.2533 120.473 26.6657 120.473 27.1533V32H119.201V27.1396C119.201 26.7523 119.144 26.4424 119.03 26.21C118.916 25.973 118.75 25.8021 118.531 25.6973C118.312 25.5879 118.044 25.5332 117.725 25.5332C117.41 25.5332 117.123 25.5993 116.863 25.7314C116.608 25.8636 116.387 26.0459 116.2 26.2783C116.018 26.5107 115.874 26.7773 115.77 27.0781C115.669 27.3743 115.619 27.6888 115.619 28.0215ZM123.665 21.5V32H122.394V21.5H123.665ZM128.184 24.6035L124.957 28.0557L123.152 29.9287L123.05 28.582L124.342 27.0371L126.639 24.6035H128.184ZM127.028 32L124.39 28.4727L125.046 27.3447L128.519 32H127.028ZM133.796 30.0381C133.796 29.8558 133.755 29.6872 133.673 29.5322C133.595 29.3727 133.434 29.2292 133.188 29.1016C132.946 28.9694 132.581 28.8555 132.094 28.7598C131.684 28.6732 131.312 28.5706 130.979 28.4521C130.651 28.3337 130.371 28.1901 130.139 28.0215C129.911 27.8529 129.735 27.6546 129.612 27.4268C129.489 27.1989 129.428 26.9323 129.428 26.627C129.428 26.3353 129.492 26.0596 129.619 25.7998C129.751 25.54 129.936 25.3099 130.173 25.1094C130.414 24.9089 130.704 24.7516 131.041 24.6377C131.378 24.5238 131.754 24.4668 132.169 24.4668C132.761 24.4668 133.267 24.5716 133.687 24.7812C134.106 24.9909 134.427 25.2712 134.65 25.6221C134.874 25.9684 134.985 26.3535 134.985 26.7773H133.721C133.721 26.5723 133.659 26.374 133.536 26.1826C133.418 25.9867 133.242 25.8249 133.01 25.6973C132.782 25.5697 132.502 25.5059 132.169 25.5059C131.818 25.5059 131.533 25.5605 131.314 25.6699C131.1 25.7747 130.943 25.9092 130.843 26.0732C130.747 26.2373 130.699 26.4105 130.699 26.5928C130.699 26.7295 130.722 26.8525 130.768 26.9619C130.818 27.0667 130.904 27.1647 131.027 27.2559C131.15 27.3424 131.324 27.4245 131.547 27.502C131.77 27.5794 132.055 27.6569 132.401 27.7344C133.007 27.8711 133.507 28.0352 133.898 28.2266C134.29 28.418 134.582 28.6527 134.773 28.9307C134.965 29.2087 135.061 29.5459 135.061 29.9424C135.061 30.266 134.992 30.5622 134.855 30.8311C134.723 31.0999 134.53 31.3324 134.274 31.5283C134.024 31.7197 133.723 31.8701 133.372 31.9795C133.026 32.0843 132.636 32.1367 132.203 32.1367C131.551 32.1367 131 32.0205 130.549 31.7881C130.098 31.5557 129.756 31.2549 129.523 30.8857C129.291 30.5166 129.175 30.127 129.175 29.7168H130.446C130.465 30.0632 130.565 30.3389 130.747 30.5439C130.929 30.7445 131.153 30.888 131.417 30.9746C131.681 31.0566 131.943 31.0977 132.203 31.0977C132.549 31.0977 132.839 31.0521 133.071 30.9609C133.308 30.8698 133.488 30.7445 133.611 30.585C133.734 30.4255 133.796 30.2432 133.796 30.0381Z" fill="#3F3F46"/>
</g>
<defs>
<filter id="filter0_d_9978_15417" x="0" y="0" width="153" height="54" filterUnits="userSpaceOnUse" color-interpolation-filters="sRGB">
<feFlood flood-opacity="0" result="BackgroundImageFix"/>
<feColorMatrix in="SourceAlpha" type="matrix" values="0 0 0 0 0 0 0 0 0 0 0 0 0 0 0 0 0 0 127 0" result="hardAlpha"/>
<feMorphology radius="1" operator="dilate" in="SourceAlpha" result="effect1_dropShadow_9978_15417"/>
<feOffset/>
<feGaussianBlur stdDeviation="4"/>
<feComposite in2="hardAlpha" operator="out"/>
<feColorMatrix type="matrix" values="0 0 0 0 0 0 0 0 0 0 0 0 0 0 0 0 0 0 0.1 0"/>
<feBlend mode="normal" in2="BackgroundImageFix" result="effect1_dropShadow_9978_15417"/>
<feBlend mode="normal" in="SourceGraphic" in2="effect1_dropShadow_9978_15417" result="shape"/>
</filter>
</defs>
</svg>
