<svg width="27" height="27" viewBox="0 0 27 27" fill="none" xmlns="http://www.w3.org/2000/svg">
<g id="Group 813">
<path id="directions" d="M13.4809 26.9617C13.1438 26.9617 12.8124 26.8943 12.4866 26.7595C12.1609 26.6247 11.8632 26.4225 11.5935 26.1529L0.808851 15.3682C0.539234 15.0986 0.337021 14.8009 0.202213 14.4751C0.0674043 14.1493 0 13.8179 0 13.4809C0 13.1438 0.0674043 12.8124 0.202213 12.4866C0.337021 12.1609 0.539234 11.8632 0.808851 11.5935L11.5935 0.808851C11.8632 0.539234 12.1609 0.337021 12.4866 0.202213C12.8124 0.0674043 13.1438 0 13.4809 0C13.8179 0 14.1493 0.0674043 14.4751 0.202213C14.8009 0.337021 15.0986 0.539234 15.3682 0.808851L26.1529 11.5935C26.4225 11.8632 26.6247 12.1609 26.7595 12.4866C26.8943 12.8124 26.9617 13.1438 26.9617 13.4809C26.9617 13.8179 26.8943 14.1493 26.7595 14.4751C26.6247 14.8009 26.4225 15.0986 26.1529 15.3682L15.3682 26.1529C15.0986 26.4225 14.8009 26.6247 14.4751 26.7595C14.1493 26.8943 13.8179 26.9617 13.4809 26.9617Z" fill="white"/>
<path id="directions_2" d="M8.08838 17.5247H10.7845V13.4804H15.5028V16.8507L20.2211 12.1324L15.5028 7.41406V10.7843H9.43646C9.05451 10.7843 8.73434 10.9135 8.47595 11.1718C8.21757 11.4302 8.08838 11.7504 8.08838 12.1324V17.5247Z" fill="black"/>
</g>
</svg>
