<svg width="24" height="24" viewBox="0 0 24 24" fill="none" xmlns="http://www.w3.org/2000/svg">
<mask id="mask0_8204_1804" style="mask-type:alpha" maskUnits="userSpaceOnUse" x="0" y="0" width="24" height="24">
<rect width="24" height="24" fill="#D9D9D9"/>
</mask>
<g mask="url(#mask0_8204_1804)">
<path d="M12.1818 21.35L10.7055 20.05C8.99152 18.5333 7.57455 17.225 6.45455 16.125C5.33455 15.025 4.44364 14.0375 3.78182 13.1625C3.12 12.2875 2.65758 11.4833 2.39455 10.75C2.13152 10.0167 2 9.26667 2 8.5C2 6.93333 2.53455 5.625 3.60364 4.575C4.67273 3.525 6.00485 3 7.6 3C8.48242 3 9.32242 3.18333 10.12 3.55C10.9176 3.91667 11.6048 4.43333 12.1818 5.1C12.7588 4.43333 13.4461 3.91667 14.2436 3.55C15.0412 3.18333 15.8812 3 16.7636 3C18.3588 3 19.6909 3.525 20.76 4.575C21.8291 5.625 22.3636 6.93333 22.3636 8.5C22.3636 9.26667 22.2321 10.0167 21.9691 10.75C21.7061 11.4833 21.2436 12.2875 20.5818 13.1625C19.92 14.0375 19.0291 15.025 17.9091 16.125C16.7891 17.225 15.3721 18.5333 13.6582 20.05L12.1818 21.35ZM12.1818 18.65C13.8109 17.2167 15.1515 15.9875 16.2036 14.9625C17.2558 13.9375 18.0873 13.0458 18.6982 12.2875C19.3091 11.5292 19.7333 10.8542 19.9709 10.2625C20.2085 9.67083 20.3273 9.08333 20.3273 8.5C20.3273 7.5 19.9879 6.66667 19.3091 6C18.6303 5.33333 17.7818 5 16.7636 5C15.9661 5 15.2279 5.22083 14.5491 5.6625C13.8703 6.10417 13.4036 6.66667 13.1491 7.35H11.2145C10.96 6.66667 10.4933 6.10417 9.81455 5.6625C9.13576 5.22083 8.39758 5 7.6 5C6.58182 5 5.73333 5.33333 5.05455 6C4.37576 6.66667 4.03636 7.5 4.03636 8.5C4.03636 9.08333 4.15515 9.67083 4.39273 10.2625C4.6303 10.8542 5.05455 11.5292 5.66545 12.2875C6.27636 13.0458 7.10788 13.9375 8.16 14.9625C9.21212 15.9875 10.5527 17.2167 12.1818 18.65Z" fill="#B3B3B3"/>
</g>
</svg>
