<svg width="47" height="30" viewBox="0 0 47 30" fill="none" xmlns="http://www.w3.org/2000/svg">
<mask id="path-1-outside-1_747_7334" maskUnits="userSpaceOnUse" x="-1" y="-1" width="49" height="12" fill="black">
<rect fill="white" x="-1" y="-1" width="49" height="12"/>
<path d="M2.8501 0.757812V10H0.952148V0.757812H2.8501ZM11.8018 8.53369L13.6426 0.757812H14.671L14.9058 2.05273L12.9444 10H11.8399L11.8018 8.53369ZM10.856 0.757812L12.3795 8.53369L12.2525 10H11.0211L8.97076 0.757812H10.856ZM16.5245 8.50195L18.0289 0.757812H19.9141L17.8702 10H16.6387L16.5245 8.50195ZM15.2486 0.757812L17.1021 8.56543L17.0513 10H15.9468L13.9727 2.04639L14.2266 0.757812H15.2486ZM29.3673 2.33838L26.8536 10H24.8287L28.2628 0.757812H29.5514L29.3673 2.33838ZM31.4557 10L28.9357 2.33838L28.7325 0.757812H30.0338L33.4869 10H31.4557ZM31.3414 6.55957V8.05127H26.4601V6.55957H31.3414ZM39.7155 0.757812L41.6452 4.97266L43.5749 0.757812H45.6506L42.61 6.63574V10H40.6804V6.63574L37.6335 0.757812H39.7155Z"/>
</mask>
<path d="M2.8501 0.757812V10H0.952148V0.757812H2.8501ZM11.8018 8.53369L13.6426 0.757812H14.671L14.9058 2.05273L12.9444 10H11.8399L11.8018 8.53369ZM10.856 0.757812L12.3795 8.53369L12.2525 10H11.0211L8.97076 0.757812H10.856ZM16.5245 8.50195L18.0289 0.757812H19.9141L17.8702 10H16.6387L16.5245 8.50195ZM15.2486 0.757812L17.1021 8.56543L17.0513 10H15.9468L13.9727 2.04639L14.2266 0.757812H15.2486ZM29.3673 2.33838L26.8536 10H24.8287L28.2628 0.757812H29.5514L29.3673 2.33838ZM31.4557 10L28.9357 2.33838L28.7325 0.757812H30.0338L33.4869 10H31.4557ZM31.3414 6.55957V8.05127H26.4601V6.55957H31.3414ZM39.7155 0.757812L41.6452 4.97266L43.5749 0.757812H45.6506L42.61 6.63574V10H40.6804V6.63574L37.6335 0.757812H39.7155Z" fill="white"/>
<path d="M2.8501 0.757812H3.8501V-0.242188H2.8501V0.757812ZM2.8501 10V11H3.8501V10H2.8501ZM0.952148 10H-0.0478516V11H0.952148V10ZM0.952148 0.757812V-0.242188H-0.0478516V0.757812H0.952148ZM1.8501 0.757812V10H3.8501V0.757812H1.8501ZM2.8501 9H0.952148V11H2.8501V9ZM1.95215 10V0.757812H-0.0478516V10H1.95215ZM0.952148 1.75781H2.8501V-0.242188H0.952148V1.75781ZM11.8018 8.53369L10.8287 8.30332L10.7988 8.42976L10.8022 8.55966L11.8018 8.53369ZM13.6426 0.757812V-0.242188H12.8517L12.6695 0.527445L13.6426 0.757812ZM14.671 0.757812L15.6549 0.579352L15.5059 -0.242188H14.671V0.757812ZM14.9058 2.05273L15.8767 2.29235L15.9279 2.08471L15.8898 1.87427L14.9058 2.05273ZM12.9444 10V11H13.7276L13.9153 10.2396L12.9444 10ZM11.8399 10L10.8402 10.026L10.8655 11H11.8399V10ZM10.856 0.757812L11.8374 0.565549L11.6791 -0.242188H10.856V0.757812ZM12.3795 8.53369L13.3757 8.61995L13.3879 8.47964L13.3608 8.34143L12.3795 8.53369ZM12.2525 10V11H13.1697L13.2488 10.0863L12.2525 10ZM11.0211 10L10.0448 10.2166L10.2186 11H11.0211V10ZM8.97076 0.757812V-0.242188H7.72461L7.9945 0.974388L8.97076 0.757812ZM16.5245 8.50195L15.5428 8.31126L15.5171 8.44359L15.5274 8.578L16.5245 8.50195ZM18.0289 0.757812V-0.242188H17.2044L17.0472 0.567115L18.0289 0.757812ZM19.9141 0.757812L20.8905 0.973749L21.1594 -0.242188H19.9141V0.757812ZM17.8702 10V11H18.6732L18.8466 10.2159L17.8702 10ZM16.6387 10L15.6416 10.0761L15.7121 11H16.6387V10ZM15.2486 0.757812L16.2216 0.526834L16.039 -0.242188H15.2486V0.757812ZM17.1021 8.56543L18.1015 8.60081L18.1063 8.46584L18.0751 8.33445L17.1021 8.56543ZM17.0513 10V11H18.0166L18.0507 10.0354L17.0513 10ZM15.9468 10L14.9763 10.2409L15.1647 11H15.9468V10ZM13.9727 2.04639L12.9916 1.85306L12.9486 2.07135L13.0022 2.28728L13.9727 2.04639ZM14.2266 0.757812V-0.242188H13.4044L13.2455 0.564486L14.2266 0.757812ZM12.7749 8.76406L14.6157 0.98818L12.6695 0.527445L10.8287 8.30332L12.7749 8.76406ZM13.6426 1.75781H14.671V-0.242188H13.6426V1.75781ZM13.687 0.936273L13.9219 2.2312L15.8898 1.87427L15.6549 0.579352L13.687 0.936273ZM13.935 1.81312L11.9735 9.76038L13.9153 10.2396L15.8767 2.29235L13.935 1.81312ZM12.9444 9H11.8399V11H12.9444V9ZM12.8396 9.97403L12.8015 8.50773L10.8022 8.55966L10.8402 10.026L12.8396 9.97403ZM9.87467 0.950076L11.3981 8.72595L13.3608 8.34143L11.8374 0.565549L9.87467 0.950076ZM11.3832 8.44743L11.2562 9.91374L13.2488 10.0863L13.3757 8.61995L11.3832 8.44743ZM12.2525 9H11.0211V11H12.2525V9ZM11.9973 9.78342L9.94703 0.541237L7.9945 0.974388L10.0448 10.2166L11.9973 9.78342ZM8.97076 1.75781H10.856V-0.242188H8.97076V1.75781ZM17.5061 8.69265L19.0105 0.94851L17.0472 0.567115L15.5428 8.31126L17.5061 8.69265ZM18.0289 1.75781H19.9141V-0.242188H18.0289V1.75781ZM18.9377 0.541876L16.8938 9.78406L18.8466 10.2159L20.8905 0.973749L18.9377 0.541876ZM17.8702 9H16.6387V11H17.8702V9ZM17.6358 9.92395L17.5216 8.4259L15.5274 8.578L15.6416 10.0761L17.6358 9.92395ZM14.2756 0.988791L16.1292 8.79641L18.0751 8.33445L16.2216 0.526834L14.2756 0.988791ZM16.1027 8.53005L16.052 9.96462L18.0507 10.0354L18.1015 8.60081L16.1027 8.53005ZM17.0513 9H15.9468V11H17.0513V9ZM16.9174 9.75911L14.9433 1.80549L13.0022 2.28728L14.9763 10.2409L16.9174 9.75911ZM14.9538 2.23971L15.2078 0.951139L13.2455 0.564486L12.9916 1.85306L14.9538 2.23971ZM14.2266 1.75781H15.2486V-0.242188H14.2266V1.75781ZM29.3673 2.33838L30.3175 2.65012L30.3489 2.55426L30.3606 2.45406L29.3673 2.33838ZM26.8536 10V11H27.578L27.8038 10.3117L26.8536 10ZM24.8287 10L23.8913 9.6517L23.3904 11H24.8287V10ZM28.2628 0.757812V-0.242188H27.5676L27.3254 0.409513L28.2628 0.757812ZM29.5514 0.757812L30.5447 0.873496L30.6746 -0.242188H29.5514V0.757812ZM31.4557 10L30.5057 10.3124L30.7319 11H31.4557V10ZM28.9357 2.33838L27.9438 2.46584L27.956 2.56033L27.9857 2.65083L28.9357 2.33838ZM28.7325 0.757812V-0.242188H27.5958L27.7407 0.885278L28.7325 0.757812ZM30.0338 0.757812L30.9706 0.407817L30.7277 -0.242188H30.0338V0.757812ZM33.4869 10V11H34.9281L34.4237 9.65L33.4869 10ZM31.3414 6.55957H32.3414V5.55957H31.3414V6.55957ZM31.3414 8.05127V9.05127H32.3414V8.05127H31.3414ZM26.4601 8.05127H25.4601V9.05127H26.4601V8.05127ZM26.4601 6.55957V5.55957H25.4601V6.55957H26.4601ZM28.4171 2.02664L25.9035 9.68826L27.8038 10.3117L30.3175 2.65012L28.4171 2.02664ZM26.8536 9H24.8287V11H26.8536V9ZM25.7661 10.3483L29.2002 1.10611L27.3254 0.409513L23.8913 9.6517L25.7661 10.3483ZM28.2628 1.75781H29.5514V-0.242188H28.2628V1.75781ZM28.5581 0.642129L28.374 2.22269L30.3606 2.45406L30.5447 0.873496L28.5581 0.642129ZM32.4056 9.68755L29.8856 2.02593L27.9857 2.65083L30.5057 10.3124L32.4056 9.68755ZM29.9275 2.21091L29.7244 0.630347L27.7407 0.885278L27.9438 2.46584L29.9275 2.21091ZM28.7325 1.75781H30.0338V-0.242188H28.7325V1.75781ZM29.0971 1.10781L32.5502 10.35L34.4237 9.65L30.9706 0.407817L29.0971 1.10781ZM33.4869 9H31.4557V11H33.4869V9ZM30.3414 6.55957V8.05127H32.3414V6.55957H30.3414ZM31.3414 7.05127H26.4601V9.05127H31.3414V7.05127ZM27.4601 8.05127V6.55957H25.4601V8.05127H27.4601ZM26.4601 7.55957H31.3414V5.55957H26.4601V7.55957ZM39.7155 0.757812L40.6247 0.341535L40.3575 -0.242188H39.7155V0.757812ZM41.6452 4.97266L40.736 5.38893L41.6452 7.3749L42.5544 5.38893L41.6452 4.97266ZM43.5749 0.757812V-0.242188H42.9329L42.6656 0.341535L43.5749 0.757812ZM45.6506 0.757812L46.5388 1.21726L47.2937 -0.242188H45.6506V0.757812ZM42.61 6.63574L41.7218 6.17629L41.61 6.39242V6.63574H42.61ZM42.61 10V11H43.61V10H42.61ZM40.6804 10H39.6804V11H40.6804V10ZM40.6804 6.63574H41.6804V6.39197L41.5682 6.17554L40.6804 6.63574ZM37.6335 0.757812V-0.242188H35.9888L36.7457 1.21802L37.6335 0.757812ZM38.8063 1.17409L40.736 5.38893L42.5544 4.55638L40.6247 0.341535L38.8063 1.17409ZM42.5544 5.38893L44.4841 1.17409L42.6656 0.341535L40.736 4.55638L42.5544 5.38893ZM43.5749 1.75781H45.6506V-0.242188H43.5749V1.75781ZM44.7624 0.298363L41.7218 6.17629L43.4982 7.09519L46.5388 1.21726L44.7624 0.298363ZM41.61 6.63574V10H43.61V6.63574H41.61ZM42.61 9H40.6804V11H42.61V9ZM41.6804 10V6.63574H39.6804V10H41.6804ZM41.5682 6.17554L38.5213 0.297607L36.7457 1.21802L39.7925 7.09595L41.5682 6.17554ZM37.6335 1.75781H39.7155V-0.242188H37.6335V1.75781Z" fill="#686868" mask="url(#path-1-outside-1_747_7334)"/>
<mask id="path-3-outside-2_747_7334" maskUnits="userSpaceOnUse" x="0" y="16" width="47" height="15" fill="black">
<rect fill="white" y="16" width="47" height="15"/>
<path d="M2.08594 17.625H4.07031L6.99219 25.9766L9.91406 17.625H11.8984L7.78906 29H6.19531L2.08594 17.625ZM1.01562 17.625H2.99219L3.35156 25.7656V29H1.01562V17.625ZM10.9922 17.625H12.9766V29H10.6328V25.7656L10.9922 17.625ZM20.1169 19.5703L17.0231 29H14.5309L18.7575 17.625H20.3434L20.1169 19.5703ZM22.6872 29L19.5856 19.5703L19.3356 17.625H20.9372L25.1872 29H22.6872ZM22.5466 24.7656V26.6016H16.5387V24.7656H22.5466ZM30.9916 24.9453H28.0931V23.1172H30.9916C31.4395 23.1172 31.8041 23.0443 32.0853 22.8984C32.3666 22.7474 32.5723 22.5391 32.7025 22.2734C32.8327 22.0078 32.8978 21.7083 32.8978 21.375C32.8978 21.0365 32.8327 20.7214 32.7025 20.4297C32.5723 20.138 32.3666 19.9036 32.0853 19.7266C31.8041 19.5495 31.4395 19.4609 30.9916 19.4609H28.9056V29H26.5619V17.625H30.9916C31.8822 17.625 32.6452 17.7865 33.2806 18.1094C33.9212 18.4271 34.4108 18.8672 34.7494 19.4297C35.0879 19.9922 35.2572 20.6354 35.2572 21.3594C35.2572 22.0938 35.0879 22.7292 34.7494 23.2656C34.4108 23.8021 33.9212 24.2161 33.2806 24.5078C32.6452 24.7995 31.8822 24.9453 30.9916 24.9453ZM43.1162 26.0234C43.1162 25.8203 43.085 25.638 43.0225 25.4766C42.9652 25.3099 42.8558 25.1589 42.6944 25.0234C42.5329 24.8828 42.3064 24.7448 42.0147 24.6094C41.723 24.474 41.3454 24.3333 40.8819 24.1875C40.3662 24.0208 39.8767 23.8333 39.4131 23.625C38.9548 23.4167 38.5485 23.1745 38.1944 22.8984C37.8454 22.6172 37.5694 22.2917 37.3662 21.9219C37.1683 21.5521 37.0694 21.1224 37.0694 20.6328C37.0694 20.1589 37.1735 19.7292 37.3819 19.3438C37.5902 18.9531 37.8819 18.6198 38.2569 18.3438C38.6319 18.0625 39.0746 17.8464 39.585 17.6953C40.1006 17.5443 40.6657 17.4688 41.2803 17.4688C42.1189 17.4688 42.8506 17.6198 43.4756 17.9219C44.1006 18.224 44.585 18.638 44.9287 19.1641C45.2777 19.6901 45.4522 20.2917 45.4522 20.9688H43.1241C43.1241 20.6354 43.0537 20.3438 42.9131 20.0938C42.7777 19.8385 42.5694 19.638 42.2881 19.4922C42.0121 19.3464 41.6631 19.2734 41.2412 19.2734C40.835 19.2734 40.4965 19.3359 40.2256 19.4609C39.9548 19.5807 39.7517 19.7448 39.6162 19.9531C39.4808 20.1562 39.4131 20.3854 39.4131 20.6406C39.4131 20.8333 39.46 21.0078 39.5537 21.1641C39.6527 21.3203 39.7985 21.4661 39.9912 21.6016C40.184 21.737 40.4209 21.8646 40.7022 21.9844C40.9834 22.1042 41.309 22.2214 41.6787 22.3359C42.2985 22.5234 42.8428 22.7344 43.3116 22.9688C43.7855 23.2031 44.1814 23.4661 44.4991 23.7578C44.8168 24.0495 45.0564 24.3802 45.2178 24.75C45.3793 25.1198 45.46 25.5391 45.46 26.0078C45.46 26.5026 45.3636 26.9453 45.1709 27.3359C44.9782 27.7266 44.6996 28.0573 44.335 28.3281C43.9704 28.599 43.5355 28.8047 43.0303 28.9453C42.5251 29.0859 41.96 29.1562 41.335 29.1562C40.7725 29.1562 40.2178 29.0833 39.6709 28.9375C39.1241 28.7865 38.6267 28.5599 38.1787 28.2578C37.736 27.9557 37.3819 27.5703 37.1162 27.1016C36.8506 26.6328 36.7178 26.0781 36.7178 25.4375H39.0694C39.0694 25.7917 39.1241 26.0911 39.2334 26.3359C39.3428 26.5807 39.4965 26.7786 39.6944 26.9297C39.8975 27.0807 40.1371 27.1901 40.4131 27.2578C40.6944 27.3255 41.0017 27.3594 41.335 27.3594C41.7412 27.3594 42.0746 27.3021 42.335 27.1875C42.6006 27.0729 42.7959 26.9141 42.9209 26.7109C43.0511 26.5078 43.1162 26.2786 43.1162 26.0234Z"/>
</mask>
<path d="M2.08594 17.625H4.07031L6.99219 25.9766L9.91406 17.625H11.8984L7.78906 29H6.19531L2.08594 17.625ZM1.01562 17.625H2.99219L3.35156 25.7656V29H1.01562V17.625ZM10.9922 17.625H12.9766V29H10.6328V25.7656L10.9922 17.625ZM20.1169 19.5703L17.0231 29H14.5309L18.7575 17.625H20.3434L20.1169 19.5703ZM22.6872 29L19.5856 19.5703L19.3356 17.625H20.9372L25.1872 29H22.6872ZM22.5466 24.7656V26.6016H16.5387V24.7656H22.5466ZM30.9916 24.9453H28.0931V23.1172H30.9916C31.4395 23.1172 31.8041 23.0443 32.0853 22.8984C32.3666 22.7474 32.5723 22.5391 32.7025 22.2734C32.8327 22.0078 32.8978 21.7083 32.8978 21.375C32.8978 21.0365 32.8327 20.7214 32.7025 20.4297C32.5723 20.138 32.3666 19.9036 32.0853 19.7266C31.8041 19.5495 31.4395 19.4609 30.9916 19.4609H28.9056V29H26.5619V17.625H30.9916C31.8822 17.625 32.6452 17.7865 33.2806 18.1094C33.9212 18.4271 34.4108 18.8672 34.7494 19.4297C35.0879 19.9922 35.2572 20.6354 35.2572 21.3594C35.2572 22.0938 35.0879 22.7292 34.7494 23.2656C34.4108 23.8021 33.9212 24.2161 33.2806 24.5078C32.6452 24.7995 31.8822 24.9453 30.9916 24.9453ZM43.1162 26.0234C43.1162 25.8203 43.085 25.638 43.0225 25.4766C42.9652 25.3099 42.8558 25.1589 42.6944 25.0234C42.5329 24.8828 42.3064 24.7448 42.0147 24.6094C41.723 24.474 41.3454 24.3333 40.8819 24.1875C40.3662 24.0208 39.8767 23.8333 39.4131 23.625C38.9548 23.4167 38.5485 23.1745 38.1944 22.8984C37.8454 22.6172 37.5694 22.2917 37.3662 21.9219C37.1683 21.5521 37.0694 21.1224 37.0694 20.6328C37.0694 20.1589 37.1735 19.7292 37.3819 19.3438C37.5902 18.9531 37.8819 18.6198 38.2569 18.3438C38.6319 18.0625 39.0746 17.8464 39.585 17.6953C40.1006 17.5443 40.6657 17.4688 41.2803 17.4688C42.1189 17.4688 42.8506 17.6198 43.4756 17.9219C44.1006 18.224 44.585 18.638 44.9287 19.1641C45.2777 19.6901 45.4522 20.2917 45.4522 20.9688H43.1241C43.1241 20.6354 43.0537 20.3438 42.9131 20.0938C42.7777 19.8385 42.5694 19.638 42.2881 19.4922C42.0121 19.3464 41.6631 19.2734 41.2412 19.2734C40.835 19.2734 40.4965 19.3359 40.2256 19.4609C39.9548 19.5807 39.7517 19.7448 39.6162 19.9531C39.4808 20.1562 39.4131 20.3854 39.4131 20.6406C39.4131 20.8333 39.46 21.0078 39.5537 21.1641C39.6527 21.3203 39.7985 21.4661 39.9912 21.6016C40.184 21.737 40.4209 21.8646 40.7022 21.9844C40.9834 22.1042 41.309 22.2214 41.6787 22.3359C42.2985 22.5234 42.8428 22.7344 43.3116 22.9688C43.7855 23.2031 44.1814 23.4661 44.4991 23.7578C44.8168 24.0495 45.0564 24.3802 45.2178 24.75C45.3793 25.1198 45.46 25.5391 45.46 26.0078C45.46 26.5026 45.3636 26.9453 45.1709 27.3359C44.9782 27.7266 44.6996 28.0573 44.335 28.3281C43.9704 28.599 43.5355 28.8047 43.0303 28.9453C42.5251 29.0859 41.96 29.1562 41.335 29.1562C40.7725 29.1562 40.2178 29.0833 39.6709 28.9375C39.1241 28.7865 38.6267 28.5599 38.1787 28.2578C37.736 27.9557 37.3819 27.5703 37.1162 27.1016C36.8506 26.6328 36.7178 26.0781 36.7178 25.4375H39.0694C39.0694 25.7917 39.1241 26.0911 39.2334 26.3359C39.3428 26.5807 39.4965 26.7786 39.6944 26.9297C39.8975 27.0807 40.1371 27.1901 40.4131 27.2578C40.6944 27.3255 41.0017 27.3594 41.335 27.3594C41.7412 27.3594 42.0746 27.3021 42.335 27.1875C42.6006 27.0729 42.7959 26.9141 42.9209 26.7109C43.0511 26.5078 43.1162 26.2786 43.1162 26.0234Z" fill="#FAFAFA"/>
<path d="M2.08594 17.625V16.625H0.661419L1.14543 17.9648L2.08594 17.625ZM4.07031 17.625L5.01421 17.2948L4.77989 16.625H4.07031V17.625ZM6.99219 25.9766L6.04829 26.3068L6.99219 29.0047L7.93609 26.3068L6.99219 25.9766ZM9.91406 17.625V16.625H9.20449L8.97016 17.2948L9.91406 17.625ZM11.8984 17.625L12.8389 17.9648L13.323 16.625H11.8984V17.625ZM7.78906 29V30H8.49105L8.72957 29.3398L7.78906 29ZM6.19531 29L5.2548 29.3398L5.49332 30H6.19531V29ZM1.01562 17.625V16.625H0.015625V17.625H1.01562ZM2.99219 17.625L3.99121 17.5809L3.94902 16.625H2.99219V17.625ZM3.35156 25.7656H4.35156V25.7436L4.35059 25.7215L3.35156 25.7656ZM3.35156 29V30H4.35156V29H3.35156ZM1.01562 29H0.015625V30H1.01562V29ZM10.9922 17.625V16.625H10.0354L9.99316 17.5809L10.9922 17.625ZM12.9766 17.625H13.9766V16.625H12.9766V17.625ZM12.9766 29V30H13.9766V29H12.9766ZM10.6328 29H9.63281V30H10.6328V29ZM10.6328 25.7656L9.63379 25.7215L9.63281 25.7436V25.7656H10.6328ZM2.08594 18.625H4.07031V16.625H2.08594V18.625ZM3.12641 17.9552L6.04829 26.3068L7.93609 25.6463L5.01421 17.2948L3.12641 17.9552ZM7.93609 26.3068L10.858 17.9552L8.97016 17.2948L6.04829 25.6463L7.93609 26.3068ZM9.91406 18.625H11.8984V16.625H9.91406V18.625ZM10.9579 17.2852L6.84855 28.6602L8.72957 29.3398L12.8389 17.9648L10.9579 17.2852ZM7.78906 28H6.19531V30H7.78906V28ZM7.13582 28.6602L3.02645 17.2852L1.14543 17.9648L5.2548 29.3398L7.13582 28.6602ZM1.01562 18.625H2.99219V16.625H1.01562V18.625ZM1.99316 17.6691L2.35254 25.8097L4.35059 25.7215L3.99121 17.5809L1.99316 17.6691ZM2.35156 25.7656V29H4.35156V25.7656H2.35156ZM3.35156 28H1.01562V30H3.35156V28ZM2.01562 29V17.625H0.015625V29H2.01562ZM10.9922 18.625H12.9766V16.625H10.9922V18.625ZM11.9766 17.625V29H13.9766V17.625H11.9766ZM12.9766 28H10.6328V30H12.9766V28ZM11.6328 29V25.7656H9.63281V29H11.6328ZM11.6318 25.8097L11.9912 17.6691L9.99316 17.5809L9.63379 25.7215L11.6318 25.8097ZM20.1169 19.5703L21.067 19.882L21.0985 19.7862L21.1102 19.686L20.1169 19.5703ZM17.0231 29V30H17.7475L17.9733 29.3117L17.0231 29ZM14.5309 29L13.5936 28.6517L13.0926 30H14.5309V29ZM18.7575 17.625V16.625H18.0623L17.8201 17.2767L18.7575 17.625ZM20.3434 17.625L21.3367 17.7407L21.4667 16.625H20.3434V17.625ZM22.6872 29L21.7373 29.3124L21.9634 30H22.6872V29ZM19.5856 19.5703L18.5938 19.6978L18.6059 19.7923L18.6357 19.8828L19.5856 19.5703ZM19.3356 17.625V16.625H18.1989L18.3438 17.7525L19.3356 17.625ZM20.9372 17.625L21.8739 17.275L21.6311 16.625H20.9372V17.625ZM25.1872 29V30H26.6283L26.1239 28.65L25.1872 29ZM22.5466 24.7656H23.5466V23.7656H22.5466V24.7656ZM22.5466 26.6016V27.6016H23.5466V26.6016H22.5466ZM16.5387 26.6016H15.5387V27.6016H16.5387V26.6016ZM16.5387 24.7656V23.7656H15.5387V24.7656H16.5387ZM19.1667 19.2586L16.073 28.6883L17.9733 29.3117L21.067 19.882L19.1667 19.2586ZM17.0231 28H14.5309V30H17.0231V28ZM15.4683 29.3483L19.6949 17.9733L17.8201 17.2767L13.5936 28.6517L15.4683 29.3483ZM18.7575 18.625H20.3434V16.625H18.7575V18.625ZM19.3502 17.5093L19.1236 19.4546L21.1102 19.686L21.3367 17.7407L19.3502 17.5093ZM23.6371 28.6876L20.5356 19.2579L18.6357 19.8828L21.7373 29.3124L23.6371 28.6876ZM20.5775 19.4428L20.3275 17.4975L18.3438 17.7525L18.5938 19.6978L20.5775 19.4428ZM19.3356 18.625H20.9372V16.625H19.3356V18.625ZM20.0004 17.975L24.2504 29.35L26.1239 28.65L21.8739 17.275L20.0004 17.975ZM25.1872 28H22.6872V30H25.1872V28ZM21.5466 24.7656V26.6016H23.5466V24.7656H21.5466ZM22.5466 25.6016H16.5387V27.6016H22.5466V25.6016ZM17.5387 26.6016V24.7656H15.5387V26.6016H17.5387ZM16.5387 25.7656H22.5466V23.7656H16.5387V25.7656ZM28.0931 24.9453H27.0931V25.9453H28.0931V24.9453ZM28.0931 23.1172V22.1172H27.0931V23.1172H28.0931ZM32.0853 22.8984L32.5456 23.7862L32.5521 23.7829L32.5584 23.7794L32.0853 22.8984ZM28.9056 19.4609V18.4609H27.9056V19.4609H28.9056ZM28.9056 29V30H29.9056V29H28.9056ZM26.5619 29H25.5619V30H26.5619V29ZM26.5619 17.625V16.625H25.5619V17.625H26.5619ZM33.2806 18.1094L32.8276 19.0009L32.8363 19.0053L33.2806 18.1094ZM33.2806 24.5078L32.8663 23.5977L32.8635 23.599L33.2806 24.5078ZM30.9916 23.9453H28.0931V25.9453H30.9916V23.9453ZM29.0931 24.9453V23.1172H27.0931V24.9453H29.0931ZM28.0931 24.1172H30.9916V22.1172H28.0931V24.1172ZM30.9916 24.1172C31.5375 24.1172 32.0756 24.0299 32.5456 23.7862L31.625 22.0107C31.5325 22.0586 31.3415 22.1172 30.9916 22.1172V24.1172ZM32.5584 23.7794C33.0085 23.5377 33.3708 23.1821 33.6004 22.7136L31.8046 21.8333C31.7738 21.8961 31.7246 21.9571 31.6122 22.0174L32.5584 23.7794ZM33.6004 22.7136C33.8059 22.2945 33.8978 21.8414 33.8978 21.375H31.8978C31.8978 21.5752 31.8595 21.7212 31.8046 21.8333L33.6004 22.7136ZM33.8978 21.375C33.8978 20.9046 33.8065 20.4496 33.6156 20.022L31.7894 20.8373C31.8589 20.9931 31.8978 21.1684 31.8978 21.375H33.8978ZM33.6156 20.022C33.4014 19.5422 33.0596 19.1583 32.6181 18.8803L31.5525 20.5728C31.6736 20.649 31.7432 20.7338 31.7894 20.8373L33.6156 20.022ZM32.6181 18.8803C32.1309 18.5735 31.5644 18.4609 30.9916 18.4609V20.4609C31.3146 20.4609 31.4772 20.5254 31.5525 20.5728L32.6181 18.8803ZM30.9916 18.4609H28.9056V20.4609H30.9916V18.4609ZM27.9056 19.4609V29H29.9056V19.4609H27.9056ZM28.9056 28H26.5619V30H28.9056V28ZM27.5619 29V17.625H25.5619V29H27.5619ZM26.5619 18.625H30.9916V16.625H26.5619V18.625ZM30.9916 18.625C31.7632 18.625 32.3632 18.7649 32.8276 19.0009L33.7337 17.2179C32.9272 16.8081 32.0012 16.625 30.9916 16.625V18.625ZM32.8363 19.0053C33.3218 19.246 33.6612 19.5609 33.8926 19.9453L35.6062 18.914C35.1605 18.1735 34.5206 17.6081 33.7249 17.2135L32.8363 19.0053ZM33.8926 19.9453C34.128 20.3365 34.2572 20.7979 34.2572 21.3594H36.2572C36.2572 20.4729 36.0479 19.6479 35.6062 18.914L33.8926 19.9453ZM34.2572 21.3594C34.2572 21.9352 34.1263 22.3791 33.9037 22.7319L35.5951 23.7993C36.0495 23.0792 36.2572 22.2523 36.2572 21.3594H34.2572ZM33.9037 22.7319C33.6804 23.0858 33.3497 23.3776 32.8663 23.5977L33.695 25.4179C34.4928 25.0547 35.1413 24.5184 35.5951 23.7993L33.9037 22.7319ZM32.8635 23.599C32.3896 23.8165 31.7763 23.9453 30.9916 23.9453V25.9453C31.9881 25.9453 32.9008 25.7825 33.6978 25.4166L32.8635 23.599ZM43.0225 25.4766L42.0768 25.8016L42.083 25.8197L42.0899 25.8376L43.0225 25.4766ZM42.6944 25.0234L42.0376 25.7775L42.0446 25.7836L42.0518 25.7896L42.6944 25.0234ZM40.8819 24.1875L40.5743 25.1391L40.5818 25.1414L40.8819 24.1875ZM39.4131 23.625L38.9993 24.5354L39.0032 24.5371L39.4131 23.625ZM38.1944 22.8984L37.5668 23.677L37.5732 23.6822L37.5796 23.6872L38.1944 22.8984ZM37.3662 21.9219L36.4845 22.3938L36.4898 22.4033L37.3662 21.9219ZM37.3819 19.3438L38.2616 19.8193L38.2642 19.8143L37.3819 19.3438ZM38.2569 18.3438L38.8497 19.1491L38.8569 19.1438L38.2569 18.3438ZM39.585 17.6953L39.3039 16.7356L39.3012 16.7364L39.585 17.6953ZM44.9287 19.1641L44.0916 19.7111L44.0954 19.7169L44.9287 19.1641ZM45.4522 20.9688V21.9688H46.4522V20.9688H45.4522ZM43.1241 20.9688H42.1241V21.9688H43.1241V20.9688ZM42.9131 20.0938L42.0298 20.5625L42.0355 20.5733L42.0415 20.584L42.9131 20.0938ZM42.2881 19.4922L41.821 20.3764L41.8278 20.3799L42.2881 19.4922ZM40.2256 19.4609L40.6301 20.3755L40.6374 20.3722L40.6447 20.3689L40.2256 19.4609ZM39.6162 19.9531L40.4484 20.5079L40.4547 20.4981L39.6162 19.9531ZM39.5537 21.1641L38.6963 21.6786L38.7025 21.6889L38.7089 21.6991L39.5537 21.1641ZM39.9912 21.6016L40.5662 20.7834L39.9912 21.6016ZM41.6787 22.3359L41.3828 23.2912L41.3892 23.2931L41.6787 22.3359ZM43.3116 22.9688L42.8643 23.8632L42.8683 23.8651L43.3116 22.9688ZM45.2178 24.75L44.3014 25.1501L45.2178 24.75ZM44.335 28.3281L43.7387 27.5254L44.335 28.3281ZM39.6709 28.9375L39.4047 29.9014L39.4133 29.9037L39.6709 28.9375ZM38.1787 28.2578L37.6151 29.0838L37.6196 29.0869L38.1787 28.2578ZM36.7178 25.4375V24.4375H35.7178V25.4375H36.7178ZM39.0694 25.4375H40.0694V24.4375H39.0694V25.4375ZM39.6944 26.9297L39.0877 27.7247L39.0977 27.7321L39.6944 26.9297ZM40.4131 27.2578L40.1749 28.229L40.1791 28.23L40.4131 27.2578ZM42.335 27.1875L41.9389 26.2693L41.9323 26.2722L42.335 27.1875ZM42.9209 26.7109L42.0791 26.1713L42.0741 26.179L42.0693 26.1868L42.9209 26.7109ZM44.1162 26.0234C44.1162 25.7178 44.0691 25.4102 43.9551 25.1156L42.0899 25.8376C42.1009 25.8658 42.1162 25.9228 42.1162 26.0234H44.1162ZM43.9682 25.1515C43.8412 24.782 43.6103 24.4864 43.337 24.2572L42.0518 25.7896C42.0776 25.8113 42.0868 25.8238 42.0876 25.8248C42.0879 25.8253 42.0865 25.8234 42.0842 25.819C42.0819 25.8147 42.0793 25.8088 42.0768 25.8016L43.9682 25.1515ZM43.3512 24.2694C43.0927 24.0443 42.7746 23.8597 42.4358 23.7024L41.5936 25.5164C41.8381 25.6299 41.9731 25.7213 42.0376 25.7775L43.3512 24.2694ZM42.4358 23.7024C42.0904 23.542 41.6682 23.3866 41.182 23.2336L40.5818 25.1414C41.0226 25.2801 41.3556 25.4059 41.5936 25.5164L42.4358 23.7024ZM41.1894 23.236C40.7064 23.0798 40.2511 22.9053 39.8231 22.7129L39.0032 24.5371C39.5022 24.7614 40.0261 24.9618 40.5743 25.139L41.1894 23.236ZM39.8269 22.7146C39.4316 22.535 39.0944 22.332 38.8091 22.1097L37.5796 23.6872C38.0027 24.0169 38.478 24.2984 38.9993 24.5354L39.8269 22.7146ZM38.8219 22.1198C38.5681 21.9153 38.3792 21.6889 38.2427 21.4404L36.4898 22.4033C36.7596 22.8945 37.1227 23.3191 37.5668 23.677L38.8219 22.1198ZM38.2479 21.45C38.1398 21.2479 38.0694 20.9854 38.0694 20.6328H36.0694C36.0694 21.2594 36.1969 21.8563 36.4846 22.3938L38.2479 21.45ZM38.0694 20.6328C38.0694 20.3109 38.1386 20.0468 38.2616 19.8193L36.5022 18.8682C36.2085 19.4115 36.0694 20.0068 36.0694 20.6328H38.0694ZM38.2642 19.8143C38.3986 19.5623 38.5886 19.3413 38.8497 19.1491L37.6641 17.5384C37.1751 17.8983 36.7818 18.3439 36.4995 18.8732L38.2642 19.8143ZM38.8569 19.1438C39.1248 18.9428 39.4571 18.776 39.8688 18.6542L39.3012 16.7364C38.6921 16.9167 38.139 17.1822 37.6569 17.5437L38.8569 19.1438ZM39.8661 18.655C40.2784 18.5342 40.7475 18.4688 41.2803 18.4688V16.4688C40.584 16.4688 39.9228 16.5543 39.3039 16.7356L39.8661 18.655ZM41.2803 18.4688C41.999 18.4688 42.5765 18.598 43.0405 18.8222L43.9108 17.0215C43.1248 16.6416 42.2387 16.4688 41.2803 16.4688V18.4688ZM43.0405 18.8222C43.5195 19.0538 43.8575 19.3528 44.0916 19.7111L45.7659 18.617C45.3125 17.9233 44.6818 17.3942 43.9108 17.0215L43.0405 18.8222ZM44.0954 19.7169C44.3277 20.067 44.4522 20.4733 44.4522 20.9688H46.4522C46.4522 20.11 46.2277 19.3132 45.7621 18.6113L44.0954 19.7169ZM45.4522 19.9688H43.1241V21.9688H45.4522V19.9688ZM44.1241 20.9688C44.1241 20.4918 44.0223 20.0259 43.7847 19.6035L42.0415 20.584C42.0852 20.6616 42.1241 20.7791 42.1241 20.9688H44.1241ZM43.7965 19.625C43.5567 19.1731 43.1918 18.8343 42.7484 18.6044L41.8278 20.3799C41.947 20.4417 41.9987 20.504 42.0298 20.5625L43.7965 19.625ZM42.7552 18.608C42.2936 18.3641 41.7713 18.2734 41.2412 18.2734V20.2734C41.555 20.2734 41.7305 20.3286 41.821 20.3764L42.7552 18.608ZM41.2412 18.2734C40.7397 18.2734 40.2473 18.3496 39.8066 18.553L40.6447 20.3689C40.7456 20.3223 40.9303 20.2734 41.2412 20.2734V18.2734ZM39.8211 18.5464C39.4074 18.7294 39.0378 19.0081 38.7778 19.4081L40.4547 20.4981C40.4655 20.4815 40.5022 20.4321 40.6301 20.3755L39.8211 18.5464ZM38.7842 19.3984C38.5341 19.7735 38.4131 20.1975 38.4131 20.6406H40.4131C40.4131 20.5734 40.4275 20.539 40.4483 20.5078L38.7842 19.3984ZM38.4131 20.6406C38.4131 21.0037 38.5038 21.3578 38.6963 21.6786L40.4112 20.6496C40.4112 20.6495 40.4118 20.6504 40.4125 20.6522C40.4132 20.6539 40.4137 20.6555 40.414 20.6566C40.4143 20.6576 40.4141 20.6573 40.4139 20.6551C40.4136 20.6529 40.4131 20.6482 40.4131 20.6406H38.4131ZM38.7089 21.6991C38.8947 21.9925 39.1442 22.2285 39.4163 22.4198L40.5662 20.7834C40.4529 20.7038 40.4107 20.6481 40.3986 20.629L38.7089 21.6991ZM39.4163 22.4198C39.6803 22.6053 39.9826 22.7648 40.3103 22.9044L41.094 21.0644C40.8593 20.9644 40.6876 20.8687 40.5662 20.7834L39.4163 22.4198ZM40.3103 22.9044C40.6299 23.0405 40.9886 23.169 41.3828 23.2911L41.9747 21.3807C41.6294 21.2737 41.337 21.1678 41.094 21.0644L40.3103 22.9044ZM41.3892 23.2931C41.9668 23.4678 42.4564 23.6592 42.8643 23.8632L43.7588 22.0743C43.2292 21.8095 42.6302 21.579 41.9683 21.3788L41.3892 23.2931ZM42.8683 23.8651C43.2758 24.0666 43.5884 24.2793 43.8228 24.4945L45.1753 23.0212C44.7743 22.653 44.2953 22.3396 43.7548 22.0724L42.8683 23.8651ZM43.8228 24.4945C44.045 24.6985 44.1994 24.9167 44.3014 25.1501L46.1343 24.3499C45.9133 23.8438 45.5885 23.4005 45.1753 23.0212L43.8228 24.4945ZM44.3014 25.1501C44.3995 25.375 44.46 25.6547 44.46 26.0078H46.46C46.46 25.4234 46.359 24.8646 46.1343 24.3499L44.3014 25.1501ZM44.46 26.0078C44.46 26.3701 44.3902 26.6581 44.2741 26.8935L46.0677 27.7784C46.337 27.2325 46.46 26.6351 46.46 26.0078H44.46ZM44.2741 26.8935C44.1546 27.1358 43.9816 27.345 43.7387 27.5254L44.9313 29.1309C45.4176 28.7696 45.8018 28.3174 46.0677 27.7784L44.2741 26.8935ZM43.7387 27.5254C43.4867 27.7126 43.1671 27.8692 42.7622 27.9819L43.2985 29.9087C43.904 29.7402 44.4541 29.4853 44.9313 29.1309L43.7387 27.5254ZM42.7622 27.9819C42.3591 28.0941 41.8862 28.1562 41.335 28.1562V30.1562C42.0338 30.1562 42.6911 30.0777 43.2985 29.9087L42.7622 27.9819ZM41.335 28.1562C40.86 28.1562 40.3919 28.0948 39.9286 27.9713L39.4133 29.9037C40.0437 30.0718 40.685 30.1562 41.335 30.1562V28.1562ZM39.9372 27.9736C39.4893 27.8499 39.0917 27.6673 38.7379 27.4287L37.6196 29.0869C38.1616 29.4524 38.7588 29.723 39.4047 29.9014L39.9372 27.9736ZM38.7424 27.4318C38.4266 27.2163 38.177 26.9451 37.9863 26.6085L36.2462 27.5946C36.5868 28.1956 37.0455 28.6951 37.6151 29.0838L38.7424 27.4318ZM37.9863 26.6085C37.8206 26.3163 37.7178 25.9381 37.7178 25.4375H35.7178C35.7178 26.2182 35.8806 26.9494 36.2462 27.5946L37.9863 26.6085ZM36.7178 26.4375H39.0694V24.4375H36.7178V26.4375ZM38.0694 25.4375C38.0694 25.8893 38.1384 26.3366 38.3204 26.7439L40.1464 25.928C40.1097 25.8457 40.0694 25.694 40.0694 25.4375H38.0694ZM38.3204 26.7439C38.4926 27.1292 38.7468 27.4645 39.0877 27.7246L40.301 26.1347C40.2461 26.0928 40.193 26.0323 40.1464 25.928L38.3204 26.7439ZM39.0977 27.7321C39.4202 27.972 39.7852 28.1334 40.1749 28.229L40.6513 26.2866C40.489 26.2468 40.3748 26.1895 40.2911 26.1272L39.0977 27.7321ZM40.1791 28.23C40.5475 28.3187 40.9345 28.3594 41.335 28.3594V26.3594C41.0688 26.3594 40.8412 26.3323 40.6472 26.2856L40.1791 28.23ZM41.335 28.3594C41.825 28.3594 42.3083 28.2918 42.7377 28.1028L41.9323 26.2722C41.8409 26.3124 41.6575 26.3594 41.335 26.3594V28.3594ZM42.7311 28.1057C43.1446 27.9273 43.5187 27.6477 43.7726 27.235L42.0693 26.1868C42.0689 26.1875 42.0651 26.1941 42.0497 26.2066C42.0331 26.2201 41.9995 26.2431 41.9389 26.2693L42.7311 28.1057ZM43.7628 27.2506C44.0023 26.8769 44.1162 26.4584 44.1162 26.0234H42.1162C42.1162 26.0989 42.0999 26.1387 42.0791 26.1713L43.7628 27.2506Z" fill="#686868" mask="url(#path-3-outside-2_747_7334)"/>
</svg>
