<svg width="56" height="56" viewBox="0 0 56 56" fill="none" xmlns="http://www.w3.org/2000/svg">
<g id="floor change" filter="url(#filter0_d_8753_3353)">
<g id="Ellipse 60" filter="url(#filter1_d_8753_3353)">
<circle cx="28" cy="28" r="24" fill="white"/>
</g>
<path id="Vector" fill-rule="evenodd" clip-rule="evenodd" d="M26.8942 18.1026C26.556 18.2791 18.3259 24.6268 18.1573 24.8412C17.9668 25.0834 17.9457 25.5409 18.1139 25.7811C18.2513 25.9773 18.5761 26.0899 20.1005 26.47C20.7209 26.6247 21.2739 26.7766 21.3292 26.8076C21.3951 26.8445 20.8915 27.2761 19.8687 28.0596C19.0101 28.7171 18.2377 29.3441 18.1522 29.4528C17.9681 29.6868 17.9475 30.1486 18.1107 30.3817C18.2607 30.5958 18.4257 30.6549 19.9481 31.0409C20.6564 31.2205 21.2808 31.391 21.3357 31.4198C21.3987 31.4529 20.8579 31.9138 19.8674 32.6715C19.0049 33.3311 18.2313 33.9573 18.148 34.0631C17.9681 34.2919 17.9493 34.7562 18.1107 34.9867C18.1734 35.0762 18.3227 35.1883 18.4425 35.236C18.5623 35.2835 20.9937 35.9252 23.8456 36.6619C28.1881 37.7836 29.0732 37.9901 29.2908 37.9325C29.4809 37.8822 30.6381 36.8466 33.5979 34.0782C35.8237 31.9962 37.7024 30.1995 37.7725 30.0855C38.046 29.6412 37.8363 29.0939 37.3329 28.938C37.194 28.8949 36.6063 28.7852 36.0268 28.6941C35.4472 28.603 34.9103 28.5038 34.8337 28.4735C34.721 28.4291 34.9347 28.1953 35.9475 27.2547C37.6585 25.6655 37.9 25.3992 37.9 25.1017C37.9 24.7948 37.7103 24.4244 37.5227 24.3649C37.4431 24.3396 36.7878 24.2149 36.0664 24.0877C35.3451 23.9605 34.743 23.8444 34.7283 23.8298C34.7136 23.8152 35.2986 23.2477 36.0282 22.5688C37.718 20.9965 37.9 20.7946 37.9 20.4931C37.9 20.1029 37.701 19.8108 37.3727 19.7192C37.0299 19.6235 27.4542 17.9993 27.2372 18C27.1562 18.0003 27.0018 18.0464 26.8942 18.1026ZM31.4565 26.8633C30.4715 27.789 29.5485 28.6047 29.4055 28.676C29.1505 28.8032 29.1123 28.797 27.3762 28.3474C26.403 28.0955 25.1125 27.7651 24.5082 27.6135L23.4095 27.3377L21.991 28.4219C21.2108 29.0183 20.5725 29.5268 20.5725 29.5518C20.5725 29.5769 22.4353 30.0793 24.712 30.6683L28.8514 31.7391L32.1074 28.6848C33.8981 27.005 35.3633 25.6103 35.3633 25.5855C35.3633 25.5515 33.5326 25.1957 33.2907 25.1826C33.2669 25.1813 32.4415 25.9376 31.4565 26.8633ZM31.4596 31.4692C30.4729 32.3954 29.5498 33.2105 29.4083 33.2807C29.1182 33.4243 29.3303 33.4682 25.3296 32.4359L23.4133 31.9415L21.9486 33.064L20.484 34.1866L24.6686 35.268L28.8532 36.3495L30.5472 34.7581C31.4789 33.8828 32.9379 32.5144 33.7893 31.7171C34.6407 30.9199 35.3359 30.2381 35.3341 30.2021C35.3323 30.1661 34.9694 30.0768 34.5275 30.0037C34.0857 29.9306 33.6184 29.8515 33.489 29.828C33.2704 29.7882 33.1272 29.904 31.4596 31.4692Z" fill="black"/>
</g>
<defs>
<filter id="filter0_d_8753_3353" x="0" y="0" width="56" height="56" filterUnits="userSpaceOnUse" color-interpolation-filters="sRGB">
<feFlood flood-opacity="0" result="BackgroundImageFix"/>
<feColorMatrix in="SourceAlpha" type="matrix" values="0 0 0 0 0 0 0 0 0 0 0 0 0 0 0 0 0 0 127 0" result="hardAlpha"/>
<feOffset/>
<feGaussianBlur stdDeviation="2"/>
<feComposite in2="hardAlpha" operator="out"/>
<feColorMatrix type="matrix" values="0 0 0 0 0 0 0 0 0 0 0 0 0 0 0 0 0 0 0.25 0"/>
<feBlend mode="normal" in2="BackgroundImageFix" result="effect1_dropShadow_8753_3353"/>
<feBlend mode="normal" in="SourceGraphic" in2="effect1_dropShadow_8753_3353" result="shape"/>
</filter>
<filter id="filter1_d_8753_3353" x="2" y="2" width="52" height="52" filterUnits="userSpaceOnUse" color-interpolation-filters="sRGB">
<feFlood flood-opacity="0" result="BackgroundImageFix"/>
<feColorMatrix in="SourceAlpha" type="matrix" values="0 0 0 0 0 0 0 0 0 0 0 0 0 0 0 0 0 0 127 0" result="hardAlpha"/>
<feOffset/>
<feGaussianBlur stdDeviation="1"/>
<feComposite in2="hardAlpha" operator="out"/>
<feColorMatrix type="matrix" values="0 0 0 0 0 0 0 0 0 0 0 0 0 0 0 0 0 0 0.3 0"/>
<feBlend mode="normal" in2="BackgroundImageFix" result="effect1_dropShadow_8753_3353"/>
<feBlend mode="normal" in="SourceGraphic" in2="effect1_dropShadow_8753_3353" result="shape"/>
</filter>
</defs>
</svg>
