<svg width="56" height="56" viewBox="0 0 56 56" fill="none" xmlns="http://www.w3.org/2000/svg">
<g filter="url(#filter0_d_11219_12105)">
<g filter="url(#filter1_d_11219_12105)">
<circle cx="28" cy="28" r="24" fill="white"/>
</g>
<path fill-rule="evenodd" clip-rule="evenodd" d="M26.6746 23.4252C26.0853 23.659 25.5862 23.9126 25.5654 23.9886C25.5156 24.1702 27.4215 24.9631 27.9078 24.9631C28.394 24.9631 30.2999 24.1702 30.2501 23.9886C30.2116 23.8479 28.2028 23 27.9078 23C27.8187 23 27.2638 23.1913 26.6746 23.4252ZM23.3744 24.7212C22.8104 24.9372 22.2799 25.1951 22.1954 25.2942C22.0633 25.449 22.0819 25.4929 22.3268 25.6062C22.4837 25.6788 22.9586 25.9175 23.3822 26.1368C23.8059 26.3561 24.2885 26.5356 24.4546 26.5356C24.7866 26.5356 26.9057 25.6762 27.132 25.4497C27.3123 25.2694 27.2585 25.2314 26.0739 24.7056C24.9734 24.217 24.686 24.2187 23.3744 24.7212ZM29.9673 24.7654C28.8184 25.2728 28.6566 25.4033 28.9486 25.587C29.2462 25.7743 31.4161 26.6669 31.5738 26.6669C31.8636 26.6669 33.9574 25.5692 33.9209 25.4363C33.8775 25.2777 31.5328 24.3107 31.1999 24.3143C31.0812 24.3154 30.5265 24.5186 29.9673 24.7654ZM19.386 26.3121C18.647 26.6156 18.0238 26.9374 18.0011 27.0272C17.9766 27.1245 18.367 27.4335 18.9671 27.7917C19.7894 28.2824 20.0535 28.3819 20.4061 28.3336C20.9591 28.2578 23.4009 27.1731 23.4518 26.9805C23.5045 26.7806 21.4984 25.7462 21.0729 25.754C20.8842 25.7575 20.1252 26.0087 19.386 26.3121ZM26.5855 26.3034C25.9474 26.598 25.4252 26.9109 25.4252 26.9986C25.4252 27.2072 27.7304 28.3739 28.1428 28.3739C28.4868 28.3739 30.5659 27.3979 30.8078 27.1229C30.9314 26.9822 30.9201 26.9323 30.7375 26.8134C30.2169 26.4744 28.3922 25.7487 28.0838 25.7577C27.8979 25.7632 27.2237 26.0088 26.5855 26.3034ZM33.7069 26.2486C32.7725 26.7453 32.4548 26.9898 32.5668 27.1261C32.7505 27.3497 35.3558 28.3739 35.7407 28.3739C36.2753 28.3739 38 27.3752 38 27.0657C38 26.9356 37.5829 26.7119 36.7086 26.3733C34.8648 25.6592 34.8191 25.6573 33.7069 26.2486ZM22.6728 28.0605C21.9604 28.386 21.3102 28.7329 21.2278 28.8312C21.003 29.0999 23.2828 30.4772 23.9392 30.4692C24.5029 30.4623 27.0982 29.1692 27.0982 28.8953C27.0982 28.6452 24.8204 27.462 24.3458 27.4656C24.138 27.4672 23.3852 27.735 22.6728 28.0605ZM30.3364 28.0444C29.5511 28.46 29.257 28.6793 29.257 28.8488C29.257 29.148 31.7604 30.4513 32.3621 30.4654C32.8496 30.4767 35.1809 29.116 35.1116 28.8607C35.0394 28.5945 32.4456 27.4737 31.9015 27.4734C31.5653 27.4731 31.0834 27.6489 30.3364 28.0444ZM26.3966 30.0972C25.0958 30.7834 24.8106 31.0091 24.9352 31.2543C24.9766 31.3357 25.5999 31.7618 26.3203 32.2011C27.3511 32.8297 27.7355 33 28.1236 33C28.5118 33 28.8962 32.8297 29.927 32.2011C30.6474 31.7618 31.2707 31.3357 31.3121 31.2543C31.4389 31.0048 31.1441 30.7774 29.8008 30.0875C28.9307 29.6405 28.3676 29.4272 28.0738 29.4334C27.8019 29.4389 27.171 29.6887 26.3966 30.0972Z" fill="#282828"/>
</g>
<defs>
<filter id="filter0_d_11219_12105" x="0" y="0" width="56" height="56" filterUnits="userSpaceOnUse" color-interpolation-filters="sRGB">
<feFlood flood-opacity="0" result="BackgroundImageFix"/>
<feColorMatrix in="SourceAlpha" type="matrix" values="0 0 0 0 0 0 0 0 0 0 0 0 0 0 0 0 0 0 127 0" result="hardAlpha"/>
<feOffset/>
<feGaussianBlur stdDeviation="2"/>
<feComposite in2="hardAlpha" operator="out"/>
<feColorMatrix type="matrix" values="0 0 0 0 0 0 0 0 0 0 0 0 0 0 0 0 0 0 0.25 0"/>
<feBlend mode="normal" in2="BackgroundImageFix" result="effect1_dropShadow_11219_12105"/>
<feBlend mode="normal" in="SourceGraphic" in2="effect1_dropShadow_11219_12105" result="shape"/>
</filter>
<filter id="filter1_d_11219_12105" x="2" y="2" width="52" height="52" filterUnits="userSpaceOnUse" color-interpolation-filters="sRGB">
<feFlood flood-opacity="0" result="BackgroundImageFix"/>
<feColorMatrix in="SourceAlpha" type="matrix" values="0 0 0 0 0 0 0 0 0 0 0 0 0 0 0 0 0 0 127 0" result="hardAlpha"/>
<feOffset/>
<feGaussianBlur stdDeviation="1"/>
<feComposite in2="hardAlpha" operator="out"/>
<feColorMatrix type="matrix" values="0 0 0 0 0 0 0 0 0 0 0 0 0 0 0 0 0 0 0.3 0"/>
<feBlend mode="normal" in2="BackgroundImageFix" result="effect1_dropShadow_11219_12105"/>
<feBlend mode="normal" in="SourceGraphic" in2="effect1_dropShadow_11219_12105" result="shape"/>
</filter>
</defs>
</svg>
