<svg width="25" height="24" viewBox="0 0 25 24" fill="none" xmlns="http://www.w3.org/2000/svg">
<mask id="mask0_8046_1459" style="mask-type:alpha" maskUnits="userSpaceOnUse" x="0" y="0" width="25" height="25">
<rect x="0.5" y="0.000274658" width="24" height="24" fill="#D9D9D9"/>
</mask>
<g mask="url(#mask0_8046_1459)">
<path d="M6.35 17.1003C7.2 16.4503 8.15 15.9378 9.2 15.5628C10.25 15.1878 11.35 15.0003 12.5 15.0003C13.65 15.0003 14.75 15.1878 15.8 15.5628C16.85 15.9378 17.8 16.4503 18.65 17.1003C19.2333 16.4169 19.6875 15.6419 20.0125 14.7753C20.3375 13.9086 20.5 12.9836 20.5 12.0003C20.5 9.78361 19.7208 7.89611 18.1625 6.33777C16.6042 4.77944 14.7167 4.00027 12.5 4.00027C10.2833 4.00027 8.39583 4.77944 6.8375 6.33777C5.27917 7.89611 4.5 9.78361 4.5 12.0003C4.5 12.9836 4.6625 13.9086 4.9875 14.7753C5.3125 15.6419 5.76667 16.4169 6.35 17.1003ZM12.5 13.0003C11.5167 13.0003 10.6875 12.6628 10.0125 11.9878C9.3375 11.3128 9 10.4836 9 9.50027C9 8.51694 9.3375 7.68778 10.0125 7.01277C10.6875 6.33777 11.5167 6.00027 12.5 6.00027C13.4833 6.00027 14.3125 6.33777 14.9875 7.01277C15.6625 7.68778 16 8.51694 16 9.50027C16 10.4836 15.6625 11.3128 14.9875 11.9878C14.3125 12.6628 13.4833 13.0003 12.5 13.0003ZM12.5 22.0003C11.1167 22.0003 9.81667 21.7378 8.6 21.2128C7.38333 20.6878 6.325 19.9753 5.425 19.0753C4.525 18.1753 3.8125 17.1169 3.2875 15.9003C2.7625 14.6836 2.5 13.3836 2.5 12.0003C2.5 10.6169 2.7625 9.31694 3.2875 8.10027C3.8125 6.88361 4.525 5.82527 5.425 4.92527C6.325 4.02527 7.38333 3.31277 8.6 2.78777C9.81667 2.26277 11.1167 2.00027 12.5 2.00027C13.8833 2.00027 15.1833 2.26277 16.4 2.78777C17.6167 3.31277 18.675 4.02527 19.575 4.92527C20.475 5.82527 21.1875 6.88361 21.7125 8.10027C22.2375 9.31694 22.5 10.6169 22.5 12.0003C22.5 13.3836 22.2375 14.6836 21.7125 15.9003C21.1875 17.1169 20.475 18.1753 19.575 19.0753C18.675 19.9753 17.6167 20.6878 16.4 21.2128C15.1833 21.7378 13.8833 22.0003 12.5 22.0003ZM12.5 20.0003C13.3833 20.0003 14.2167 19.8711 15 19.6128C15.7833 19.3544 16.5 18.9836 17.15 18.5003C16.5 18.0169 15.7833 17.6461 15 17.3878C14.2167 17.1294 13.3833 17.0003 12.5 17.0003C11.6167 17.0003 10.7833 17.1294 10 17.3878C9.21667 17.6461 8.5 18.0169 7.85 18.5003C8.5 18.9836 9.21667 19.3544 10 19.6128C10.7833 19.8711 11.6167 20.0003 12.5 20.0003ZM12.5 11.0003C12.9333 11.0003 13.2917 10.8586 13.575 10.5753C13.8583 10.2919 14 9.93361 14 9.50027C14 9.06694 13.8583 8.70861 13.575 8.42527C13.2917 8.14194 12.9333 8.00027 12.5 8.00027C12.0667 8.00027 11.7083 8.14194 11.425 8.42527C11.1417 8.70861 11 9.06694 11 9.50027C11 9.93361 11.1417 10.2919 11.425 10.5753C11.7083 10.8586 12.0667 11.0003 12.5 11.0003Z" fill="#1C1B1F"/>
</g>
</svg>
