<svg width="48" height="48" viewBox="0 0 48 48" fill="none" xmlns="http://www.w3.org/2000/svg">
<circle cx="24" cy="24" r="24" fill="#24B9B0"/>
<path fill-rule="evenodd" clip-rule="evenodd" d="M23.489 11.0766C22.6938 11.3027 21.9713 11.9384 21.6276 12.7145C21.3554 13.3293 21.3738 14.3238 21.6687 14.9232L21.8924 15.378L21.6069 15.498C21.2155 15.6624 20.6333 16.2076 20.3855 16.6417C20.0616 17.2091 19.9872 17.8019 19.9872 19.816C19.9872 22.1178 19.9402 22.0177 21.2169 22.4386L22.0909 22.7268V24.4675C22.0909 26.3196 22.1359 26.5692 22.4991 26.7358C22.7853 26.8669 25.6039 26.8669 25.89 26.7358C26.2533 26.5692 26.2982 26.3196 26.2982 24.4675V22.7268L27.1722 22.4386C28.4804 22.0073 28.4227 22.1446 28.3811 19.5607C28.3527 17.8058 28.3201 17.3711 28.191 17.0244C27.9924 16.4913 27.368 15.7905 26.88 15.5527L26.5014 15.3684L26.7227 14.9185C27.045 14.2635 27.0384 13.2959 26.7071 12.6146C26.4318 12.0488 25.8347 11.4594 25.2919 11.2178C24.7945 10.9965 23.9916 10.9336 23.489 11.0766ZM23.4925 12.5709C23.0431 12.8787 22.8551 13.1949 22.8138 13.7136C22.7832 14.0969 22.8131 14.2338 22.9815 14.4807C23.33 14.9915 23.6175 15.1501 24.1946 15.1501C24.7717 15.1501 25.0591 14.9915 25.4076 14.4807C25.5761 14.2338 25.606 14.0969 25.5754 13.7136C25.5129 12.9298 24.939 12.3725 24.1946 12.3725C23.9113 12.3725 23.6915 12.4346 23.4925 12.5709ZM22.2224 16.7296C21.9 16.8736 21.6076 17.1842 21.4832 17.5146C21.429 17.6583 21.3897 18.4591 21.3897 19.4163V21.0699L21.8937 21.2287C22.9826 21.572 23.2896 21.7187 23.3922 21.9452C23.457 22.0882 23.4933 22.754 23.4933 23.7957V25.4228H24.1946H24.8958V23.7957C24.8958 22.754 24.9322 22.0882 24.9969 21.9452C25.0995 21.7187 25.4065 21.572 26.4955 21.2287L26.9995 21.0699V19.3355C26.9995 17.6775 26.9907 17.588 26.8001 17.3036C26.6906 17.1399 26.4678 16.9158 26.3051 16.8056C26.0213 16.6132 25.9378 16.6052 24.2473 16.6085C22.9753 16.611 22.4122 16.6446 22.2224 16.7296ZM16.9213 21.1226C12.7549 23.3014 11.7955 27.1487 14.668 30.1587C15.4366 30.9641 16.3093 31.5982 17.2966 32.0687C21.3437 33.9974 27.2774 33.9743 31.163 32.0149C33.3293 30.9225 34.899 29.175 35.2391 27.4774C35.2955 27.1961 35.3777 26.8971 35.4217 26.8129C35.5235 26.6184 35.5272 25.9257 35.4261 25.9886C35.3845 26.0144 35.3264 25.8311 35.2969 25.5811C35.2245 24.966 34.7195 23.9283 34.1435 23.2111C33.3833 22.2646 31.4243 20.905 30.6352 20.7761C30.1034 20.6893 29.7378 21.2123 29.947 21.7607C29.9771 21.84 30.2829 22.0462 30.6263 22.2192C32.0129 22.9173 33.2007 24.0138 33.685 25.0426C33.942 25.5883 33.9679 25.72 33.9679 26.481C33.9679 27.2355 33.9408 27.3761 33.6952 27.8975C32.9779 29.4204 30.9437 30.8533 28.5181 31.5441C26.9095 32.0023 26.2998 32.0775 24.1946 32.0775C22.0919 32.0775 21.4792 32.0021 19.88 31.5467C17.4534 30.8556 15.41 29.4178 14.6939 27.8975C14.448 27.3754 14.4212 27.236 14.4212 26.4764C14.4212 25.6835 14.4402 25.5957 14.7441 24.9774C15.2534 23.9413 16.2705 23.0062 17.705 22.2555C18.0819 22.0582 18.4143 21.8338 18.4437 21.7568C18.6248 21.2821 18.3178 20.7494 17.8631 20.7494C17.7375 20.7494 17.3137 20.9173 16.9213 21.1226ZM28.5772 23.5088C28.4567 23.5701 28.3066 23.7283 28.2437 23.8602C28.0535 24.2594 28.2526 24.5275 29.0605 24.9598C29.9482 25.435 30.5056 25.9977 30.5056 26.4187C30.5056 27.4895 28.4727 28.5659 25.8665 28.8752C24.8094 29.0006 22.4314 28.9237 21.565 28.736C19.3846 28.2637 17.8835 27.3214 17.8835 26.4249C17.8835 25.9975 18.4346 25.4385 19.3279 24.9598C20.1259 24.5323 20.3018 24.2696 20.0693 23.8528C19.786 23.3453 19.2397 23.3868 18.2454 23.9917C16.2579 25.2006 15.9525 26.9511 17.4761 28.4007C19.2795 30.1165 23.7579 30.8138 27.5357 29.9671C29.0998 29.6165 30.1994 29.0983 30.973 28.3472C31.7729 27.5706 32.0422 26.7256 31.7795 25.8167C31.5714 25.0964 30.7524 24.2762 29.7285 23.7626C28.9175 23.3558 28.89 23.3497 28.5772 23.5088ZM13 26.4369C13.0007 26.6794 13.0177 26.7681 13.0379 26.634C13.058 26.5 13.0574 26.3016 13.0367 26.1932C13.0159 26.0847 12.9994 26.1944 13 26.4369Z" fill="white"/>
</svg>
