<svg width="40" height="40" viewBox="0 0 40 40" fill="none" xmlns="http://www.w3.org/2000/svg">
<path fill-rule="evenodd" clip-rule="evenodd" d="M33.2005 0.105616C32.3969 0.230187 31.5475 0.567218 30.8288 1.04667C30.3579 1.36081 29.6113 2.10972 29.2977 2.58257C28.5981 3.63749 28.3035 4.6139 28.3012 5.88542C28.2968 8.33218 29.465 10.656 31.638 12.523C32.2899 13.0832 32.832 13.4646 33.639 13.9308L34.0971 14.1955L34.4984 13.9706C36.9645 12.5885 38.8094 10.5153 39.5209 8.32683C39.9719 6.93929 40.0459 5.47046 39.7227 4.31855C39.5339 3.64562 39.2294 3.00632 38.8356 2.45573C38.5377 2.03909 37.9071 1.41241 37.4842 1.11284C36.7641 0.602569 35.8502 0.232257 34.9933 0.103585C34.5279 0.0336632 33.6581 0.0346398 33.2005 0.105616ZM33.6301 3.41909C32.9012 3.59351 32.3356 4.03339 31.9926 4.69276C31.6223 5.40437 31.6231 6.21175 31.9947 6.92601C32.5049 7.90663 33.5787 8.42441 34.6212 8.19249C35.4703 8.00359 36.1764 7.38194 36.4681 6.56651C36.5578 6.31597 36.5724 6.21163 36.5748 5.8073C36.5772 5.3914 36.5653 5.30331 36.4689 5.02605C36.1272 4.04312 35.2751 3.41538 34.2356 3.38069C34.001 3.37288 33.7592 3.38819 33.6301 3.41909ZM6.52077 15.0459C5.15073 15.179 3.91873 15.8206 2.97245 16.8938C1.29584 18.7951 1.21206 21.6752 2.77385 23.7175C3.39623 24.5313 4.3683 25.2302 5.2903 25.5267C5.57995 25.6199 5.68858 25.651 6.11061 25.7619C6.21756 25.79 10.5508 25.81 19.8411 25.8253L33.4153 25.8478L33.7473 25.9367C34.1658 26.0487 34.8109 26.3549 35.1047 26.581C35.6214 26.9786 36.0925 27.5917 36.3303 28.1761C36.716 29.1237 36.6742 30.2944 36.222 31.2099C35.7733 32.1184 35.071 32.7542 34.1417 33.0934C33.4678 33.3393 34.0759 33.3264 23.1223 33.3275C13.1724 33.3285 13.1413 33.3288 12.9668 33.408C12.7486 33.5069 12.664 33.5825 12.5766 33.7565C12.3987 34.1105 12.4608 34.5032 12.7334 34.7495C12.8206 34.8284 12.9395 34.914 12.9974 34.9399C13.14 35.0036 32.3195 35.0313 33.1419 34.9691C34.3635 34.8765 35.1528 34.5895 36.1106 33.8894C36.9321 33.2891 37.681 32.2542 37.9801 31.3062C38.1853 30.6557 38.2521 30.2294 38.2513 29.5768C38.2505 28.9049 38.1745 28.4383 37.9624 27.8032C37.4131 26.1575 35.9314 24.7882 34.2161 24.3407C33.6174 24.1846 33.8965 24.1876 20.1926 24.1866C11.5888 24.1859 6.92666 24.1719 6.69655 24.146C4.65823 23.9168 3.21526 22.2275 3.3301 20.2048C3.40162 18.9451 4.09975 17.8097 5.19225 17.1762C5.50077 16.9973 5.73436 16.9033 6.14737 16.7917L6.46217 16.7067L20.388 16.6867L34.3137 16.6667L34.486 16.569C34.5808 16.5153 34.7121 16.4044 34.7778 16.3227C34.8794 16.1963 34.8996 16.134 34.9124 15.9076C34.9235 15.7124 34.9096 15.6037 34.8607 15.5006C34.7712 15.3119 34.529 15.0993 34.3458 15.0484C34.1736 15.0006 7.01221 14.9982 6.52077 15.0459ZM0.00791454 28.4342C0.0187739 28.4718 0.172055 28.9772 0.34854 29.5573C0.525063 30.1374 0.718383 30.779 0.778227 30.9831C0.838032 31.1872 1.00487 31.7409 1.14897 32.2135C1.53897 33.493 1.71608 34.1034 1.71608 34.1683C1.71608 34.2278 1.56873 34.7308 1.11006 36.237C0.966118 36.7096 0.79975 37.2634 0.740336 37.4675C0.680922 37.6716 0.570024 38.0407 0.49393 38.2878C0.103422 39.5555 -0.00872608 39.9354 0.00389111 39.948C0.0114692 39.9556 0.377875 39.7677 0.818071 39.5305C1.25827 39.2934 1.97877 38.9055 2.4192 38.6687C4.03288 37.8011 4.72631 37.4281 5.73952 36.8824C6.30885 36.5758 7.12623 36.1364 7.55592 35.906C9.53053 34.8473 10.4974 34.3256 10.6353 34.2446L10.785 34.1567L10.2252 33.8526C9.91725 33.6853 9.34889 33.3783 8.96217 33.1703C7.62221 32.4495 6.64928 31.9253 4.93873 31.0023C1.91088 29.3684 0.0361567 28.3659 0.00861767 28.3659C-0.00259327 28.3659 -0.00290577 28.3967 0.00791454 28.4342Z" fill="black"/>
</svg>
