<svg width="48" height="48" viewBox="0 0 48 48" fill="none" xmlns="http://www.w3.org/2000/svg">
<g id="ph:star">
<path id="Vector" d="M44.8462 18.236C44.6587 17.6595 44.3047 17.1514 43.8289 16.7757C43.3531 16.4 42.7768 16.1735 42.1725 16.1247L31.11 15.2322L26.8388 4.90286C26.6078 4.34002 26.2146 3.85858 25.7093 3.51975C25.204 3.18092 24.6093 3 24.0009 3C23.3925 3 22.7979 3.18092 22.2926 3.51975C21.7873 3.85858 21.3941 4.34002 21.1631 4.90286L16.8956 15.2304L5.8275 16.1247C5.22221 16.1759 4.64548 16.4046 4.16958 16.7821C3.69368 17.1596 3.33976 17.6692 3.15218 18.247C2.9646 18.8247 2.95169 19.445 3.11506 20.0301C3.27844 20.6152 3.61085 21.139 4.07063 21.536L12.5081 28.8166L9.9375 39.7029C9.79374 40.2943 9.82894 40.9151 10.0386 41.4865C10.2483 42.0579 10.6231 42.5541 11.1153 42.9121C11.6075 43.2701 12.195 43.4738 12.8032 43.4973C13.4114 43.5208 14.0129 43.3631 14.5313 43.0441L24 37.2166L33.4744 43.0441C33.9929 43.3593 34.5932 43.514 35.1995 43.4887C35.8058 43.4634 36.3911 43.2593 36.8816 42.9021C37.3722 42.5449 37.746 42.0505 37.9562 41.4812C38.1663 40.9119 38.2033 40.2931 38.0625 39.7029L35.4825 28.8147L43.92 21.5341C44.3835 21.1378 44.7189 20.6128 44.8838 20.0257C45.0487 19.4385 45.0356 18.8157 44.8462 18.236ZM41.97 19.2616L32.8388 27.1366C32.6305 27.3161 32.4756 27.5494 32.391 27.8109C32.3063 28.0725 32.2952 28.3523 32.3588 28.6197L35.1488 40.3947C35.156 40.411 35.1567 40.4294 35.1508 40.4461C35.1448 40.4628 35.1327 40.4767 35.1169 40.4847C35.0831 40.511 35.0738 40.5054 35.0456 40.4847L24.7856 34.1754C24.5493 34.0301 24.2774 33.9532 24 33.9532C23.7226 33.9532 23.4507 34.0301 23.2144 34.1754L12.9544 40.4885C12.9263 40.5054 12.9188 40.511 12.8831 40.4885C12.8673 40.4804 12.8552 40.4666 12.8492 40.4498C12.8433 40.4331 12.844 40.4147 12.8513 40.3985L15.6413 28.6235C15.7048 28.356 15.6937 28.0762 15.609 27.8147C15.5244 27.5531 15.3695 27.3199 15.1613 27.1404L6.03 19.2654C6.0075 19.2466 5.98688 19.2297 6.00563 19.1716C6.02438 19.1135 6.03938 19.121 6.0675 19.1172L18.0525 18.1497C18.3274 18.1262 18.5905 18.0272 18.8128 17.8638C19.0351 17.7004 19.208 17.4788 19.3125 17.2235L23.9288 6.04661C23.9438 6.01474 23.9494 5.99974 23.9944 5.99974C24.0394 5.99974 24.045 6.01474 24.06 6.04661L28.6875 17.2235C28.793 17.4789 28.967 17.7002 29.1904 17.863C29.4137 18.0258 29.6777 18.1237 29.9531 18.146L41.9381 19.1135C41.9663 19.1135 41.9831 19.1135 42 19.1679C42.0169 19.2222 42 19.2429 41.97 19.2616Z" fill="#D2D6DB"/>
</g>
</svg>
