<svg width="48" height="48" viewBox="0 0 48 48" fill="none" xmlns="http://www.w3.org/2000/svg">
<g id="tabler:star-filled">
<path id="Vector" d="M16.486 14.6798L3.72602 16.5298L3.50002 16.5758C3.1579 16.6667 2.84601 16.8467 2.5962 17.0974C2.3464 17.3482 2.16763 17.6608 2.07814 18.0033C1.98866 18.3458 1.99167 18.7059 2.08688 19.0468C2.18208 19.3877 2.36605 19.6973 2.62002 19.9438L11.864 28.9418L9.68402 41.6518L9.65802 41.8718C9.63708 42.2257 9.71055 42.5787 9.87092 42.8949C10.0313 43.211 10.2728 43.4788 10.5707 43.6709C10.8686 43.863 11.2122 43.9724 11.5663 43.9881C11.9204 44.0037 12.2723 43.9249 12.586 43.7598L23.998 37.7598L35.384 43.7598L35.584 43.8518C35.9141 43.9819 36.2729 44.0217 36.6235 43.9674C36.9741 43.913 37.304 43.7663 37.5792 43.5424C37.8544 43.3185 38.0651 43.0253 38.1897 42.6931C38.3143 42.3609 38.3482 42.0015 38.288 41.6518L36.106 28.9418L45.354 19.9418L45.51 19.7718C45.7329 19.4974 45.879 19.1688 45.9335 18.8194C45.9879 18.4701 45.9489 18.1126 45.8202 17.7833C45.6915 17.454 45.4779 17.1647 45.201 16.9449C44.9241 16.725 44.5939 16.5825 44.244 16.5318L31.484 14.6798L25.78 3.11985C25.615 2.78491 25.3595 2.50288 25.0424 2.30565C24.7253 2.10843 24.3594 2.00391 23.986 2.00391C23.6126 2.00391 23.2467 2.10843 22.9296 2.30565C22.6126 2.50288 22.3571 2.78491 22.192 3.11985L16.486 14.6798Z" fill="#FEC302"/>
</g>
</svg>
