<svg width="32" height="32" viewBox="0 0 32 32" fill="none" xmlns="http://www.w3.org/2000/svg">
<path fill-rule="evenodd" clip-rule="evenodd" d="M5.59906 0.209356C4.74322 0.479116 3.4645 1.84552 3.20834 2.76392C2.47378 5.398 4.46482 7.84696 7.18114 7.65048C10.4483 7.41416 11.9061 3.46488 9.58354 1.14232C8.56786 0.126636 7.01506 -0.236884 5.59906 0.209356ZM15.3991 1.79912C14.2831 2.91896 13.5991 3.72936 13.5991 3.93192C13.5991 4.13592 14.2563 4.90648 15.3479 5.982C16.7098 7.32408 17.1786 7.69384 17.4663 7.65288C18.1989 7.54856 18.0015 7.05032 16.7147 5.75592C15.5395 4.57384 15.4957 4.50408 15.8191 4.33096C16.253 4.09864 16.2656 3.51816 15.8391 3.40664C15.6631 3.36056 15.5191 3.27896 15.5191 3.22504C15.5191 3.17128 16.0762 2.56696 16.7571 1.882C17.8007 0.832236 17.9677 0.592876 17.82 0.358476C17.7235 0.205356 17.5445 0.0607159 17.4219 0.0367158C17.2994 0.0127158 16.3891 0.805836 15.3991 1.79912ZM17.3858 3.46696C17.173 3.6796 17.2863 4.15272 17.5885 4.31464C18.0509 4.562 18.9819 4.51448 19.2677 4.22888C19.5695 3.92712 19.58 3.8052 19.3271 3.55224C19.1258 3.35096 17.5699 3.28264 17.3858 3.46696ZM20.7458 3.62696C20.6871 3.68552 20.6391 3.88552 20.6391 4.07128C20.6391 4.33416 20.872 4.51048 21.6907 4.86728C22.6706 5.29416 22.7607 5.30728 23.008 5.05976C23.3663 4.70168 23.1346 4.3556 22.2251 3.89048C21.5181 3.52872 20.9458 3.4268 20.7458 3.62696ZM23.7336 6.00888C23.6152 6.31752 24.1267 7.48632 24.4626 7.67416C24.8877 7.91208 25.3237 7.56008 25.2024 7.07688C24.948 6.06328 23.9823 5.36104 23.7336 6.00888ZM24.6447 9.10968C24.2283 9.8876 24.5975 11.1327 25.2096 11.0161C25.4669 10.9671 25.5272 10.798 25.5679 10.0135C25.6011 9.36696 25.5509 9.02824 25.4079 8.93752C25.0699 8.72328 24.8215 8.77944 24.6447 9.10968ZM4.8365 12.8428C3.84786 13.8342 3.03906 14.7676 3.03906 14.917C3.03906 15.0666 3.18706 15.2682 3.36802 15.365C3.65906 15.5207 3.85218 15.3894 5.04802 14.2223L6.39906 12.9034V18.5743V24.2452L5.62706 24.5193C4.79154 24.8161 3.82786 25.6484 3.43074 26.4162C3.06706 27.1196 2.96354 28.359 3.19842 29.1982C3.47442 30.1838 4.43282 31.2321 5.4629 31.6753C6.87234 32.2815 8.43906 31.9626 9.6005 30.8329C11.6154 28.8729 10.7696 25.3682 8.06642 24.4761L7.51906 24.2954V18.6718V13.0482L8.69698 14.2183C9.60706 15.1223 9.9613 15.3761 10.2554 15.3343C11.0661 15.2191 10.808 14.7345 8.93762 12.8586C7.94018 11.8585 7.01394 11.0402 6.87906 11.0402C6.74418 11.0402 5.82498 11.8514 4.8365 12.8428ZM24.6499 12.4601C24.4112 12.906 24.4365 14.2809 24.6896 14.6271C24.8055 14.7855 25.0394 14.8882 25.2096 14.8554C25.4847 14.8025 25.5191 14.6542 25.5191 13.518C25.5191 12.3265 25.4955 12.2369 25.1699 12.1905C24.9495 12.1591 24.7578 12.2585 24.6499 12.4601ZM24.6499 16.3001C24.2875 16.977 24.5768 18.2494 25.0904 18.2378C25.4875 18.2289 25.6133 17.9092 25.5679 17.0254C25.525 16.1938 25.4771 16.0743 25.1699 16.0305C24.9495 15.9991 24.7578 16.0985 24.6499 16.3001ZM24.6499 19.6601C24.4042 20.1191 24.4395 21.0482 24.7114 21.2738C24.8392 21.3799 25.0731 21.4417 25.2314 21.4113C25.4701 21.3654 25.5191 21.1927 25.5191 20.398C25.5191 19.5354 25.4843 19.4353 25.1699 19.3905C24.9495 19.3591 24.7578 19.4585 24.6499 19.6601ZM24.7304 22.8116C24.589 22.9532 24.4791 23.3324 24.4791 23.6793C24.4791 24.2388 24.4288 24.3121 23.9317 24.4761C22.3707 24.9913 21.276 26.5102 21.2826 28.1516C21.2936 30.9428 24.1448 32.786 26.648 31.6204C28.6239 30.7004 29.5226 28.2634 28.5674 26.4162C28.1703 25.6484 27.2066 24.8161 26.3711 24.5193C25.62 24.2526 25.5991 24.2276 25.5991 23.5946C25.5991 22.6684 25.2176 22.3246 24.7304 22.8116Z" fill="black"/>
</svg>
