<svg width="33" height="33" viewBox="0 0 33 33" fill="none" xmlns="http://www.w3.org/2000/svg">
<rect x="0.5" y="0.5" width="32" height="32" rx="8" fill="#0B6B94"/>
<mask id="mask0_10736_2515" style="mask-type:alpha" maskUnits="userSpaceOnUse" x="9" y="8" width="16" height="16">
<rect x="9" y="8" width="16" height="16" fill="#D9D9D9"/>
</mask>
<g mask="url(#mask0_10736_2515)">
<path d="M12.6665 22.6667V17.6667H11.6665V14C11.6665 13.6334 11.7971 13.3195 12.0582 13.0584C12.3193 12.7973 12.6332 12.6667 12.9998 12.6667H14.9998C15.3665 12.6667 15.6804 12.7973 15.9415 13.0584C16.2026 13.3195 16.3332 13.6334 16.3332 14V17.6667H15.3332V22.6667H12.6665ZM13.9998 12C13.6332 12 13.3193 11.8695 13.0582 11.6084C12.7971 11.3473 12.6665 11.0334 12.6665 10.6667C12.6665 10.3 12.7971 9.98615 13.0582 9.72504C13.3193 9.46393 13.6332 9.33337 13.9998 9.33337C14.3665 9.33337 14.6804 9.46393 14.9415 9.72504C15.2026 9.98615 15.3332 10.3 15.3332 10.6667C15.3332 11.0334 15.2026 11.3473 14.9415 11.6084C14.6804 11.8695 14.3665 12 13.9998 12ZM18.9998 22.6667V18.6667H16.9998L18.6998 13.5667C18.7887 13.2778 18.9526 13.0556 19.1915 12.9C19.4304 12.7445 19.6998 12.6667 19.9998 12.6667C20.2998 12.6667 20.5693 12.7445 20.8082 12.9C21.0471 13.0556 21.2109 13.2778 21.2998 13.5667L22.9998 18.6667H20.9998V22.6667H18.9998ZM19.9998 12C19.6332 12 19.3193 11.8695 19.0582 11.6084C18.7971 11.3473 18.6665 11.0334 18.6665 10.6667C18.6665 10.3 18.7971 9.98615 19.0582 9.72504C19.3193 9.46393 19.6332 9.33337 19.9998 9.33337C20.3665 9.33337 20.6804 9.46393 20.9415 9.72504C21.2026 9.98615 21.3332 10.3 21.3332 10.6667C21.3332 11.0334 21.2026 11.3473 20.9415 11.6084C20.6804 11.8695 20.3665 12 19.9998 12Z" fill="white"/>
</g>
</svg>
