<svg width="20" height="21" viewBox="0 0 20 21" fill="none" xmlns="http://www.w3.org/2000/svg">
<path id="Vector" fill-rule="evenodd" clip-rule="evenodd" d="M9.0617 0.543527C7.15933 0.725294 5.3699 1.44095 3.81677 2.64124C3.39032 2.97082 2.46167 3.9013 2.13274 4.3286C1.30763 5.40053 0.70164 6.60019 0.366238 7.82563C-0.480827 10.9207 0.155076 14.1065 2.13274 16.6757C2.46167 17.103 3.39032 18.0335 3.81677 18.363C4.88658 19.1898 6.08387 19.797 7.30689 20.133C10.3958 20.9818 13.5753 20.3446 16.1394 18.363C16.5659 18.0335 17.4945 17.103 17.8235 16.6757C19.0196 15.1217 19.7831 13.2014 19.9094 11.4287C19.9229 11.2399 19.9488 11.0763 19.9669 11.065C19.9851 11.0538 20 10.7808 20 10.4585C20 10.1361 19.985 9.88161 19.9667 9.89295C19.9485 9.90428 19.9226 9.76025 19.9092 9.5729C19.7831 7.80305 19.0189 5.8816 17.8235 4.3286C17.4945 3.9013 16.5659 2.97082 16.1394 2.64124C14.0847 1.05339 11.5595 0.304908 9.0617 0.543527ZM9.17869 2.12629C8.79649 2.16724 8.09102 2.30466 7.70554 2.41325C4.92328 3.19686 2.68726 5.4373 1.9052 8.22508C1.67049 9.06175 1.6164 9.48811 1.6164 10.5021C1.6164 11.5162 1.67049 11.9425 1.9052 12.7792C2.68726 15.567 4.92328 17.8074 7.70554 18.591C8.54426 18.8273 8.96655 18.8812 9.9781 18.8812C10.9896 18.8812 11.4119 18.8273 12.2507 18.591C15.0329 17.8074 17.2689 15.567 18.051 12.7792C18.2868 11.9388 18.3406 11.5157 18.3406 10.5021C18.3406 9.48858 18.2868 9.06546 18.051 8.22508C17.2689 5.4373 15.0323 3.19627 12.2507 2.41332C11.4934 2.20018 11.0138 2.13399 10.1341 2.12118C9.6944 2.11481 9.26448 2.11707 9.17869 2.12629ZM9.58537 5.93357C7.38371 6.11565 5.58504 7.91961 5.42312 10.1081C5.25513 12.3788 6.64818 14.3586 8.8216 14.9382C11.0373 15.5291 13.3677 14.3474 14.2257 12.1977C14.9835 10.2991 14.3751 8.09219 12.7529 6.85541C12.0938 6.35294 11.2251 6.0053 10.4881 5.94923C10.3255 5.93685 10.1399 5.92133 10.0756 5.91473C10.0112 5.90813 9.79065 5.91661 9.58537 5.93357ZM9.56864 7.53009C8.32121 7.73456 7.40255 8.56872 7.06991 9.7989C6.96701 10.1795 6.97469 10.862 7.08637 11.2593C7.38707 12.329 8.15489 13.0983 9.22248 13.3996C9.65303 13.5211 10.3032 13.5211 10.7337 13.3996C11.5822 13.1601 12.2816 12.592 12.6471 11.8453C12.8726 11.3847 12.9565 11.0195 12.9557 10.5021C12.954 9.46979 12.489 8.59447 11.6332 8.01299C11.06 7.62355 10.2106 7.42482 9.56864 7.53009ZM9.56864 8.83805C8.81571 9.02529 8.26322 9.72958 8.26322 10.5021C8.26322 11.431 9.05109 12.2204 9.9781 12.2204C11.0192 12.2204 11.838 11.2516 11.6628 10.2273C11.4933 9.23722 10.5309 8.59877 9.56864 8.83805ZM0.0108702 10.5021C0.0108702 10.8352 0.0168756 10.9715 0.0241678 10.805C0.031499 10.6384 0.031499 10.3658 0.0241678 10.1993C0.0168756 10.0328 0.0108702 10.169 0.0108702 10.5021Z" fill="#2FC8AD"/>
</svg>
