<svg width="48" height="48" viewBox="0 0 48 48" fill="none" xmlns="http://www.w3.org/2000/svg">
<g clip-path="url(#clip0_11503_3407)">
<mask id="mask0_11503_3407" style="mask-type:alpha" maskUnits="userSpaceOnUse" x="12" y="12" width="24" height="24">
<rect x="12" y="12" width="24" height="24" fill="#D9D9D9"/>
</mask>
<g mask="url(#mask0_11503_3407)">
<path d="M24 28C25.25 28 26.3125 27.5625 27.1875 26.6875C28.0625 25.8125 28.5 24.75 28.5 23.5C28.5 22.25 28.0625 21.1875 27.1875 20.3125C26.3125 19.4375 25.25 19 24 19C22.75 19 21.6875 19.4375 20.8125 20.3125C19.9375 21.1875 19.5 22.25 19.5 23.5C19.5 24.75 19.9375 25.8125 20.8125 26.6875C21.6875 27.5625 22.75 28 24 28ZM24 26.2C23.25 26.2 22.6125 25.9375 22.0875 25.4125C21.5625 24.8875 21.3 24.25 21.3 23.5C21.3 22.75 21.5625 22.1125 22.0875 21.5875C22.6125 21.0625 23.25 20.8 24 20.8C24.75 20.8 25.3875 21.0625 25.9125 21.5875C26.4375 22.1125 26.7 22.75 26.7 23.5C26.7 24.25 26.4375 24.8875 25.9125 25.4125C25.3875 25.9375 24.75 26.2 24 26.2ZM24 31C21.5667 31 19.35 30.3208 17.35 28.9625C15.35 27.6042 13.9 25.7833 13 23.5C13.9 21.2167 15.35 19.3958 17.35 18.0375C19.35 16.6792 21.5667 16 24 16C26.4333 16 28.65 16.6792 30.65 18.0375C32.65 19.3958 34.1 21.2167 35 23.5C34.1 25.7833 32.65 27.6042 30.65 28.9625C28.65 30.3208 26.4333 31 24 31ZM24 29C25.8833 29 27.6125 28.5042 29.1875 27.5125C30.7625 26.5208 31.9667 25.1833 32.8 23.5C31.9667 21.8167 30.7625 20.4792 29.1875 19.4875C27.6125 18.4958 25.8833 18 24 18C22.1167 18 20.3875 18.4958 18.8125 19.4875C17.2375 20.4792 16.0333 21.8167 15.2 23.5C16.0333 25.1833 17.2375 26.5208 18.8125 27.5125C20.3875 28.5042 22.1167 29 24 29Z" fill="#282828"/>
</g>
</g>
<defs>
<clipPath id="clip0_11503_3407">
<rect x="4" y="4" width="40" height="40" rx="20" fill="white"/>
</clipPath>
</defs>
</svg>
