<svg width="40" height="40" viewBox="0 0 40 40" fill="none" xmlns="http://www.w3.org/2000/svg">
<rect x="0.5" y="0.5" width="39" height="39" rx="19.5" fill="#3399FF"/>
<rect x="0.5" y="0.5" width="39" height="39" rx="19.5" stroke="#1B8AF9"/>
<path d="M14.034 27.7143V21.8214H13V17.3952C13 16.998 13.1433 16.6543 13.4298 16.364C13.7163 16.0737 14.0545 15.9286 14.4443 15.9286H16.5707C16.9605 15.9286 17.2987 16.0737 17.5852 16.364C17.8717 16.6543 18.015 16.998 18.015 17.3952V21.8214H16.9809V27.7143H14.034ZM15.5085 14.9595C15.1071 14.9595 14.7632 14.8147 14.4767 14.5251C14.1902 14.2356 14.0469 13.8874 14.0469 13.4808C14.0469 13.0741 14.1899 12.7257 14.4757 12.4354C14.7615 12.1451 15.1051 12 15.5064 12C15.9078 12 16.2518 12.1448 16.5383 12.4344C16.8248 12.724 16.968 13.0721 16.968 13.4787C16.968 13.8854 16.8251 14.2338 16.5393 14.5241C16.2535 14.8144 15.9099 14.9595 15.5085 14.9595ZM21.8925 27.7143V23H19.7728L21.5436 16.9238C21.6402 16.6044 21.8184 16.3586 22.0781 16.1866C22.3378 16.0146 22.6379 15.9286 22.9782 15.9286C23.3186 15.9286 23.6187 16.0146 23.8784 16.1866C24.1381 16.3586 24.3163 16.6044 24.4129 16.9238L26.1837 23H24.064V27.7143H21.8925ZM22.9793 14.9595C22.5779 14.9595 22.234 14.8147 21.9475 14.5251C21.661 14.2356 21.5177 13.8874 21.5177 13.4808C21.5177 13.0741 21.6606 12.7257 21.9464 12.4354C22.2323 12.1451 22.5758 12 22.9772 12C23.3786 12 23.7225 12.1448 24.009 12.4344C24.2955 12.724 24.4388 13.0721 24.4388 13.4787C24.4388 13.8854 24.2959 14.2338 24.0101 14.5241C23.7242 14.8144 23.3807 14.9595 22.9793 14.9595Z" fill="white"/>
</svg>
