<svg width="40" height="40" viewBox="0 0 40 40" fill="none" xmlns="http://www.w3.org/2000/svg">
<g id="Frame 1340">
<rect x="0.5" y="0.5" width="39" height="39" rx="3.5" fill="white"/>
<rect x="0.5" y="0.5" width="39" height="39" rx="3.5" stroke="#B3B3B3"/>
<g id="wash">
<mask id="mask0_3_2221" style="mask-type:alpha" maskUnits="userSpaceOnUse" x="4" y="0" width="32" height="32">
<rect id="Bounding box" x="4" width="32" height="32" fill="#D9D9D9"/>
</mask>
<g mask="url(#mask0_3_2221)">
<path id="wash_2" d="M25.8668 12.8C25.1735 12.8 24.5557 12.5289 24.0135 11.9867C23.4713 11.4445 23.2002 10.8267 23.2002 10.1334C23.2002 9.51115 23.4046 8.82226 23.8135 8.06671C24.2224 7.31115 24.9068 6.40004 25.8668 5.33337C26.8268 6.40004 27.5113 7.31115 27.9202 8.06671C28.3291 8.82226 28.5335 9.51115 28.5335 10.1334C28.5335 10.8267 28.2624 11.4445 27.7202 11.9867C27.1779 12.5289 26.5602 12.8 25.8668 12.8ZM13.6002 27.7334C12.4268 27.7334 11.4224 27.3156 10.5868 26.48C9.75127 25.6445 9.3335 24.64 9.3335 23.4667V17.7067C9.3335 17.1556 9.46238 16.6445 9.72016 16.1734C9.97794 15.7023 10.3379 15.3156 10.8002 15.0134L19.6002 9.30671L20.1335 9.84004C20.4891 10.1956 20.6979 10.6178 20.7602 11.1067C20.8224 11.5956 20.7202 12.0534 20.4535 12.48L19.2535 14.4H27.4668C27.7691 14.4 28.0224 14.5023 28.2268 14.7067C28.4313 14.9112 28.5335 15.1645 28.5335 15.4667C28.5335 15.7689 28.4313 16.0223 28.2268 16.2267C28.0224 16.4312 27.7691 16.5334 27.4668 16.5334H15.4135L17.4668 13.2267L11.9468 16.8C11.7868 16.8889 11.6668 17.0134 11.5868 17.1734C11.5068 17.3334 11.4668 17.5112 11.4668 17.7067V23.4667C11.4668 24.0534 11.6757 24.5556 12.0935 24.9734C12.5113 25.3912 13.0135 25.6 13.6002 25.6H26.4002C26.7024 25.6 26.9557 25.7023 27.1602 25.9067C27.3646 26.1112 27.4668 26.3645 27.4668 26.6667C27.4668 26.9689 27.3646 27.2223 27.1602 27.4267C26.9557 27.6311 26.7024 27.7334 26.4002 27.7334H13.6002ZM20.0002 20.2667V18.1334H29.6002C29.9024 18.1334 30.1557 18.2356 30.3602 18.44C30.5646 18.6445 30.6668 18.8978 30.6668 19.2C30.6668 19.5023 30.5646 19.7556 30.3602 19.96C30.1557 20.1645 29.9024 20.2667 29.6002 20.2667H20.0002ZM20.0002 24V21.8667H28.5335C28.8357 21.8667 29.0891 21.9689 29.2935 22.1734C29.4979 22.3778 29.6002 22.6312 29.6002 22.9334C29.6002 23.2356 29.4979 23.4889 29.2935 23.6934C29.0891 23.8978 28.8357 24 28.5335 24H20.0002Z" fill="#24B9B0"/>
</g>
</g>
</g>
</svg>
